<?xml version="1.0" encoding="UTF-8" ?>
<!DOCTYPE svg PUBLIC "-//W3C//DTD SVG 1.1//EN" "http://www.w3.org/Graphics/SVG/1.1/DTD/svg11.dtd">
<svg width="376pt" height="567pt" viewBox="0 0 376 567" version="1.1" xmlns="http://www.w3.org/2000/svg">
<path fill="#5E6480" stroke="#5E6480" stroke-width="0.09375" opacity="1.00" d=" M 39.48 0.00 L 46.61 0.00 C 45.53 2.65 44.50 5.42 42.58 7.60 C 40.81 9.73 38.41 11.35 37.09 13.84 C 35.88 15.90 34.84 18.11 33.22 19.89 C 31.56 19.24 29.96 18.42 28.36 17.62 C 29.80 18.77 31.23 19.93 32.66 21.09 C 29.45 25.25 28.25 30.39 26.44 35.21 C 25.98 42.28 24.49 49.37 25.95 56.43 C 25.48 56.71 24.55 57.27 24.09 57.54 C 25.99 58.32 27.93 59.22 29.11 60.99 C 32.29 65.22 35.84 69.17 38.81 73.55 C 42.86 76.17 46.85 78.90 50.67 81.85 C 55.28 83.20 60.12 84.88 63.05 88.95 C 60.52 92.77 56.28 95.06 51.65 94.89 C 51.55 95.32 51.47 95.75 51.38 96.18 C 56.30 96.06 60.96 94.33 64.40 90.74 C 70.29 95.16 76.27 99.51 81.76 104.42 C 85.58 105.58 89.29 107.27 92.13 110.14 C 97.15 112.26 102.62 112.68 107.96 113.40 C 107.00 116.65 105.95 119.87 105.17 123.17 C 107.26 120.35 108.71 117.13 109.71 113.77 C 114.55 116.32 120.34 118.11 123.59 122.78 C 123.99 122.60 124.79 122.25 125.19 122.08 C 127.43 123.68 130.36 125.09 130.99 128.05 C 132.67 134.72 131.30 141.62 129.46 148.10 C 131.73 144.19 133.07 139.86 134.19 135.50 C 136.89 141.13 139.88 146.83 140.97 153.02 C 141.73 157.71 137.55 160.78 134.30 163.29 C 130.36 166.29 126.10 168.83 121.79 171.24 C 126.29 169.39 130.72 167.36 135.37 165.91 C 133.89 169.70 131.90 173.25 129.72 176.68 C 127.51 180.14 126.70 184.68 123.05 187.07 C 119.12 189.80 113.89 191.89 109.18 189.97 C 104.48 187.99 99.93 185.67 95.16 183.83 C 90.82 181.89 85.90 180.42 82.92 176.45 C 79.79 174.24 77.04 171.51 75.05 168.22 C 80.24 168.80 85.47 169.89 90.70 168.97 C 84.77 167.40 78.62 166.86 72.71 165.21 C 68.64 164.16 65.86 160.80 63.25 157.75 C 58.94 152.43 52.19 149.69 48.28 143.99 C 42.94 142.36 39.58 137.83 36.75 133.31 C 33.98 128.71 29.40 125.38 27.44 120.29 C 25.15 119.59 23.31 118.01 22.07 115.99 C 19.46 111.88 16.81 107.80 14.52 103.51 C 15.16 102.93 15.81 102.36 16.47 101.79 C 15.88 101.56 14.72 101.09 14.13 100.85 C 11.95 97.17 10.45 93.06 9.37 88.92 C 8.95 88.83 8.11 88.65 7.69 88.56 C 4.90 84.27 1.77 80.11 0.00 75.26 L 0.00 59.96 C 0.38 52.50 1.68 45.13 2.88 37.77 C 5.18 28.89 10.17 20.62 17.22 14.70 C 17.54 16.35 17.85 18.01 18.13 19.66 C 18.75 16.74 18.53 13.16 21.04 11.06 C 24.73 7.70 29.11 5.22 33.50 2.89 C 34.16 4.61 34.80 6.32 35.47 8.03 C 35.55 5.92 35.62 3.82 35.67 1.71 C 36.93 1.13 38.20 0.54 39.48 0.00 M 51.32 125.21 C 51.62 128.55 54.19 123.55 51.32 125.21 Z" />
<path fill="#5E6480" stroke="#5E6480" stroke-width="0.09375" opacity="1.00" d=" M 328.28 0.00 L 335.48 0.00 C 336.72 0.54 337.93 1.13 339.15 1.72 C 339.30 3.64 339.46 5.57 339.63 7.49 C 340.07 5.97 340.51 4.45 340.94 2.93 C 345.86 5.07 350.53 7.91 354.43 11.61 C 356.56 13.60 356.17 16.82 356.74 19.43 C 357.12 17.88 357.49 16.33 357.90 14.78 C 366.70 22.27 372.44 33.35 373.26 44.90 C 374.60 50.15 374.16 55.70 376.00 60.82 L 376.00 70.58 C 375.49 73.84 374.63 77.10 372.90 79.94 C 370.69 83.63 368.52 87.69 364.50 89.69 C 364.79 89.92 365.38 90.38 365.67 90.61 C 363.94 94.08 362.43 97.65 361.13 101.30 C 360.40 101.33 358.94 101.38 358.21 101.40 C 358.99 102.01 359.77 102.63 360.56 103.24 C 358.67 107.31 356.11 111.00 353.72 114.78 C 352.00 117.32 350.06 120.81 346.36 119.76 C 346.56 120.30 346.94 121.38 347.13 121.92 C 344.27 126.33 340.30 129.94 337.53 134.45 C 334.94 138.74 331.34 142.46 326.46 144.02 C 323.06 149.75 316.35 152.18 312.22 157.24 C 309.59 160.35 306.89 163.86 302.81 165.07 C 296.69 166.91 290.25 167.30 284.10 168.99 C 289.43 169.99 294.76 168.78 300.06 168.18 C 297.98 171.55 295.25 174.51 291.75 176.43 C 291.63 176.84 291.38 177.67 291.26 178.08 C 285.12 182.16 278.02 184.28 271.40 187.41 C 268.36 188.72 265.40 190.71 261.98 190.73 C 255.33 190.32 248.43 186.12 246.84 179.32 C 244.13 175.04 241.71 170.57 239.76 165.90 C 244.23 167.47 248.53 169.49 252.99 171.11 C 247.09 167.47 240.81 164.16 236.00 159.08 C 233.44 156.64 233.81 152.76 234.79 149.68 C 236.35 144.88 238.44 140.27 240.62 135.72 C 242.16 140.20 243.62 144.73 245.82 148.94 C 243.71 142.24 242.37 135.02 244.01 128.06 C 244.87 124.65 248.17 122.73 251.42 122.08 C 255.53 118.49 260.40 115.96 265.37 113.78 C 266.35 117.20 267.67 120.59 270.05 123.30 C 269.23 119.92 268.00 116.67 266.82 113.42 C 272.24 112.73 277.76 112.25 282.88 110.17 C 285.76 107.28 289.50 105.52 293.36 104.33 C 298.87 99.50 304.76 95.12 310.66 90.79 C 314.08 94.30 318.70 96.36 323.67 95.61 C 319.18 94.66 314.51 93.14 312.05 88.95 C 314.99 84.89 319.77 83.07 324.44 81.85 C 328.20 78.84 332.16 76.07 336.27 73.55 C 339.22 69.14 342.76 65.18 345.97 60.97 C 347.16 59.27 349.04 58.38 350.86 57.53 C 350.43 57.22 349.58 56.61 349.15 56.31 C 350.36 49.30 349.17 42.25 348.62 35.25 C 346.85 30.13 345.13 24.98 342.38 20.28 C 340.52 18.43 339.28 16.12 338.04 13.85 C 336.85 11.51 334.63 9.99 332.93 8.06 C 330.72 5.81 329.64 2.78 328.28 0.00 M 322.22 125.23 C 322.40 128.56 325.14 123.63 322.22 125.23 M 295.38 156.79 C 290.34 154.37 284.60 154.35 279.32 152.69 C 284.38 154.89 289.74 157.14 295.38 156.79 Z" />
<path fill="#5E6480" stroke="#5E6480" stroke-width="0.09375" opacity="1.00" d=" M 144.83 89.01 C 159.76 86.47 174.95 87.27 190.02 87.12 C 202.37 87.28 214.82 86.55 227.06 88.64 C 226.83 89.31 226.61 89.98 226.39 90.65 C 232.96 91.46 239.59 92.14 246.00 93.85 C 247.75 94.23 249.22 95.29 250.63 96.36 C 243.37 95.83 236.04 96.14 228.99 98.11 C 236.31 99.11 243.70 97.20 250.98 98.63 C 246.58 101.09 241.97 103.16 237.39 105.27 C 232.26 107.71 226.47 107.57 221.02 108.74 C 227.26 110.97 233.65 109.08 239.84 107.74 C 238.60 109.16 237.35 110.57 235.94 111.80 C 228.54 117.96 222.12 125.46 217.78 134.08 C 220.49 131.12 222.96 127.91 226.10 125.37 C 225.37 128.63 223.91 131.63 222.43 134.60 C 224.68 132.05 226.89 129.45 229.32 127.07 C 228.53 132.52 226.05 137.52 225.03 142.91 C 222.48 157.75 224.89 173.80 233.65 186.29 C 238.04 193.64 245.27 199.00 253.31 201.77 C 262.88 204.49 273.12 202.92 282.14 199.02 C 281.56 200.04 280.40 202.07 279.82 203.09 C 286.45 200.46 291.83 195.39 295.16 189.12 C 297.72 184.24 302.19 180.86 306.64 177.81 C 313.51 173.11 318.73 166.54 325.02 161.18 C 327.65 168.28 329.24 175.72 332.03 182.77 C 335.79 192.23 340.74 201.20 343.99 210.87 C 345.93 216.73 345.25 222.96 345.55 229.03 C 345.72 234.04 346.59 239.01 346.44 244.04 C 343.65 239.79 342.92 234.70 341.63 229.89 C 343.32 245.81 348.05 261.28 349.32 277.25 C 346.28 272.74 344.83 267.44 342.53 262.57 C 339.63 256.00 336.13 249.74 332.51 243.55 C 328.79 237.21 326.38 230.25 323.36 223.58 C 324.14 230.47 324.24 237.55 326.69 244.12 C 328.42 248.78 329.75 253.67 329.19 258.69 C 326.69 256.24 324.49 253.51 322.30 250.79 C 324.34 257.06 327.64 262.93 328.54 269.54 C 324.75 265.85 321.94 261.33 318.48 257.36 C 320.78 261.98 323.47 266.44 324.96 271.42 C 319.81 267.65 315.70 262.69 310.59 258.88 C 315.42 264.53 319.78 270.59 324.81 276.08 C 329.89 281.75 334.68 287.95 337.60 295.02 C 339.38 306.53 336.20 318.15 337.44 329.73 C 339.86 323.45 340.32 316.73 341.10 310.13 C 342.79 306.46 345.54 303.35 347.20 299.63 C 348.18 307.05 349.63 314.48 349.42 321.99 C 349.18 328.77 344.72 334.23 342.61 340.44 C 340.16 348.16 334.18 354.12 331.63 361.79 C 329.45 369.00 330.88 376.87 328.10 383.95 C 325.69 390.07 320.68 394.58 316.15 399.14 C 310.84 404.66 302.27 407.06 294.95 404.84 C 298.86 403.86 302.80 402.97 306.57 401.50 C 297.39 404.06 288.24 399.78 279.00 401.12 C 268.09 401.62 259.30 409.51 252.79 417.60 C 256.49 416.24 259.52 413.69 262.96 411.86 C 268.06 410.53 272.89 413.52 277.92 413.89 C 286.94 414.70 295.85 417.03 304.95 416.62 C 312.01 415.91 316.89 410.26 322.35 406.37 C 326.74 403.04 332.24 401.18 335.94 396.97 C 340.70 391.07 340.91 383.03 344.64 376.59 C 344.97 381.88 345.11 387.26 344.20 392.50 C 342.32 399.62 337.16 405.15 332.86 410.91 C 329.68 414.96 326.74 419.60 321.92 421.88 C 313.25 426.08 303.63 428.22 294.02 428.51 C 286.80 428.80 279.68 427.40 272.50 426.94 C 274.01 425.63 275.55 424.36 277.10 423.09 C 272.86 424.55 268.67 426.34 265.20 429.25 C 259.57 433.83 253.64 438.22 249.06 443.92 C 253.20 441.83 257.26 439.44 261.87 438.51 C 259.95 442.32 256.63 445.55 256.04 449.93 C 255.48 453.20 256.24 456.48 256.94 459.66 C 257.81 454.63 258.79 449.51 261.51 445.10 C 261.41 460.53 262.55 476.13 259.63 491.39 C 257.65 503.33 251.81 514.22 245.00 524.07 C 240.38 530.41 234.80 536.60 227.27 539.42 C 228.60 536.74 230.22 534.22 231.51 531.53 C 233.88 526.67 232.94 521.01 234.93 516.03 C 236.44 512.19 238.47 508.57 239.81 504.66 C 243.48 495.19 243.28 484.89 245.16 475.02 C 246.63 468.55 244.20 462.19 242.80 455.95 C 242.34 461.72 243.04 467.57 241.84 473.28 C 237.86 466.16 237.35 457.88 236.15 449.99 C 235.27 454.57 233.65 459.27 234.82 463.95 C 236.18 469.52 235.93 475.30 235.17 480.94 C 234.44 488.27 230.76 494.87 229.67 502.13 C 228.27 511.37 224.64 520.05 220.39 528.32 C 217.51 533.71 215.20 539.61 210.75 543.96 C 211.52 537.51 214.62 531.54 214.64 524.97 C 215.10 520.18 212.49 515.55 213.72 510.79 C 215.19 503.91 215.43 496.87 216.46 489.93 C 216.94 487.09 216.46 484.24 215.42 481.59 C 213.21 476.20 214.37 470.29 214.32 464.65 C 213.42 469.34 212.59 474.06 211.23 478.65 C 207.73 471.79 205.91 463.80 208.39 456.29 C 206.00 459.28 203.09 462.80 204.10 466.93 C 207.35 477.78 204.86 489.19 203.52 500.15 C 201.98 509.53 202.21 519.07 201.26 528.50 C 200.55 535.50 198.06 542.13 195.90 548.78 C 193.48 554.84 191.67 561.15 188.74 567.00 L 186.49 567.00 C 183.38 561.76 181.87 555.80 179.66 550.17 C 176.79 541.69 173.70 533.08 173.41 524.03 C 172.97 514.31 172.41 504.58 170.73 494.98 C 169.88 485.68 168.06 476.03 170.96 466.92 C 172.07 462.73 169.01 459.14 166.53 456.15 C 169.00 463.71 167.53 471.90 163.74 478.75 C 162.58 474.91 162.02 470.95 161.57 466.99 C 161.27 470.62 161.26 474.29 160.67 477.90 C 159.89 481.54 157.93 485.03 158.49 488.87 C 159.43 496.38 159.90 503.95 161.41 511.38 C 162.39 515.64 160.08 519.73 160.33 524.00 C 160.17 530.95 163.42 537.29 164.41 544.06 C 162.45 542.15 160.69 540.03 159.43 537.60 C 155.88 530.99 152.63 524.22 149.60 517.36 C 146.07 509.63 145.80 500.95 143.00 492.99 C 139.59 483.48 138.10 472.97 140.37 463.03 C 141.26 458.51 139.65 454.05 138.89 449.64 C 137.70 457.62 137.05 465.87 133.43 473.23 C 131.80 467.48 132.73 461.47 132.16 455.60 C 131.03 462.00 128.41 468.42 129.80 475.00 C 130.93 480.87 131.42 486.83 132.22 492.75 C 133.09 499.91 135.73 506.69 138.91 513.12 C 141.17 517.37 141.41 522.25 142.07 526.93 C 142.71 531.60 145.83 535.33 147.84 539.46 C 140.43 536.82 135.07 530.64 130.47 524.53 C 123.83 515.08 118.11 504.67 115.83 493.24 C 112.89 477.52 112.74 461.32 113.89 445.41 C 116.67 450.29 117.32 455.92 118.05 461.38 C 118.68 457.27 119.67 453.06 118.83 448.91 C 117.77 445.09 115.07 442.05 113.19 438.63 C 117.35 439.37 121.25 441.13 124.63 443.66 C 125.00 443.63 125.73 443.55 126.10 443.51 C 117.61 435.47 109.03 426.60 97.58 422.99 C 99.24 424.28 100.89 425.57 102.52 426.90 C 97.99 427.31 93.47 427.80 88.95 428.31 C 76.98 429.08 64.58 427.38 53.67 422.22 C 48.38 419.80 45.21 414.73 41.78 410.30 C 37.72 404.93 33.14 399.67 31.03 393.17 C 29.75 387.71 29.42 381.94 30.70 376.45 C 33.28 382.11 34.11 388.42 36.99 393.95 C 39.63 398.98 44.95 401.53 49.59 404.35 C 56.20 408.22 61.30 414.97 69.16 416.47 C 78.17 417.35 87.01 414.72 95.94 414.06 C 100.09 413.88 103.93 412.10 108.01 411.57 C 113.66 410.65 117.21 416.24 122.28 417.62 C 117.60 411.63 111.71 406.40 104.82 403.10 C 97.27 400.14 88.85 400.56 81.00 401.98 C 76.55 402.82 72.04 402.14 67.63 401.38 C 71.71 402.84 75.94 403.77 80.16 404.72 C 79.17 405.11 78.21 405.70 77.11 405.68 C 71.25 405.80 64.82 404.82 60.48 400.52 C 55.73 395.91 50.65 391.33 47.58 385.37 C 44.07 377.86 45.58 369.24 43.30 361.43 C 41.70 356.80 38.83 352.77 36.36 348.58 C 33.15 343.46 31.71 337.50 28.72 332.27 C 23.07 322.14 26.69 310.29 27.86 299.51 C 29.78 304.53 34.75 308.33 34.43 314.07 C 34.70 319.25 35.85 324.35 37.53 329.24 C 38.24 320.82 37.00 312.40 37.14 303.96 C 37.29 299.88 36.39 295.36 38.83 291.76 C 45.60 279.78 55.95 270.43 63.91 259.29 C 58.96 262.95 55.20 267.99 50.06 271.40 C 51.65 266.60 54.17 262.21 56.34 257.68 C 53.15 261.55 50.34 265.79 46.56 269.14 C 47.57 262.61 50.86 256.79 52.74 250.52 C 50.60 253.38 48.44 256.26 45.87 258.77 C 45.42 253.77 46.56 248.85 48.30 244.20 C 50.90 237.43 50.83 230.10 51.81 223.01 C 48.70 230.37 45.95 237.92 41.82 244.79 C 38.02 251.19 34.45 257.75 31.59 264.62 C 29.76 268.89 28.35 273.38 25.74 277.27 C 27.05 261.27 31.76 245.77 33.36 229.81 C 32.13 234.65 31.28 239.67 28.85 244.11 C 27.93 236.71 30.05 229.40 29.71 221.99 C 29.09 209.01 37.03 198.04 41.48 186.40 C 44.96 178.23 46.92 169.52 50.18 161.27 C 55.80 166.16 60.64 171.90 66.58 176.42 C 69.37 178.60 72.41 180.48 75.02 182.89 C 79.18 186.61 80.94 192.18 84.88 196.09 C 87.69 199.22 91.41 201.28 95.15 203.10 C 94.28 201.55 93.41 200.00 92.54 198.44 C 98.91 201.58 105.87 203.58 113.03 203.09 C 121.53 203.29 129.33 198.92 135.59 193.54 C 140.83 188.09 144.52 181.30 147.50 174.40 C 151.30 164.08 151.99 152.65 149.78 141.90 C 148.77 136.71 146.34 131.93 145.37 126.72 C 148.15 129.21 150.45 132.15 152.73 135.08 C 151.30 131.95 149.85 128.80 148.99 125.45 C 152.10 127.99 154.64 131.10 157.28 134.10 C 154.25 127.99 150.21 122.42 145.41 117.58 C 142.03 114.03 138.00 111.16 134.72 107.51 C 140.94 108.82 147.36 111.20 153.65 108.77 C 148.41 107.57 142.85 107.63 137.89 105.37 C 133.35 103.31 128.87 101.14 124.39 98.95 C 131.61 96.87 139.15 99.26 146.50 98.18 C 142.75 97.26 138.94 96.59 135.09 96.24 C 131.16 95.79 127.25 96.84 123.32 96.40 C 131.15 92.20 140.34 91.48 149.07 91.05 C 147.64 90.40 146.22 89.72 144.83 89.01 M 217.22 155.25 C 217.77 155.76 217.77 155.76 217.22 155.25 M 74.77 265.75 C 68.93 270.12 62.28 274.01 58.76 280.70 C 53.71 290.40 52.23 301.49 51.38 312.26 C 48.95 307.94 51.07 302.43 49.19 297.81 C 46.82 306.38 49.75 315.05 51.22 323.50 C 52.73 330.60 53.54 338.15 57.53 344.41 C 59.12 347.13 61.32 349.68 61.52 352.98 C 59.01 350.61 56.98 347.76 54.18 345.71 C 56.70 351.42 60.82 356.42 66.04 359.86 C 78.94 368.89 94.55 373.01 110.06 374.47 C 111.67 374.53 113.23 374.97 114.53 375.93 C 109.37 377.29 104.02 376.73 98.75 376.97 C 103.67 377.94 108.67 379.39 113.73 378.56 C 119.85 377.59 126.03 376.81 131.97 374.99 C 134.24 374.29 136.55 373.65 138.95 373.74 C 132.14 381.61 120.37 379.19 112.01 384.33 C 115.69 384.02 119.32 383.31 123.02 383.22 C 122.55 386.49 122.20 389.78 122.32 393.10 C 124.07 390.65 125.13 387.83 126.12 385.02 C 131.78 385.14 137.76 386.76 143.17 384.37 C 145.91 382.85 147.90 380.31 150.58 378.69 C 153.67 376.79 157.03 375.19 159.55 372.52 C 163.02 369.21 164.82 364.58 168.37 361.35 C 168.15 363.52 167.78 365.68 167.39 367.83 C 171.40 363.19 173.27 357.25 175.36 351.60 C 176.99 346.90 179.00 342.01 178.05 336.94 C 177.60 332.00 175.21 327.55 174.23 322.74 C 175.40 323.47 176.58 324.25 177.75 325.02 C 176.37 322.70 175.03 320.30 174.61 317.60 C 172.80 317.45 171.14 316.76 169.54 315.96 C 169.67 311.66 170.25 307.38 170.19 303.07 C 166.96 308.88 165.22 315.31 165.66 321.98 C 164.00 318.34 162.91 314.44 160.89 310.97 C 157.28 304.28 151.86 298.83 146.46 293.58 C 144.02 291.12 140.74 289.43 139.19 286.19 C 141.51 286.96 143.78 287.86 146.10 288.64 C 142.59 284.87 137.83 282.69 133.13 280.79 C 125.68 277.90 117.87 276.03 110.04 274.49 C 104.60 273.37 99.04 273.88 93.54 273.45 C 95.29 271.25 98.31 271.16 100.76 270.25 C 96.16 270.25 91.49 270.62 87.12 272.17 C 83.20 273.55 80.06 276.39 76.49 278.42 C 76.58 275.36 75.88 271.70 78.23 269.28 C 83.06 264.01 88.47 259.11 95.02 256.09 C 87.95 258.50 80.54 260.80 74.77 265.75 M 279.75 256.14 C 286.50 258.95 291.91 263.99 296.82 269.29 C 299.08 271.71 298.43 275.29 298.65 278.31 C 294.74 276.25 291.31 273.26 287.03 271.95 C 283.05 270.50 278.80 270.29 274.62 270.21 C 276.59 271.00 279.12 271.16 280.27 273.22 C 266.89 273.59 253.55 276.19 241.10 281.15 C 236.80 283.01 232.26 284.91 229.22 288.64 C 231.30 287.92 233.34 287.13 235.43 286.44 C 233.85 289.76 230.58 291.59 228.04 294.07 C 222.03 299.81 216.38 306.16 212.74 313.71 C 211.12 316.90 210.64 320.55 208.78 323.63 C 208.58 319.74 209.85 315.72 208.51 311.94 C 207.48 309.05 206.31 306.21 205.43 303.27 C 204.80 307.26 205.13 311.30 205.78 315.26 C 204.17 316.42 202.52 317.64 200.43 317.56 C 199.92 320.24 198.70 322.68 197.31 325.00 C 198.34 324.41 199.38 323.83 200.43 323.26 C 199.17 330.23 195.18 337.17 197.39 344.39 C 200.02 352.50 202.21 361.11 207.61 367.91 C 207.30 365.73 206.98 363.54 206.77 361.35 C 210.03 364.49 211.77 368.81 214.99 371.97 C 218.91 376.28 224.74 378.04 228.84 382.15 C 234.03 387.20 241.95 385.70 248.39 384.64 C 249.83 387.42 251.02 390.32 252.55 393.06 C 252.57 389.75 252.33 386.44 252.11 383.13 C 255.44 383.36 258.75 383.76 262.07 384.00 C 254.05 379.03 242.33 381.60 236.15 373.54 C 243.17 374.63 249.92 377.12 257.02 377.89 C 263.46 379.42 270.09 378.62 276.41 376.95 C 270.80 376.47 265.03 377.43 259.54 375.82 C 260.31 375.29 261.14 374.92 262.03 374.72 C 274.84 373.61 287.85 371.32 299.41 365.44 C 308.06 361.07 317.14 355.25 320.67 345.75 C 318.05 347.92 316.00 350.65 313.62 353.07 C 313.47 350.20 315.27 347.92 316.69 345.63 C 321.66 338.35 322.38 329.31 324.29 320.93 C 325.60 313.32 328.11 305.40 325.76 297.73 C 324.50 302.50 325.17 307.49 324.25 312.31 C 322.80 309.07 323.37 305.38 322.67 301.97 C 321.22 293.99 319.43 285.83 315.14 278.84 C 311.60 273.05 305.45 269.81 300.27 265.73 C 294.40 260.80 286.99 258.27 279.75 256.14 M 183.21 375.27 C 180.42 378.32 179.40 382.54 176.58 385.58 C 172.20 390.37 167.48 394.86 163.35 399.88 C 165.68 398.61 167.78 395.95 170.69 396.57 C 165.95 404.92 157.79 412.59 158.43 422.93 C 159.60 429.91 160.80 438.27 167.54 442.18 C 167.88 441.83 168.55 441.14 168.89 440.80 C 172.06 440.43 175.16 439.67 178.02 438.22 C 180.59 434.37 183.99 431.20 187.03 427.74 C 189.54 429.61 191.91 431.68 193.89 434.13 C 195.60 436.09 196.98 438.63 199.67 439.38 C 202.18 440.62 205.42 440.03 207.43 442.26 C 213.87 438.60 215.23 430.72 216.49 424.07 C 217.67 417.52 214.00 411.58 210.74 406.24 C 208.77 402.79 205.10 400.08 204.99 395.80 C 207.43 396.98 209.68 398.49 211.85 400.11 C 207.72 394.92 202.89 390.36 198.40 385.51 C 195.93 382.87 194.87 379.29 192.67 376.48 C 191.11 374.49 189.37 372.65 187.74 370.73 C 186.18 372.19 184.62 373.66 183.21 375.27 M 78.03 423.55 C 82.65 424.08 87.20 422.86 91.70 422.02 C 87.13 421.73 82.26 421.48 78.03 423.55 M 283.24 422.08 C 287.75 422.68 292.29 424.28 296.86 423.34 C 292.51 421.74 287.81 421.55 283.24 422.08 Z" />
</svg>
