<svg xmlns="http://www.w3.org/2000/svg" xmlns:xlink="http://www.w3.org/1999/xlink" contentStyleType="text/css" data-diagram-type="ACTIVITY" height="400px" preserveAspectRatio="none" style="width:852px;height:400px;background:#FFFFFF;" version="1.1" viewBox="0 0 852 400" width="852px" zoomAndPan="magnify"><title>Wallpaper Selection Logic</title><defs/><g><g class="title" data-source-line="1"><text fill="#000000" font-family="sans-serif" font-size="14" font-weight="bold" lengthAdjust="spacing" textLength="205.0303" x="322.4243" y="32.9951">Wallpaper Selection Logic</text></g><rect fill="none" height="340.8438" style="stroke:#000000;stroke-width:1.5;" width="830.8789" x="11" y="48.2969"/><path d="M199.0078,48.2969 L199.0078,57.5938 L189.0078,67.5938 L11,67.5938" fill="none" style="stroke:#000000;stroke-width:1.5;"/><text fill="#000000" font-family="sans-serif" font-size="14" lengthAdjust="spacing" textLength="178.0078" x="14" y="62.292">Post-Login (User Session)</text><ellipse cx="331.0757" cy="87.5938" fill="#222222" rx="10" ry="10" style="stroke:#222222;stroke-width:1;"/><rect fill="#F1F1F1" height="33.9688" rx="12.5" ry="12.5" style="stroke:#181818;stroke-width:0.5;" width="133.6016" x="264.2749" y="117.5938"/><text fill="#000000" font-family="sans-serif" font-size="12" lengthAdjust="spacing" textLength="113.6016" x="274.2749" y="138.7324">User session starts</text><polygon fill="#F1F1F1" points="250.2783,171.5625,411.873,171.5625,423.873,183.5625,411.873,195.5625,250.2783,195.5625,238.2783,183.5625,250.2783,171.5625" style="stroke:#181818;stroke-width:0.5;"/><text fill="#000000" font-family="sans-serif" font-size="11" lengthAdjust="spacing" textLength="161.5947" x="250.2783" y="187.3706">Logo present in theme walls?</text><text fill="#000000" font-family="sans-serif" font-size="11" lengthAdjust="spacing" textLength="19.0083" x="219.27" y="180.9683">yes</text><text fill="#000000" font-family="sans-serif" font-size="11" lengthAdjust="spacing" textLength="13.7017" x="423.873" y="180.9683">no</text><rect fill="#F1F1F1" height="33.9688" rx="12.5" ry="12.5" style="stroke:#181818;stroke-width:0.5;" width="197.2578" x="23" y="205.5625"/><text fill="#000000" font-family="sans-serif" font-size="12" lengthAdjust="spacing" textLength="177.2578" x="33" y="226.7012">Set desktop wallpaper = logo</text><polygon fill="#F1F1F1" points="471.9094,205.5625,609.1355,205.5625,621.1355,218.3672,609.1355,231.1719,471.9094,231.1719,459.9094,218.3672,471.9094,205.5625" style="stroke:#181818;stroke-width:0.5;"/><text fill="#000000" font-family="sans-serif" font-size="11" lengthAdjust="spacing" textLength="137.2261" x="471.9094" y="215.7729">Any wallpapers available</text><text fill="#000000" font-family="sans-serif" font-size="11" lengthAdjust="spacing" textLength="130.2759" x="471.9094" y="228.5776">(excluding lockscreen)?</text><text fill="#000000" font-family="sans-serif" font-size="11" lengthAdjust="spacing" textLength="19.0083" x="440.9011" y="215.7729">yes</text><text fill="#000000" font-family="sans-serif" font-size="11" lengthAdjust="spacing" textLength="13.7017" x="621.1355" y="215.7729">no</text><rect fill="#F1F1F1" height="33.9688" rx="12.5" ry="12.5" style="stroke:#181818;stroke-width:0.5;" width="280.7188" x="250.2578" y="241.1719"/><text fill="#000000" font-family="sans-serif" font-size="12" lengthAdjust="spacing" textLength="260.7188" x="260.2578" y="262.3105">Set desktop wallpaper = random wallpaper</text><rect fill="#F1F1F1" height="33.9688" rx="12.5" ry="12.5" style="stroke:#181818;stroke-width:0.5;" width="278.9023" x="550.9766" y="241.1719"/><text fill="#000000" font-family="sans-serif" font-size="12" lengthAdjust="spacing" textLength="258.9023" x="560.9766" y="262.3105">Set desktop wallpaper = default solid color</text><polygon fill="#F1F1F1" points="540.5225,281.1406,552.5225,293.1406,540.5225,305.1406,528.5225,293.1406,540.5225,281.1406" style="stroke:#181818;stroke-width:0.5;"/><polygon fill="#F1F1F1" points="331.0757,311.1406,343.0757,323.1406,331.0757,335.1406,319.0757,323.1406,331.0757,311.1406" style="stroke:#181818;stroke-width:0.5;"/><ellipse cx="331.0757" cy="366.1406" fill="none" rx="11" ry="11" style="stroke:#222222;stroke-width:1;"/><ellipse cx="331.0757" cy="366.1406" fill="#222222" rx="6" ry="6" style="stroke:#222222;stroke-width:1;"/><line style="stroke:#181818;stroke-width:1;" x1="331.0757" x2="331.0757" y1="97.5938" y2="117.5938"/><polygon fill="#181818" points="327.0757,107.5938,331.0757,117.5938,335.0757,107.5938,331.0757,111.5938" style="stroke:#181818;stroke-width:1;"/><line style="stroke:#181818;stroke-width:1;" x1="459.9094" x2="390.6172" y1="218.3672" y2="218.3672"/><line style="stroke:#181818;stroke-width:1;" x1="390.6172" x2="390.6172" y1="218.3672" y2="241.1719"/><polygon fill="#181818" points="386.6172,231.1719,390.6172,241.1719,394.6172,231.1719,390.6172,235.1719" style="stroke:#181818;stroke-width:1;"/><line style="stroke:#181818;stroke-width:1;" x1="621.1355" x2="690.4277" y1="218.3672" y2="218.3672"/><line style="stroke:#181818;stroke-width:1;" x1="690.4277" x2="690.4277" y1="218.3672" y2="241.1719"/><polygon fill="#181818" points="686.4277,231.1719,690.4277,241.1719,694.4277,231.1719,690.4277,235.1719" style="stroke:#181818;stroke-width:1;"/><line style="stroke:#181818;stroke-width:1;" x1="390.6172" x2="390.6172" y1="275.1406" y2="293.1406"/><line style="stroke:#181818;stroke-width:1;" x1="390.6172" x2="528.5225" y1="293.1406" y2="293.1406"/><polygon fill="#181818" points="518.5225,289.1406,528.5225,293.1406,518.5225,297.1406,522.5225,293.1406" style="stroke:#181818;stroke-width:1;"/><line style="stroke:#181818;stroke-width:1;" x1="690.4277" x2="690.4277" y1="275.1406" y2="293.1406"/><line style="stroke:#181818;stroke-width:1;" x1="690.4277" x2="552.5225" y1="293.1406" y2="293.1406"/><polygon fill="#181818" points="562.5225,289.1406,552.5225,293.1406,562.5225,297.1406,558.5225,293.1406" style="stroke:#181818;stroke-width:1;"/><line style="stroke:#181818;stroke-width:1;" x1="238.2783" x2="121.6289" y1="183.5625" y2="183.5625"/><line style="stroke:#181818;stroke-width:1;" x1="121.6289" x2="121.6289" y1="183.5625" y2="205.5625"/><polygon fill="#181818" points="117.6289,195.5625,121.6289,205.5625,125.6289,195.5625,121.6289,199.5625" style="stroke:#181818;stroke-width:1;"/><line style="stroke:#181818;stroke-width:1;" x1="423.873" x2="540.5225" y1="183.5625" y2="183.5625"/><line style="stroke:#181818;stroke-width:1;" x1="540.5225" x2="540.5225" y1="183.5625" y2="205.5625"/><polygon fill="#181818" points="536.5225,195.5625,540.5225,205.5625,544.5225,195.5625,540.5225,199.5625" style="stroke:#181818;stroke-width:1;"/><line style="stroke:#181818;stroke-width:1;" x1="121.6289" x2="121.6289" y1="239.5313" y2="323.1406"/><line style="stroke:#181818;stroke-width:1;" x1="121.6289" x2="319.0757" y1="323.1406" y2="323.1406"/><polygon fill="#181818" points="309.0757,319.1406,319.0757,323.1406,309.0757,327.1406,313.0757,323.1406" style="stroke:#181818;stroke-width:1;"/><line style="stroke:#181818;stroke-width:1;" x1="540.5225" x2="540.5225" y1="305.1406" y2="323.1406"/><line style="stroke:#181818;stroke-width:1;" x1="540.5225" x2="343.0757" y1="323.1406" y2="323.1406"/><polygon fill="#181818" points="353.0757,319.1406,343.0757,323.1406,353.0757,327.1406,349.0757,323.1406" style="stroke:#181818;stroke-width:1;"/><line style="stroke:#181818;stroke-width:1;" x1="331.0757" x2="331.0757" y1="151.5625" y2="171.5625"/><polygon fill="#181818" points="327.0757,161.5625,331.0757,171.5625,335.0757,161.5625,331.0757,165.5625" style="stroke:#181818;stroke-width:1;"/><line style="stroke:#181818;stroke-width:1;" x1="331.0757" x2="331.0757" y1="335.1406" y2="355.1406"/><polygon fill="#181818" points="327.0757,345.1406,331.0757,355.1406,335.0757,345.1406,331.0757,349.1406" style="stroke:#181818;stroke-width:1;"/><!--SRC=[VO-nJWCn38RtF8NLXRkXBq2543i3KeLOM4BYAr5TEufTe4AyExuxu8GGpMBbz_V_jgqO8Jn4eXehDjWYOR8Y3BUoAoc42rX_FRWJjVKeCtJtEi6gZlO_IAYnMPdigt_f5Rm703L7lLvEFPrxiweRryi0dRi5QaD5Dl0SUyO3mgilgzVz-FFe4shlk0TjqI2ZxatgnCm7NG5vofY8f0WTouoF-JTyMaY5-18BnIV2H-xmBT4n5zwvFUqrDKJk_muzCxP5pd9OfCra-Bt46Nl68Hx9G8LAXYGatmcSon2MgkuC7vy0]--></g></svg>