<svg xmlns="http://www.w3.org/2000/svg" xmlns:xlink="http://www.w3.org/1999/xlink" contentStyleType="text/css" data-diagram-type="ACTIVITY" height="398px" preserveAspectRatio="none" style="width:934px;height:398px;background:#FFFFFF;" version="1.1" viewBox="0 0 934 398" width="934px" zoomAndPan="magnify"><title>Lockscreen Selection Logic</title><defs/><g><g class="title" data-source-line="1"><text fill="#000000" font-family="sans-serif" font-size="14" font-weight="bold" lengthAdjust="spacing" textLength="213.2949" x="358.9238" y="32.9951">Lockscreen Selection Logic</text></g><rect fill="none" height="339.2344" style="stroke:#000000;stroke-width:1.5;" width="912.1426" x="11" y="48.2969"/><path d="M160.0498,48.2969 L160.0498,57.5938 L150.0498,67.5938 L11,67.5938" fill="none" style="stroke:#000000;stroke-width:1.5;"/><text fill="#000000" font-family="sans-serif" font-size="14" lengthAdjust="spacing" textLength="139.0498" x="14" y="62.292">Pre-Login (LightDM)</text><ellipse cx="377.8496" cy="87.5938" fill="#222222" rx="10" ry="10" style="stroke:#222222;stroke-width:1;"/><rect fill="#F1F1F1" height="33.9688" rx="12.5" ry="12.5" style="stroke:#181818;stroke-width:0.5;" width="123.5762" x="316.0615" y="117.5938"/><text fill="#000000" font-family="sans-serif" font-size="12" lengthAdjust="spacing" textLength="103.5762" x="326.0615" y="138.7324">Initialize LightDM</text><polygon fill="#F1F1F1" points="279.2954,171.5625,476.4038,171.5625,488.4038,183.5625,476.4038,195.5625,279.2954,195.5625,267.2954,183.5625,279.2954,171.5625" style="stroke:#181818;stroke-width:0.5;"/><text fill="#000000" font-family="sans-serif" font-size="11" lengthAdjust="spacing" textLength="197.1084" x="279.2954" y="187.3706">Lockscreen present in theme walls?</text><text fill="#000000" font-family="sans-serif" font-size="11" lengthAdjust="spacing" textLength="19.0083" x="248.2871" y="180.9683">yes</text><text fill="#000000" font-family="sans-serif" font-size="11" lengthAdjust="spacing" textLength="13.7017" x="488.4038" y="180.9683">no</text><rect fill="#F1F1F1" height="33.9688" rx="12.5" ry="12.5" style="stroke:#181818;stroke-width:0.5;" width="250.1738" x="23" y="205.5625"/><text fill="#000000" font-family="sans-serif" font-size="12" lengthAdjust="spacing" textLength="230.1738" x="33" y="226.7012">Set LightDM background = lockscreen</text><polygon fill="#F1F1F1" points="536.0801,205.5625,679.1445,205.5625,691.1445,217.5625,679.1445,229.5625,536.0801,229.5625,524.0801,217.5625,536.0801,205.5625" style="stroke:#181818;stroke-width:0.5;"/><text fill="#000000" font-family="sans-serif" font-size="11" lengthAdjust="spacing" textLength="143.0645" x="536.0801" y="221.3706">Any wallpapers available?</text><text fill="#000000" font-family="sans-serif" font-size="11" lengthAdjust="spacing" textLength="19.0083" x="505.0718" y="214.9683">yes</text><text fill="#000000" font-family="sans-serif" font-size="11" lengthAdjust="spacing" textLength="13.7017" x="691.1445" y="214.9683">no</text><rect fill="#F1F1F1" height="33.9688" rx="12.5" ry="12.5" style="stroke:#181818;stroke-width:0.5;" width="294.8926" x="303.1738" y="239.5625"/><text fill="#000000" font-family="sans-serif" font-size="12" lengthAdjust="spacing" textLength="274.8926" x="313.1738" y="260.7012">Set LightDM background = random wallpaper</text><rect fill="#F1F1F1" height="33.9688" rx="12.5" ry="12.5" style="stroke:#181818;stroke-width:0.5;" width="293.0762" x="618.0664" y="239.5625"/><text fill="#000000" font-family="sans-serif" font-size="12" lengthAdjust="spacing" textLength="273.0762" x="628.0664" y="260.7012">Set LightDM background = default solid color</text><polygon fill="#F1F1F1" points="607.6123,279.5313,619.6123,291.5313,607.6123,303.5313,595.6123,291.5313,607.6123,279.5313" style="stroke:#181818;stroke-width:0.5;"/><polygon fill="#F1F1F1" points="377.8496,309.5313,389.8496,321.5313,377.8496,333.5313,365.8496,321.5313,377.8496,309.5313" style="stroke:#181818;stroke-width:0.5;"/><ellipse cx="377.8496" cy="364.5313" fill="none" rx="11" ry="11" style="stroke:#222222;stroke-width:1;"/><ellipse cx="377.8496" cy="364.5313" fill="#222222" rx="6" ry="6" style="stroke:#222222;stroke-width:1;"/><line style="stroke:#181818;stroke-width:1;" x1="377.8496" x2="377.8496" y1="97.5938" y2="117.5938"/><polygon fill="#181818" points="373.8496,107.5938,377.8496,117.5938,381.8496,107.5938,377.8496,111.5938" style="stroke:#181818;stroke-width:1;"/><line style="stroke:#181818;stroke-width:1;" x1="524.0801" x2="450.6201" y1="217.5625" y2="217.5625"/><line style="stroke:#181818;stroke-width:1;" x1="450.6201" x2="450.6201" y1="217.5625" y2="239.5625"/><polygon fill="#181818" points="446.6201,229.5625,450.6201,239.5625,454.6201,229.5625,450.6201,233.5625" style="stroke:#181818;stroke-width:1;"/><line style="stroke:#181818;stroke-width:1;" x1="691.1445" x2="764.6045" y1="217.5625" y2="217.5625"/><line style="stroke:#181818;stroke-width:1;" x1="764.6045" x2="764.6045" y1="217.5625" y2="239.5625"/><polygon fill="#181818" points="760.6045,229.5625,764.6045,239.5625,768.6045,229.5625,764.6045,233.5625" style="stroke:#181818;stroke-width:1;"/><line style="stroke:#181818;stroke-width:1;" x1="450.6201" x2="450.6201" y1="273.5313" y2="291.5313"/><line style="stroke:#181818;stroke-width:1;" x1="450.6201" x2="595.6123" y1="291.5313" y2="291.5313"/><polygon fill="#181818" points="585.6123,287.5313,595.6123,291.5313,585.6123,295.5313,589.6123,291.5313" style="stroke:#181818;stroke-width:1;"/><line style="stroke:#181818;stroke-width:1;" x1="764.6045" x2="764.6045" y1="273.5313" y2="291.5313"/><line style="stroke:#181818;stroke-width:1;" x1="764.6045" x2="619.6123" y1="291.5313" y2="291.5313"/><polygon fill="#181818" points="629.6123,287.5313,619.6123,291.5313,629.6123,295.5313,625.6123,291.5313" style="stroke:#181818;stroke-width:1;"/><line style="stroke:#181818;stroke-width:1;" x1="267.2954" x2="148.0869" y1="183.5625" y2="183.5625"/><line style="stroke:#181818;stroke-width:1;" x1="148.0869" x2="148.0869" y1="183.5625" y2="205.5625"/><polygon fill="#181818" points="144.0869,195.5625,148.0869,205.5625,152.0869,195.5625,148.0869,199.5625" style="stroke:#181818;stroke-width:1;"/><line style="stroke:#181818;stroke-width:1;" x1="488.4038" x2="607.6123" y1="183.5625" y2="183.5625"/><line style="stroke:#181818;stroke-width:1;" x1="607.6123" x2="607.6123" y1="183.5625" y2="205.5625"/><polygon fill="#181818" points="603.6123,195.5625,607.6123,205.5625,611.6123,195.5625,607.6123,199.5625" style="stroke:#181818;stroke-width:1;"/><line style="stroke:#181818;stroke-width:1;" x1="148.0869" x2="148.0869" y1="239.5313" y2="321.5313"/><line style="stroke:#181818;stroke-width:1;" x1="148.0869" x2="365.8496" y1="321.5313" y2="321.5313"/><polygon fill="#181818" points="355.8496,317.5313,365.8496,321.5313,355.8496,325.5313,359.8496,321.5313" style="stroke:#181818;stroke-width:1;"/><line style="stroke:#181818;stroke-width:1;" x1="607.6123" x2="607.6123" y1="303.5313" y2="321.5313"/><line style="stroke:#181818;stroke-width:1;" x1="607.6123" x2="389.8496" y1="321.5313" y2="321.5313"/><polygon fill="#181818" points="399.8496,317.5313,389.8496,321.5313,399.8496,325.5313,395.8496,321.5313" style="stroke:#181818;stroke-width:1;"/><line style="stroke:#181818;stroke-width:1;" x1="377.8496" x2="377.8496" y1="151.5625" y2="171.5625"/><polygon fill="#181818" points="373.8496,161.5625,377.8496,171.5625,381.8496,161.5625,377.8496,165.5625" style="stroke:#181818;stroke-width:1;"/><line style="stroke:#181818;stroke-width:1;" x1="377.8496" x2="377.8496" y1="333.5313" y2="353.5313"/><polygon fill="#181818" points="373.8496,343.5313,377.8496,353.5313,381.8496,343.5313,377.8496,347.5313" style="stroke:#181818;stroke-width:1;"/><!--SRC=[VOv1QWCn34NtFeN8ffb5Bj1GIg6RGWA5d43nQ2OYYcnifIKjlNiraoP3QOatml9_xzlOX62Luhx6GgIm8Q5edDINFSSGxc3nS-2rq6BOAinNtE_iUTrS7qF6OZo2itzoC_WC0DKyvFF-HJsAmX_UVKuiVSsT0zDNSg5AQk0Usz61u1r5wcCpt5nzejeuvBODsKK3MupxlgIZjl00SfKDUf9ACDTqfeQo9psDqeoPIWLyGnRS2ltjkDLIKDjqc4JBaVZTTejlgSEZ6DGat49CaYuARRaBqwoMSlZw1W00]--></g></svg>