<?xml version="1.0" encoding="UTF-8"?>
<svg id="_Слой_1" data-name="Слой_1" xmlns="http://www.w3.org/2000/svg" version="1.1" xmlns:xlink="http://www.w3.org/1999/xlink" viewBox="0 0 777 777">
  <!-- Generator: Adobe Illustrator 29.4.0, SVG Export Plug-In . SVG Version: 2.1.0 Build 152)  -->
  <defs>
    <style>
      .st0 {
        fill: #5e6480;
      }

      .st1 {
        fill: #937ab4;
      }

      .st1, .st2 {
        stroke: #c1a7e5;
      }

      .st1, .st2, .st3 {
        stroke-miterlimit: 10.43;
        stroke-width: .09px;
      }

      .st4 {
        fill: none;
      }

      .st2, .st3 {
        fill: #c1a7e5;
      }

      .st5 {
        clip-path: url(#clippath);
      }

      .st3 {
        stroke: #937ab4;
      }
    </style>
    <clipPath id="clippath">
      <rect class="st4" x="85.57" y="10.86" width="605.87" height="755.27"/>
    </clipPath>
  </defs>
  <rect class="st0" width="777" height="777" rx="100" ry="100"/>
  <g class="st5">
    <g>
      <path class="st2" d="M539.61,10.98c2.53-.16,5.09-.09,7.58.42,1.24.47,2.54.78,3.88.93,2.27.7,4.52,1.47,6.86,1.95,9.37,3.53,16.93,10.2,25.23,15.56,3.26,2.28,5.2,5.86,7.95,8.66,1.95,2.6,4.05,5.11,5.83,7.83,1.76,3.16,3.4,6.39,4.79,9.73.56,1.98,1.23,3.94,1.98,5.86.13.56.39,1.69.52,2.26,1.06,2.77,1.41,5.75,2.43,8.53.13,1.96.06,3.99.89,5.83.63,11.1.72,22.24,0,33.33-.44,1.29-.73,2.63-.95,3.96-.78,2.2-1.54,4.42-2.02,6.7-1.2,3.6-2.45,7.18-3.8,10.72-.73,1.59-1.42,3.19-1.98,4.84-2.12,3.99-4.9,7.59-6.92,11.63-.67,1.61-1.33,3.25-1.84,4.92-1.6,5.1-6.07,8.28-8.67,12.79-8.24,10.76-16.99,21.14-26.51,30.8-5.11,5.55-10.06,11.41-16.48,15.52-5.67,5.03-10.77,10.71-15.35,16.76-1.08,1.56-2.27,3.03-3.37,4.58.95-.64,1.92-1.3,2.87-1.97,11.36-7.22,21.68-15.97,31.04-25.62l1.52-.04c.28,1.54,1.12,2.87,1.88,4.22.22.52.67,1.56.89,2.08,1.43,3.63,3.27,7.06,4.89,10.61.22.53.67,1.59.89,2.11.3.95.62,1.92.96,2.88.98,2.57,2,5.14,3.06,7.67.57,1.63,1.22,3.25,1.88,4.85.31.98.63,1.96.97,2.95.59,2.3,1.28,4.57,2.01,6.83.25,1.28.53,2.58.87,3.85.33,1.3.68,2.61,1.1,3.9,1.1,4.78,1.1,9.71,2.04,14.48.24,2.64-.36,5.48.87,7.94.36,12.05.79,24.12-.02,36.16-.96,4.15-1.34,8.45-1.98,12.68-.54,1.84-.69,3.78-1.19,5.64-.49,2.99-1.29,5.91-1.65,8.93-.86,2.86-1.56,5.77-2.03,8.71-.35.98-.68,1.97-.98,2.98-.46,1.23-.86,2.47-1.34,3.7-.6,1.54-1.21,3.09-1.56,4.72-.35-.05-1.05-.16-1.4-.2.31,8.67-2.82,17.04-2.36,25.73.26,5.78-.68,11.72.84,17.37.29.97.57,1.95.85,2.95,1.94,4.87,5.16,9.04,7.95,13.43.3.5.91,1.5,1.22,1.99.37,3.47.59,7.03,0,10.48-1.15,3.86-2.83,7.53-4.12,11.34-1.68,3.83-3.26,7.71-4.89,11.57-.25.48-.76,1.42-1,1.9-.23.5-.71,1.48-.94,1.96l-.97,1.98c-1.3,2.28-2.55,4.59-3.81,6.9-.25.47-.78,1.39-1.03,1.86-5.21,7.89-11.77,14.8-18.88,21-1.77,1.15-3.57,2.24-5.36,3.35-.49.27-1.47.82-1.96,1.09-2.65,1.14-6.34.6-7.95,3.43-2.46.1-4.78-.8-7.05-1.59-2.08-1.12-4.31-1.89-6.66-2.05-3.74-1.08-7.72-.18-11.55-.56-1.72-.33-3.23.53-4.7,1.24.16.48.49,1.44.65,1.92l-1.48-.58.13,1.49c-.41-.1-1.24-.27-1.64-.37l-.59.96c-.35.07-1.05.19-1.4.25-.73.92-1.78,1.24-3.12.97l-.07.86c-1.66-.19-2.66,1.24-3.75,2.17-3.7,4.02-6.37,8.93-8.2,14.05-.8,1.91-1.59,3.83-2.01,5.86-.49,1.46-.91,2.94-1.36,4.41-.47,2.09-1.11,4.15-1.45,6.27,1.1-1.91,1.75-4.03,2.47-6.1.72-1.59,1.42-3.19,2-4.82,2.81-6.99,7.11-13.61,13.56-17.74.48-.14,1.44-.42,1.93-.55-.18,1.62-.32,3.26-.53,4.89-.88,2.22-1.43,4.55-1.99,6.88-.79,2.88-1.31,5.82-1.84,8.76-2.03,1.86-1.51,5.09-1.8,7.6.09,4.82-.52,9.82.76,14.53.17,6.87-.13,13.74.54,20.59.99,4.43.41,9.06.4,13.58-.85,2.19-.8,4.55-.98,6.85-.98,1.76-.63,3.88-.98,5.81-.43.97-.77,1.96-1.04,3-.28.96-.56,1.93-.85,2.9-2.85,7-6.04,13.87-9.7,20.49-.25.5-.77,1.48-1.03,1.96-1.34,1.59-1.79,4.66-4.37,4.45,0-5.89-2.45-11.48-2.42-17.39-1.13-4.51-1.7-9.12-2.65-13.67-.44,8.82.5,17.64-.27,26.46-.93,3.21-.65,6.67-2,9.8-.16.59-.46,1.78-.61,2.37l-.91-.16c-.5,1.82-1.11,3.61-1.79,5.37-.15.52-.44,1.54-.58,2.05-1.13,2.57-1.95,5.25-2.85,7.91-.24.49-.72,1.45-.95,1.94-2.69,3.12-3.38,7.42-6.02,10.57-1.2,1.45-2.44,2.87-3.67,4.3-.4,0-1.2,0-1.6,0,.08-1.81.11-3.61.2-5.4.89-3.84.66-7.83.97-11.74,1.11-3.14.45-6.5,1-9.72.6-3.2.86-6.45.9-9.7.95-3.44.62-7.04.81-10.56.02-2.86.24-5.81-.65-8.57-.53-2.05-1.09-4.1-1.98-6.01-.19-1.03-.4-2.05-.59-3.06-1.87-4.32.18-9.03.24-13.49.02-3.54.74-7.26-.64-10.63-.88-3.27-1.32-6.69-2.91-9.72-.35-.92-.69-1.85-1.04-2.75-.32-1.03-.65-2.04-1.01-3.04-.26-1.75-.53-3.48-1.16-5.13-.19,5.45-.6,11.04.64,16.4.12,4.6.04,9.28.92,13.81.3,2.64.26,5.29.03,7.94-.63,1.53-.82,3.18-1.14,4.8-.71,1.68-.62,3.53-.67,5.33l-.88-.18c-1.32,1.9-1.01,4.32-.37,6.4.27,1.31.61,2.61,1.09,3.88.17,1.99.18,4.01,0,6.02-.85,4.5-.78,9.18-.93,13.77-1.13,6.68-.17,13.54-1.17,20.24-.4,1.95-.63,3.95-.89,5.95-1.04,4.4-1.38,8.95-2.25,13.38-.22,1.63-.45,3.28-.69,4.92-1.02,2.95-2.09,5.88-2.91,8.9-2.22,5.85-4.27,11.76-6.74,17.52-2.31,4.19-4.16,8.64-6.71,12.7-.69.73-1.36,1.47-2.03,2.22-.4.04-1.18.11-1.57.14-.93-6.09-.05-12.21.13-18.3,1.14-8.35,1.67-16.87,1.91-25.32,1.15-3.69.37-7.62.63-11.4.65-12.65.28-25.33.4-38,.07-3.33-.1-6.65-.51-9.95-.45-1.57-.81-3.13-1.28-4.66-.34-1.6-.3-3.3-1.12-4.73-1.21-5.58.23-11.28-.05-16.92,1.08-4.07.33-8.35-1.19-12.19-1.43-3.46-1.46-7.28-2.58-10.83-.21,6.71-1.02,13.71.38,20.29.06,1.67.05,3.36-.05,5.04-1.29,5.06-.42,10.41-.98,15.59-.78,2.16-.84,4.46-.98,6.73-1.06,2.77-.64,5.85-.98,8.76-.18.32-.52.96-.68,1.28-.34,9.95.18,19.92-.27,29.87-.98,7.05-.54,14.28-.97,21.41-1.09,2.82-.64,5.88-.89,8.84-1.28,4.03-.48,8.41-1.32,12.55-.77,3.46-.15,7.09-1.07,10.52-.29,2.67-.47,5.37-.61,8.06-1.03,2.8-.51,5.85-1.04,8.74-.53,2.55-.83,5.14-.89,7.75-.59,3.11-.99,6.27-2.88,8.95-1.39.74-2.88,1.19-4.44,1.35-.22-.62-.68-1.88-.91-2.5-.26-2.62-.04-5.31-.85-7.84-.11-2.3-.26-4.6-.95-6.8-.24-1.65-.33-3.33-.96-4.87-.23-1.96-.5-3.94-1.05-5.83-.67-4.22-1.02-8.52-2-12.66-.16-2.28-.02-4.62-.89-6.77-.27-4.24-.25-8.52-1.06-12.71-.05-9.12-1.45-18.18-1.34-27.31-.97-5.26-.5-10.6-.69-15.9l.78-.21c-.17-2.38.07-4.82-.62-7.13-.14-2.91-.13-5.86-.98-8.68-.29-2.3,0-4.72-.92-6.89-.13-2.3-.22-4.62-1-6.81-.69-14.31.03-28.65-.38-42.97-1.33,1.68-.85,4.02-1.28,6.01-.44,1.27-.7,2.62-.9,3.96-.43,1.28-.75,2.62-1.05,3.95-1.38,4.78-.43,9.85-.58,14.76l.78.22c.06,3.41.15,6.83-.1,10.24-1.33,3.69-2.43,7.46-3.29,11.29-1.31,14.96-.09,30-.06,44.98,1.57,7.34-.34,14.99,1.38,22.27.18,4.87,0,9.83.95,14.63.29,2.89-.03,5.88,1.02,8.68.03,3.42.11,6.85.12,10.27-.35,1.03-1.48.89-2.31,1.01-.86-1.77-1.94-3.41-3.08-4.99-2.73-5.18-5.46-10.38-7.67-15.81-.62-1.62-1.26-3.23-1.89-4.83-.37-.98-.75-1.95-1.12-2.93-.18-1.02-.48-1.99-.89-2.93-.22-1.67-.44-3.34-.73-4.99-1.05-3.77-1.37-7.7-2.24-11.51-.67-3.59-1.04-7.25-1.88-10.8-.28-1.93-.54-3.83-1.11-5.69-1.95-7.72-1.18-15.68-1.58-23.54-1.05-4.79,0-9.78-1.3-14.49-.03-1.37-.03-2.73,0-4.08,1.58-4.09.24-8.44-.91-12.45-2.26-6.93-1.63-14.33-.91-21.47,1.03-2.83.5-5.9.82-8.83,1.16-4.67.39-9.72.14-14.49-.03.63-.11,1.9-.15,2.53l-1.17-.1c-.09,1.17-.18,2.34-.28,3.53-.74,1.52-.7,3.26-.93,4.91-.4.95-.78,1.92-1.13,2.89-1.21,3.16-3.28,6.13-3.2,9.64-.05,1.52,1.17,3.47-.23,4.7,1.36,3.7.62,7.82.89,11.7.45,3.85-1.56,7.27-2.33,10.92-.38,1.24-.69,2.52-1.02,3.8-.88,2.5-.4,5.19-.33,7.79,1.14,3.06.08,6.5,1.39,9.54.03,6.59,1.29,13.06,1.65,19.64.94,2.47.21,5.25,1.24,7.71.35,3.54.33,7.09.29,10.65l-2.33-.86c-2.78-3.46-5.62-6.92-8.05-10.64.16-2.18-.7-4.12-1.79-5.92-.56-1.63-1.28-3.2-2.04-4.73-.24-.53-.73-1.56-.97-2.08-.25-.47-.74-1.41-.99-1.89-2.03-5.72-3.25-11.7-4.6-17.6-.99-3.81-.04-7.86-1.27-11.6-.06-1.71-.05-3.41.04-5.12,1.17-3.68.99-7.64.57-11.43-1.15,2.78-.76,5.86-1.15,8.79-.45,1.27-.79,2.59-1.09,3.92-.4,1.51-.71,3.04-1.08,4.57-.66,4.85-1.91,9.65-1.72,14.6-.58-.12-1.74-.36-2.32-.49-.14-1.11-.43-2.17-.87-3.18-1-1.61-1.98-3.24-3.04-4.8-.98-1.6-1.95-3.2-2.9-4.8-.62-1.35-1.27-2.67-1.94-4-.92-2.63-1.79-5.27-2.96-7.8-.6-1.94-1.29-3.83-2.01-5.72-.68-2.9-1.45-5.79-1.94-8.72-.44-3.94.34-8-.89-11.84-.04-4.6-.18-9.21,0-13.8.42-1,.74-2.01.97-3.05.22-.77.69-2.29.91-3.05l-1.21-.21c.17-6.64.02-13.28.11-19.9.06-1.6-.16-3.19-.73-4.68-.16-2.29-.27-4.59-.91-6.79-.59-2-1.31-3.95-2.14-5.86-1.95-4.7-1.81-10.12-4.44-14.51,1.87.28,3.38,1.45,4.93,2.47.45.25,1.33.77,1.77,1.03,3.06,2.91,5.69,6.2,8,9.72,2.95,3.79,3.08,8.79,5.36,12.84-.64-3.91-1.56-7.79-2.79-11.56-.68-1.61-1.35-3.24-1.97-4.87-3.82-4.12-7.21-8.64-11.42-12.39-.39.05-1.17.14-1.56.18l.11-1.24-1.19.38.14-1.24-1.69.34c2.52-3.11-2.93-2.66-4.64-3.88-5.9-1.17-12.11-.47-17.49,2.3-2.55,1.08-5.23,1.81-7.97,2.18-2.79-.96-5.18-2.89-7.92-4.05-6.43-2.46-11.61-7.04-16.26-12-4.07-3.42-7.03-7.84-10.02-12.19-1.29-1.97-2.56-3.96-3.85-5.92-2.13-3.8-4.09-7.68-5.77-11.7-.86-2.65-1.85-5.24-2.91-7.81-.6-1.64-1.24-3.26-1.91-4.86-.23-.53-.68-1.59-.91-2.11-.95-2.93-1.96-5.84-3.04-8.7-.27-1.77-.44-3.54-.49-5.31l1.16.06c-.1-1.97.44-3.83,1.24-5.61.68-.95,1.34-1.93,1.97-2.91,3.53-6.19,8.56-12,8.77-19.49.95-5.64,1.08-11.62,0-17.23-.37-3.26-.22-6.58-.95-9.79-.24-2.25-.14-4.57-.91-6.72-.35-.96-.7-1.93-1.05-2.88-.21-.52-.63-1.56-.85-2.07-.38-.94-.75-1.88-1.13-2.81-1.56-4.8-2.73-9.71-3.81-14.63-.58-2.94-1.18-5.88-1.99-8.76-.18-1.37-.39-2.74-.62-4.1-.9-4.14-1.57-8.35-1.96-12.58-1.44-8.01-1.58-16.22-1.97-24.36-.52-2.45-.93-5.29.2-7.62-.03-1.6-1.02-3.37-.16-4.88.23-3.33.08-6.68.45-10,.85-3.76.54-7.69,1.13-11.51.74-1.89.71-3.95,1.01-5.92.76-2.59,1.29-5.23,1.91-7.86.75-2.2,1.38-4.44,2.05-6.66.46-1.24.89-2.48,1.36-3.71.8-2.37,1.64-4.74,2.44-7.11.7-1.58,1.4-3.15,2-4.77.22-.49.66-1.47.89-1.96.23-.53.71-1.58.95-2.1.47-.88.94-1.76,1.41-2.64.59-1.25,1.28-2.47,2.04-3.64,1.3-2.51,2.66-5.02,4.54-7.15.54-1.26,2.17-.49,2.68.37,3.44,2.68,5.9,6.39,9.39,9.02,5.25,3.79,9.63,8.75,15.39,11.85,1.63.79,3.18,1.74,4.71,2.73-1.82-2.65-4.65-4.55-5.76-7.65-1.84-2.65-3.38-5.51-5.66-7.81-4.17-4.93-10.27-7.87-14.13-13.1-5.37-6.89-11.75-12.93-17.3-19.66-7.72-8.54-13.43-18.89-22.59-26.09-.98-1.6-1.97-3.21-2.96-4.81-.89-1.66-1.83-3.31-2.79-4.93-.28-.48-.85-1.42-1.13-1.89-1.73-4.21-4.42-7.88-6.79-11.72-1.23-1.95-2.55-3.85-3.81-5.79-.6-1.05-1.23-2.09-1.88-3.11-1.25-4.42-1.59-9.11-.74-13.63-.91-10.7-.79-21.5-.3-32.22.95-3.51,1.41-7.12,2.01-10.7.32-1.01.61-2.03.88-3.05.64-1.91,1.32-3.79,2.05-5.67.67-1.28,1.31-2.59,1.83-3.94.91-1.97,1.84-3.99,3.23-5.68,4.94-5.78,8.42-12.71,13.97-17.99,3.63-3.88,7.81-7.16,11.95-10.48,3.42-2.53,7.14-4.61,10.84-6.71,1.63-.61,3.24-1.31,4.82-2.03,5.37-1.59,10.97-1.5,16.52-1.43-.12.46-.34,1.37-.45,1.82-6.54,4.09-11.75,9.95-15.67,16.53-.27.5-.83,1.47-1.11,1.95-2.79,4.73-5.38,9.58-7.78,14.52-.76,1.58-1.47,3.18-1.94,4.87-.94,2.52-1.71,5.11-1.96,7.79-1.09,3.41-.77,7.03-.81,10.56.04,3.87-.24,7.83.78,11.61.43,2,1.18,3.91,2.06,5.76,3.8,7.12,8.42,14.24,15.49,18.49,3.76,5.93,10.49,9,15.65,13.57,3.49,2.32,7.02,4.62,10.65,6.74.83.52,1.65,1.03,2.48,1.56,3.09,1.76,6.17,3.59,9.29,5.31,1.23.69,2.45,1.36,3.69,2.02,4.04,2.32,8.2,4.51,12.69,5.82.94.37,1.9.73,2.85,1.09.51.2,1.51.61,2.01.82,14.05,6.55,28.69,13.35,39.01,25.34,5.51,6.35,9.62,14.13,10.9,22.48.04-2.63.27-5.24.38-7.87,1.11-3.07,1.09-6.44-.02-9.5-.18-1.78-.92-3.38-1.89-4.85-.26-.46-.79-1.36-1.05-1.81-2.16-2.72-3.92-5.76-6.2-8.37-3.37-2.82-6.34-6.15-10.29-8.18-1.01-.66-2.01-1.32-3.02-1.97-4.08-2.54-7.9-5.63-12.12-7.79l-.16-.62c1.58.34,2.81-.4,3.87-1.49,1.88-1.02,3.76-2.01,5.64-3.04l1.98-.97c1.64-.56,3.22-1.3,4.8-2.01,1.67-.55,3.33-1.19,4.96-1.85,3.23-.98,6.51-1.86,9.65-3.13.64-.07,1.94-.18,2.58-.25l.09-.69c3.36-.21,6.61-1.13,9.89-1.83,1.38-.21,2.77-.43,4.16-.68,2.15-.65,4.46-.51,6.58-1.27,2.62-.33,5.32-.2,7.85-1.05,6.03.06,11.94-1.17,17.96-1.06,10.59-.5,21.18-.06,31.78.15,5.1.92,10.35,1.24,15.5,2.02,6.3,1.21,12.49,2.91,18.62,4.8.94.37,1.9.72,2.86,1.07,1,.29,2,.57,3.02.86,1.15.49,2.31.94,3.46,1.41,2.8.94,5.42,2.32,8.11,3.5,1.67.95,3.37,1.88,5.09,2.76.77.52,1.55,1.03,2.33,1.55,1.51.9,3.02,1.8,4.58,2.64-5.21,2.4-9.96,5.79-14.69,9.02-4.64,4.78-10.66,8.04-14.7,13.41-.69.99-1.37,1.98-2.05,2.97-2.23,3.44-3.51,7.46-3.66,11.55-.29,4.33,1.35,8.46,1.35,12.78.62-1.65.81-3.42.99-5.16,4.79-10.92,11.24-21.7,21.48-28.3,2.58-1.62,5.2-3.17,7.77-4.83,2.31-1.22,4.61-2.48,6.91-3.74,1.31-.62,2.61-1.28,3.88-1.98,2.96-1.23,5.81-2.66,8.72-3.96.5-.22,1.48-.66,1.97-.89.5-.23,1.5-.7,2-.93,1.6-.66,3.2-1.36,4.78-2.09,6.4-2.72,12.58-5.94,18.76-9.12,4.39-2.46,8.62-5.2,12.88-7.89,8.7-5.65,16.8-12.23,24.1-19.59,2.91-3.34,4.98-7.3,7.36-11.02l1.05-1.95c.65-1.28,1.31-2.57,1.99-3.85.67-1.27,1.33-2.56,1.94-3.87.61-1.35,1.26-2.69,1.92-4.03,2.9-4.44,1.92-10.29,1.04-15.21-.22-1.64-.5-3.29-1.01-4.86-.31-.97-.62-1.95-.92-2.92-.34-.97-.68-1.95-1.01-2.93-.33-.98-.67-1.95-1.01-2.93-.59-1.63-1.25-3.25-1.92-4.85-5.23-12.06-12.3-23.99-23.65-31.21-.06-.63-.18-1.88-.23-2.51h-.02ZM580.81,51.34c-.4,3.59-.5,7.22-.31,10.82-.05.93.36,1.6,1.22,2.02-.33-4.2,1.15-9.01-.9-12.84ZM579.68,68.3c-.09,1.43-.18,2.87-.27,4.3.88-.79,1.77-1.57,2.66-2.35.51.34,1.53,1.02,2.04,1.36-.68-1.15-1.43-2.25-2.22-3.31h-2.21ZM583.92,80.19c-.55,1.04-1.15,2.06-1.53,3.18.78.65,1.42,2.06,2.65,1.6.22-1.1.36-2.22.42-3.35-.45-.32-1.13-2.19-1.54-1.44ZM571.34,100.97c-.89.85-2.11,2.1-1.54,3.43.89,1.14,1.9,2.18,2.87,3.26.1.74.28,2.23.38,2.98.78-1.6,1.5-3.23,2.09-4.91,1.24-2.87,2.27-5.83,3.07-8.85-2.24,1.47-4.7,2.56-6.88,4.09ZM200.39,102.8c-.07.54-.18,1.65-.24,2.21,1.41,1.06,1.85,2.8,2.52,4.34,2.08-.33,3.73-1.92,5.65-2.75-1.13-.25-2.13.17-3.06.74-.76-.92-1.49-1.86-2.2-2.81-.4-1.13-1.21-3.33-2.66-1.72ZM204.95,111.87c1.9.91,3.43,3.27,1.06,4.73,2.6,2.58,4.9,5.43,7.28,8.22.55,0,1.67.03,2.23.04,2.29,2.44,4.76,4.69,7.43,6.68,2.61,1.97,3.6,5.32,6.13,7.38-1.93-3.44-4.94-6.1-7.24-9.28-2.79-4.03-5.58-8.19-9.4-11.32-.17.7-.51,2.11-.68,2.81-.64-.46-1.94-1.36-2.58-1.82.09-1.32-.26-2.87.85-3.86-.23-.3-.7-.91-.94-1.22-1.41-.72-2.77-1.56-4.13-2.36ZM565.45,112.83c-4.1,6.09-9.52,11.14-14.08,16.86-5.08,6.21-14.33,7.27-18.77,14.1.22,2.16,2.17,3.42,3.62,4.79-.11.72-.31,2.17-.42,2.89,2.12-2.92,5.54-4.47,7.76-7.29,1.73-2.18,3.75-4.13,5.29-6.47,1.6-2.23,2.81-4.71,3.79-7.27.25,0,.77,0,1.03,0-.46,3.23-1.48,6.38-1.48,9.66-.94,1.45-1.91,2.89-2.83,4.35,1.93-1.73,3.71-3.63,5.35-5.63,1.88-2.67,3.07-5.7,2.71-9.03h.81c.42-.91.85-1.82,1.27-2.72,2.46-3.55,6.33-6.01,8.62-9.6-.76-1.55-.53-4.47-2.67-4.64ZM237.11,145.4c.77.53,1.54,1.05,2.31,1.6,2.3,1.93,4.34,4.12,6.19,6.49,4.85,5.52,10.43,10.35,15.93,15.19,10.04,10.15,18.35,21.82,27.16,33,1.12.28,2.28.08,3.41.05-.13.4-.37,1.19-.49,1.59-1.96,1.27-4.2,2.57-4.96,4.93-.5.37-1.5,1.11-1.99,1.48,3.73.37,7.36-.79,10.42-2.88,1.55-.21,3.1-.38,4.67-.51-.84,2.38-2.13,4.56-3.37,6.74-.68.95-1.34,1.92-1.95,2.92-3.2,4.51-8.22,7.31-12.92,10.05,4.99.53,10.01-.43,14.54-2.53.49-.26,1.46-.78,1.95-1.03,1.18-.5,2.34-1.01,3.5-1.55-.02.44-.06,1.32-.08,1.77-2.28,1.25-3.82,3.39-5.8,5.02-1.67,1.03-3.47,1.84-5.2,2.78-4.48,1.91-9.2,3.14-13.9,4.4,3.89-.3,7.93.08,11.74-.82,2.41-.08,4.71-.72,6.85-1.83,2.03-.78,3.99-1.77,5.79-3,4.15-3.07,7.87-6.79,10.13-11.49.49-1.38,1.04-2.74,1.58-4.1.38-1.25.69-2.53,1.05-3.78,1.38-4.54.4-9.41.59-14.06-.72,1.44-1.1,2.98-1.16,4.6-.52-2.35-.75-4.75-.95-7.14-.55,2.73-.97,5.51-2.07,8.09-1.21,1.73-1.94,4.34-4.35,4.68-.56-5.14.42-10.4-.81-15.47-.39-.63-.77-1.25-1.14-1.88-.96,4.14-3.57,7.69-6.25,10.9-.84,1.34-2.35,1.25-3.75,1.08,1.48-.83,2.16-2.11,2.03-3.84h.99c0-.39-.04-1.16-.05-1.55,1.31-1.32,1.74-3.17,2.27-4.89,1.1-3.38,2.14-6.94,1.47-10.52-2.09-2.67-5.26-4.16-7.83-6.3-2.97-2.15-4.7-5.47-7.21-8.06-2.24,2.24-3.74,5.05-5.81,7.43-.77-1.18-1.55-2.34-2.31-3.51.1-2.48-.18-4.93-.51-7.38-2.21-2.74-5.5-3.52-8.84-3.68-6.06-.69-10.6-5.17-15.65-8.15-2.3,1.06-4.8,1.02-7.27.93.06-1.7.14-3.39.22-5.09-3.44-3.02-7.37-5.61-9.8-9.61.16,2.98,4.74,6.2,1.63,8.94ZM520.45,151.35c-1.42.82-2.85,1.6-4.3,2.34-3.02,1.02-5.8,2.81-9,3.25-2.39.44-4.8,1.11-6.85,2.43-.49,1.29-.53,2.69-.77,4.05-.34.97-.66,1.95-.95,2.94-.51,1.52-1.13,3-1.84,4.44-.57-.38-1.71-1.14-2.29-1.53-.22-.52-.68-1.56-.9-2.08-.43-1.47-1.87-1.6-3.14-1.8-.38.49-1.13,1.45-1.51,1.94-1.14.8-2.11,1.78-3,2.84-.85.73-1.7,1.44-2.57,2.14-2.5,1.25-5.18,2.53-6.97,4.75-.16,2.51-.24,5.14.77,7.5.34.94.68,1.9,1.04,2.84,2.07,4.27,5.13,7.93,7.97,11.69,4.49-6.9,11.09-11.97,16.14-18.4,4.61-3.73,8.78-8.07,13.46-11.79,4.32-3.42,8.24-7.34,12.76-10.52,1.89-1.51,3.99-2.81,5.62-4.6-1.52.84-2.9,2.02-4.64,2.39-.42-.69-1.24-2.06-1.66-2.74,1.2-2.46,3.61-4.35,3.52-7.32-4.67-1.26-7.16,3.53-10.89,5.26ZM470.46,183.79c-.63,1.33-1.22,2.68-1.93,3.98-1.78,2.74-.96,6.48,0,9.41.04,1.07.13,3.21.18,4.28-2.31-2.13-4.64-4.28-6.41-6.89-.25-.5-.74-1.5-.98-1.99-1.06-2.33-1.32-4.92-2.35-7.25-.35,4.94-.75,10.05.6,14.87.3.99.61,1.97.91,2.98,3.16,8.8,9.01,17.18,17.73,21.17,3.8,1.99,8.13,2.42,12.26,3.36-5.52-2.1-11.36-4.47-15.03-9.37-.34-.29-1.03-.88-1.37-1.17.53.07,1.6.19,2.13.25,2.56.95,5.24,1.52,7.68,2.76-1.69-1.74-3.67-3.21-5.2-5.1-1.28-2.62-2.75-5.14-3.73-7.89-.43-.65-1.28-1.96-1.71-2.63,1.98.26,3.93.81,5.86,1.35,1.54.85,3.18,1.48,4.88,1.95,1.94,1.03,3.91,1.99,5.94,2.85.4.24,1.19.75,1.59.99-1.74-3.16-5.48-4.71-7.5-7.74-4.21-3.67-8.2-7.88-10.1-13.25-.19-.53-.59-1.61-.79-2.16-.35-.95-.7-1.91-1.02-2.85-.21-.97-.77-1.61-1.64-1.94ZM436.29,218.62c.5,2.03,1.12,4.04,1.6,6.09.41,1.22.81,2.46,1.25,3.68.34.93.68,1.88,1.03,2.82.91,2.31,1.95,4.56,3.1,6.76.88,1.67,1.82,3.32,2.82,4.91,3.74,5.6,8.89,10.14,14.64,13.61,1.93.77,4.34,3.56,6.23,2.38-3.23-1.5-7.43-2.96-7.64-7.23,6.23,2.49,12.79,6.19,19.72,4.96,1.57.22,3.18.75,4.64-.17,1.67-.17,3.34-.4,4.96-.87,1.62-.15,3.27-.3,4.81-.88,4.12-1.58,7.86-4.14,10.88-7.34-3.33,1.95-6.9,3.49-10.58,4.62-1.39.15-2.76.32-4.12.54-6.66,1.48-13.79.05-20.24-1.94-1.4-.51-2.77-1.06-4.15-1.56-11.51-5.82-20.54-15.86-26.4-27.23-.45-1.41-.97-2.8-1.47-4.19-1.86-5.26-2.68-10.84-3.18-16.38-.51,5.85.6,11.75,2.09,17.4ZM337.88,206.61c-.82,3.43-1.72,6.84-2.77,10.2-.23.52-.7,1.54-.92,2.04-2.23,4.71-4.78,9.28-7.67,13.61-3.55,5.7-8.52,10.38-13.64,14.66-3.62,1.55-7.4,2.73-11.29,3.38l-.21.58c-1.73,0-3.47.18-5.08.88-3.97.3-7.96.28-11.91-.04-1.62-.72-3.39-.79-5.15-.81l-.18-.59c-1.53-.41-3-.93-4.49-1.4-2.31-1.19-4.38-2.77-6.55-4.19,4.4,5.61,10.46,10.02,17.46,11.67,6.49,1.94,13.58,2.38,20.17.76,1.04-.18,2.07-.42,3.09-.69.96-.36,1.94-.7,2.91-1.04,9.85-4.84,16.37-14.41,20.36-24.36.34-.96.68-1.93,1.01-2.89.36-.96.72-1.93,1.07-2.89,1.92-6.15,2.71-12.55,4.21-18.78-.11-.03-.31-.07-.42-.1ZM558.19,266.39c0,1.63.07,3.3.52,4.89,1.31,5.74,2.48,11.58,2.31,17.5.2,8.63,1.69,17.68-1.42,25.97-.42,0-1.24-.04-1.64-.06.45-7.05-.84-14.11-2.24-21.01-.3-1.28-.58-2.56-.92-3.82-.34-1.3-.64-2.6-.96-3.89-.45-1.93-1.03-3.81-1.65-5.68-.14.04-.43.12-.56.15,1.17,4.28,1.33,8.75,2.38,13.05.3,3.3.78,6.59,1.92,9.72.77,4.83,1.89,9.68,1.46,14.61.19-.5.57-1.48.77-1.97.51-.1,1.54-.3,2.04-.4.73-2.82,1.87-5.51,2.4-8.38,1.09-2.76.2-5.91,1.35-8.6-1.46-4.87.25-10.37-1.42-15.33-.61-2.63-1.21-5.26-1.88-7.87-.52-3.03-1.33-6.01-2.45-8.87ZM216.4,270.24c-1.37,3.81-2.53,7.69-2.78,11.76-1.52,7.99-2.08,16.27-1.7,24.44,1.37-2.1,1.05-4.73,1.45-7.09.96-3.14.6-6.47.93-9.69.99-4.48.65-9.22.76-13.8-.36-2.03,2.07-3.63,1.34-5.62ZM235.97,293.66c-.67,1.87-.53,3.9.07,5.77-.38,1.28-.54,2.61-.5,3.95.79,5.33-.04,11.29,2.48,16.38.33,1.98.89,4.13,0,6.08-2.14,4.91-4.19,9.87-6.91,14.51l-.82,2.1c-2.14,3.08-2.37,6.92-3.49,10.39-.19,1.03-.38,2.07-.55,3.12-.77,1.98-1.34,4.05-1.81,6.14l-.71.08c-.63,5.36.16,10.69,1.55,15.87.92,2.8.2,6.57,2.26,8.79.18,4.21-.74,8.62.71,12.67.22,9.12-.62,18.83,3.9,27.15,1.06,1.89,2.14,3.73,3.3,5.57-.26-4.03.46-8.2-.71-12.11-.19-2.29-.41-4.58-1.03-6.79-.11-.93-.22-1.85-.33-2.76.2-.02.6-.04.81-.05.34,1.3,1.01,2.47,1.79,3.57,1.49,4.71,3.37,9.32,5.93,13.55,2.24,4.33,5.7,7.82,9.63,10.65,4.11,2.92,7.89,6.34,12.26,8.9-4.05-3.31-7.19-7.52-10.39-11.59-2.78-3.73-5.87-7.27-8.06-11.4-.61-1.35-1.21-2.7-1.84-4.03-.22-.51-.67-1.53-.89-2.03-.31-.98-.63-1.95-.97-2.91-.33-1.3-.54-2.62-1.09-3.84-.28-1.29-.58-2.59-.98-3.83-.29-1.98-.31-4.03-1-5.92-.32-6.12-1.06-12.27-.39-18.39.86-5.11,2.63-10.01,4.33-14.88,3.9-9.02,9.71-17.43,17.79-23.16-1.41.49-2.78,1.07-4.15,1.65-1.89,1.05-3.76,2.1-5.58,3.27-6.47,4.14-11.98,9.69-16.53,15.83-.4.09-1.21.26-1.6.35.19-1.92.26-3.84.33-5.76.79-3.22,1.11-6.55,2.01-9.75.92-3.68,2.33-7.19,3.8-10.67,1.48-4.28,5.21-7.86,4.85-12.61,1.76-2.18,3.36-4.49,4.83-6.88,3.44-4.6,7.25-8.91,11-13.23-4.05,3.06-8.21,5.98-12.13,9.22-1.43,1.32-3.49,2.66-3.06,4.91-.18-.03-.53-.09-.72-.12-.67-5.06-1.4-10.13-2.85-15.03-.15-1.35-.4-2.69-.85-3.98-.33-3.61-.93-7.19-1.94-10.67-.37-2.27-.74-4.52-1.33-6.73-.19,2.86-.06,5.77-.4,8.64ZM535.57,291.76c-1.01,3.77-1.4,7.68-2.29,11.49-.27,1.67-.48,3.35-.7,5.04-1.04,4.44-2.26,9.02-1.52,13.62-6.37-7.1-14.35-12.41-21.65-18.45,3.25,3.43,6.87,6.55,9.57,10.47,5.9,6.58,10.3,14.32,15.91,21.14,1.18,1.5,1.82,3.33,2.59,5.06,2.08,6.16,4.61,12.21,5.73,18.65,1.35,4.62,1.69,9.4,1.37,14.18-.41,0-1.24-.03-1.64-.04-3.17-11.52-12.42-21.45-24.01-24.77,3.81,3.66,7.59,7.4,10.41,11.91,1.14,1.79,2.25,3.6,3.33,5.44.59,1.3,1.23,2.6,1.88,3.88.65,1.59,1.31,3.18,1.99,4.77.56,1.71,1.18,3.4,1.77,5.12,3.34,8.1,1.13,16.96.1,25.3-.42,1.29-.69,2.64-.88,3.99-.73,2.56-1.38,5.14-1.98,7.72-1.65,3.76-3.19,7.64-5.62,10.99-3.57,4.79-6.86,9.97-11.83,13.45-.52.19-1.54.58-2.05.78-1.18.56-2.34,1.17-3.49,1.79v-1.87c-1.83.32-3.57.92-5.26,1.66-1.27.51-2.57.95-3.85,1.41-.98.3-1.96.63-2.92.99-2.31.33-4.61.81-6.93,1.11-5.27.36-10.43-1.07-15.7-1.05-4.86-1.61-9.79-3.02-14.57-4.86-.49-.25-1.45-.77-1.94-1.02-1.79-1.02-3.64-1.95-5.49-2.84,2.76,2.25,5.67,4.31,8.62,6.32,2.32,1.46,5.08,2.87,5.68,5.83-1.01-.16-2.01-.32-3.01-.49-1.23-.5-2.53-.8-3.79-1.11-1.62-.7-3.25-1.36-4.91-1.91-.5-.24-1.5-.74-1.99-.98-13.01-5.53-22.62-16.5-30.26-28.04-.59-1.33-1.24-2.65-1.93-3.92-.95-2.43-1.3-5.02-1.37-7.62-.18,0-.53.03-.71.04.02,4.7-.96,9.71,1.38,14.04.66,1.32,1.32,2.65,2.01,3.98,2.39,4.01,4.48,8.25,7.44,11.9,4.6,4.84,9.81,9.26,15.82,12.27.53.23,1.6.7,2.13.93,3.01,1.59,6.01,3.4,9.56,2.94,1.16.76,2.57.78,3.89,1,7.52,2.65,15.56,1.39,23.35,1.71,2.56,1.71,5.66,1.87,8.57,2.54,3.27.24,6.57.33,9.84-.04,3.91-.89,7.92-1.53,11.6-3.21,5.31-2.69,10.38-6.57,13.48-11.72-3.47,3.16-6.78,6.66-11.34,8.24-3.25.23-6.5.39-9.74.5-.75.64-1.5,1-2.1.07,1.31-.14,2.27-.78,2.86-1.94.5-.25,1.48-.75,1.96-1,.49-.23,1.47-.69,1.96-.91.47-.25,1.41-.75,1.89-1,8.96-3.84,17.5-10.25,21.43-19.42.53-1.04,1.09-2.07,1.69-3.06,1.12-1.17.69-2.93.93-4.37.24,0,.71-.04.95-.05-.2,3.72-.33,7.44-.03,11.16,1.7-2.93,3.45-5.86,4.57-9.07,2.28-5.14,1.28-10.87,1.33-16.3-1.42,1.54-.47,4.17-2.25,5.44.03-2.68.22-5.37.49-8.04,1.4-4.17-.03-8.7.53-13.01.45,1.49.81,3.02,1.27,4.53.14-4.35-1.33-9.02.97-13.02,1.13-2.05.92-4.45,1.14-6.71,1.24-5.28,1.3-11.29-.99-16.35-.19-1.63-.44-3.26-.92-4.82-.37-4.03-1.59-7.88-2.84-11.7-.87-2.01-1.8-4-3.02-5.81-.86-1.42-1.67-2.86-2.54-4.27-2.41-3.79.85-8.53-1.39-12.25-.29-1.32-.57-2.64-.91-3.93-.78-8.06-.51-16.17-.57-24.26-.2-1.05-.44-2.09-.7-3.11-.09,1.66-.23,3.33-.38,4.99ZM323.62,317.24c7.23,7.5,14.07,15.39,21.8,22.39,4.17,4.17,9.01,7.98,11.89,13.23-6.99-3.56-12.36-9.56-19.13-13.45,3.29,2.03,5.88,4.9,8.67,7.53,4.77,6.1,11.3,10.48,16.22,16.42-.46-1.89-1.13-3.71-1.81-5.51-.92-3.05-2.39-5.88-4.01-8.62-1.23-2.01-2.54-3.97-3.92-5.87-7.79-10.8-18-19.76-29.7-26.11ZM281.91,327.05c5.52.89,10.8,2.96,16.21,4.37,1.99.79,4.25,1.26,5.67,3.02-.4.36-1.2,1.08-1.6,1.45-6.8-.68-13.84-3.08-20.59-1.28-2.39.14-4.8.32-7.13.89-2.55.62-5.37-.09-7.71,1.31,4.36.11,8.71-.33,13.06.24,8.7,1.5,17.38,3.26,26.18,4.03,1.24.4,2.52.73,3.8,1.03,2.27,1.13,4.43,2.47,6.77,3.42,3.05.09,6.15.09,9.03,1.29.78.53,1.57,1.05,2.35,1.59,1.38.84,2.78,1.67,4.21,2.44.48.24,1.45.72,1.93.96,2.6,1.68,5.2,3.38,7.99,4.76.79.48,1.59.95,2.38,1.44,2.26,1.23,3.66,4.57,6.49,4.26,2.39,2.17,4.72,4.44,7.38,6.3-.6-1.63-1.36-3.2-2.12-4.77-3.25-6.19-8.62-10.86-13.8-15.41-6.77-6.62-14.99-11.8-23.98-14.8-.99-.35-1.97-.68-2.97-1.01-2.8-.86-5.68-1.43-8.5-2.21-3.31-.64-6.58-1.41-9.96-1.57-4.68-.92-9.66-.55-14.1-2.66-.24.22-.74.67-.99.89ZM471.39,328.8c-3.49,1.55-7.36.54-10.82,1.8-4.23,1.96-8.66,3.5-12.61,5.99-4.64,2.27-8.44,5.79-12.44,8.97-.58.11-1.74.31-2.31.41.36-.39,1.09-1.18,1.45-1.58l.06-.73.78-.12c2.96-6.22,8.81-10.58,13.1-15.9-5.57,4.32-10.29,9.6-15.47,14.37-6.1,5.35-11.29,11.76-15.18,18.88-.25.52-.74,1.55-.98,2.05-.67,1.26-1.33,2.53-1.99,3.79-1.08,2.09-1.95,4.28-2.8,6.48,2.3-5.05,6.22-9.03,10.36-12.6,1.3-.39,2.57-.9,2.8-2.43.27,0,.82-.03,1.1-.04-1.6,2.17-3.06,4.45-4.58,6.69-1.65,2.12-3.45,4.13-5.01,6.33,2.13-2.31,4.42-4.46,6.67-6.65,4.03-3.17,8-6.46,12.51-8.95,4.84-2.73,10.11-4.79,15.64-5.55,1.43-1.16,2.66-2.56,4.24-3.53,2.35-2.7,6.3-2.72,9.29-4.47,5.43-1.64,11.36-.45,16.64-2.79,5.02-.19,9.67-2.65,14.74-2.37,4.85-.24,9.75.25,14.35,1.88-2.75-2.16-6.35-2.63-9.68-3.24-3.4-1.29-7.13-.26-10.6-1.24-5.06.89-10.29.17-15.3,1.44-2.2.18-4.34.67-6.4,1.43-.05-.38-.15-1.14-.19-1.51-2,.1-3.99.28-5.99.38,0-.28.02-.84.02-1.12l.82.06c.88-.57,1.75-1.14,2.63-1.69,1.64-.54,3.26-1.19,4.85-1.87.98-.27,1.97-.55,2.97-.85,1.68-.5,3.37-1.05,5.01-1.69,2.19-.87,4.58-.87,6.82-1.57-4.83.12-9.73.49-14.45,1.54ZM393.61,405.56c-.36.98-.7,1.98-1.03,2.99-.34.94-.65,1.9-.95,2.86-.99,2.4-1.95,4.82-2.84,7.28-.6-.02-1.8-.05-2.4-.06-.62-1.11-1.24-2.22-1.87-3.32-.22-.5-.68-1.5-.91-2-.26-.48-.78-1.44-1.04-1.92-.29-.97-.59-1.95-.91-2.89-.32-1.31-.66-2.62-1.01-3.91-.23-1.35-.47-2.69-.98-3.96-.33,2.6-.36,5.23-.68,7.84-.44,1.27-.72,2.61-.94,3.95-.8,2.2-1.54,4.43-2.05,6.71-1.66,3.47-3,7.11-5.2,10.3-2.86,5.79-5.44,11.77-7.49,17.89-1.79,3.82-3.42,7.71-4.76,11.72-.25.48-.74,1.43-.99,1.91-.24.5-.74,1.48-.99,1.97-1.7,2.87-3.26,5.82-4.89,8.72-2.1,3.17-2.26,7.11-2.92,10.75-.43,1.26-.67,2.59-.89,3.91-.66,2.21-.83,4.52-.99,6.82-1.64,4.09-.14,8.4.86,12.44.83,2.01,1.86,3.94,3.02,5.79,3.35,4.79,8.3,8.36,13.54,10.83,1.95,1.28,3.86-.37,5.69-1.07,1.99-.89,3.97-1.84,5.86-2.93.49-.23,1.44-.72,1.92-.96,3.05-1.46,5.89-3.31,8.81-5.02,2.66.23,4.61,2.77,7.01,3.93,5.24,3.47,11.84,9.59,18.23,4.92.47-.26,1.38-.77,1.84-1.03,4.25-2.64,9.1-5.21,11.15-10.07,2.13-4.91,4.19-10.54,2.51-15.87-.2-2.93.12-5.98-.89-8.79-.92-3.24-1.57-6.58-2.97-9.68-.38-2.03-1.16-3.96-2-5.84-1.2-3.98-2.85-7.79-4.29-11.68-1.03-3.07-3.68-5.15-5.45-7.78-1.69-3.17-3.33-6.37-4.85-9.62-.24-.53-.73-1.57-.97-2.08-.2-.49-.63-1.46-.85-1.95-.25-.49-.77-1.45-1.02-1.93-2.67-5.56-4.44-11.46-5.9-17.43-.19-1.04-.49-2.05-.87-3.02-.91-5.21-2.09-10.39-1.76-15.71-1.04,2.19-1.41,4.63-1.86,6.99ZM355.1,406.43c-.76,3.06-1.85,6.03-3.27,8.85-4.99,9.21-11.73,17.59-20.51,23.43-6.49,4.18-13.46,7.98-21.17,9.2l-.18-1.79c4.17-1.52,7.9-3.95,11.26-6.81,1.82-1.29,3.44-2.83,4.86-4.56-3.61,2.53-7.13,5.25-11.29,6.81-1.32.27-2.64.59-3.91,1.01-4.76,1.57-9.91,1.11-14.59,2.97-4.62.6-9.29.3-13.91-.06-1.56-.55-3.18-.8-4.81-.98-3.55-1.19-7.25-2.01-10.49-3.95,4.04,4.94,9.57,8.36,15.53,10.48.48.25,1.41.75,1.89,1,.56.23,1.7.7,2.28.93.13.43.39,1.28.52,1.71-1.87.31-4.47-.82-5.74.98l-.85-.75c-6.11-.78-12.1-2.35-17.85-4.57-2.88-1.22-5.59-2.77-8.46-3.99,5.57,4.61,10.84,10.84,18.55,11.53,3.75.75,7.64,1.5,11.47.89,2.28-.29,4.78.33,6.82-1.01,4.14.51,8.86-1.01,12.63.7,3.84-1.58,7.84-2.77,11.63-4.51,1.27-.7,2.57-1.37,3.87-2,1.3-.61,2.59-1.25,3.88-1.89,3.69-1.76,7.29-3.69,10.71-5.92,5.58-4.27,10.88-9.06,14.71-15.02-.63.4-1.91,1.19-2.54,1.58.09-.72.26-2.16.36-2.88l.73-.69c1.65-2.58,3.07-5.31,4.19-8.16,1.67-4.03,4.03-8.02,3.69-12.54ZM472.32,490.26c-4.01,2.74-7.14,6.56-9.7,10.65-1,1.61-1.96,3.25-2.91,4.9-1.42,3.4-2.94,6.79-3.85,10.39,2.66-6.78,6.52-13,11.19-18.57,4.67-5.96,10.84-10.43,16.63-15.2-4.14,2.05-7.53,5.28-11.36,7.83ZM327.78,545.41c.02,4.2-.79,8.33-1.09,12.5,2.26-6.01,2.27-12.61,2.33-18.96-.14-1.7-.25-3.38-.41-5.06-1.3,3.69-.45,7.69-.84,11.52ZM364.79,563.94c2-5.44,2.79-11.61,1.67-17.33-1.65,5.68-.09,11.66-1.67,17.33ZM406.38,553.33c-.12,3.98.93,7.84,1.51,11.74.48-5.56-.66-11.19-.57-16.81-1.37,1.32-.8,3.37-.93,5.07ZM461.22,581.97c.13,0,.38,0,.51-.02,1.76-6.88,1.56-13.99,1.24-21.02-2.14,6.78-.32,14.09-1.75,21.04ZM311.99,571.69c-.17,3.97-.13,8.15,1.87,11.72-1.21-6.65-.26-13.45-.66-20.17-1.29,2.63-1.03,5.61-1.21,8.45Z"/>
      <path class="st1" d="M655.9,319.53c1.29-.15,2.59-.25,3.89-.35-.3,1.77-.8,3.5-1.45,5.17l-.72-.13c-.4,1.22-1,2.35-1.59,3.49-1.96,6.01-2.42,12.28-2.78,18.55-1.11,5.07-1.69,10.43-4.53,14.9,1.69-.79,3.56-1.68,5.48-1.07,1.37,1.14,1.18,2.93,1.22,4.54-1.24,1.54-2.2,3.28-3.14,5.02-1.62,3.06-2.76,6.41-4.99,9.12,1.94.23,3.85.65,5.79.96-.79,2.24-2.08,4.28-2.68,6.58-.3.22-.89.69-1.2.91h1.98c-1.95,4.8-6.44,7.64-9.93,11.21-.8.74-1.75,1.27-2.72,1.74,1.58-.86,2.98.09,4.19,1.11.32.27.95.81,1.27,1.08-3.46,8.21-10.43,14.34-17.96,18.78-2.94,1.49-5.46,4.53-8.98,4.2,1.84-.13,2.64.99,2.81,2.8-5.32.55-10.34,2.74-15.3,4.63-1.34.57-2.64,1.24-3.9,1.95-2.74.99-5.26,2.48-7.79,3.92-1.64.53-3.24,1.19-4.84,1.82-2.17.78-4.29,1.66-6.39,2.59-.09-4.07.26-8.21-.71-12.19-.76-4.2-2.42-8.27-4.88-11.76-1.43-3.75-2.1-7.7-2.84-11.62-.53-3.69-1.58-7.31-3.09-10.71-.3-2.98-.2-5.97.13-8.94.63-1.91.85-3.9,1.01-5.88.27-1.04.52-2.09.72-3.14,1.41.27,2.67-.29,3.37-1.56,1.66-2.77,2.53-5.91,3.73-8.88,1-2.26,1.94-4.52,2.79-6.83,1.49-4.06,3.58-7.89,7.02-10.61.61-.72,1.24-1.43,1.88-2.13.48-.26,1.42-.79,1.9-1.05.75.05,2.26.16,3.01.21.88,1.38.23,3.19.46,4.77,2.31-5.79,6.57-10.47,11.12-14.59,1.89-1.91,4.71-1.51,7.14-1.33.19,1.2.46,2.43.76,3.63,2.88-4.52,6.71-8.64,11.52-11.12,4.2-.87,8.5-.93,12.71-1.7.98-.37,1.98-.7,3-1.01,4.66-2.07,9.01-4.81,13.55-7.11ZM621.05,337.91c-.59,1.81-2.69,2.87-2.46,4.99l-.91-.05c-.06.59-.18,1.78-.25,2.37-2.14,3.93-3.04,8.38-4.12,12.69-1.32,5.44-1.69,11.07-1.6,16.65-4.03,5.03-7.55,10.42-11.58,15.43.25-7.53-.7-15.02-.46-22.55.05-1.3-.13-2.59-.47-3.83-1.35,8.68-1.55,17.5-.81,26.27.5,4.45-2.56,8.01-4.48,11.72-.74,1.28-1.41,2.6-1.99,3.96-1.05,1.67-2.06,3.38-2.75,5.25l-.55.06c-1.08,2.75-2.81,5.26-3.34,8.21,1.65-3.13,3.69-6.04,5.23-9.23l.71.04c.85-1.5,1.68-3.01,2.43-4.55,1.09-2.54,2.94-4.54,5.82-4.89.97-.3,1.95-.62,2.92-.95,4.25-1.2,8.59-2.19,12.68-3.89,1.64-.58,3.28-1.24,4.88-1.94.49-.24,1.45-.73,1.94-.97,1.96-.89,3.86-1.91,5.76-2.94,2.14-1.28,4.06-2.89,5.83-4.65-2.83,2.15-6.11,3.55-9.36,4.89-2.97.89-5.86,1.97-8.76,3-1.97.56-3.93,1.21-5.86,1.88-1,.29-1.98.6-2.96.93-.98.3-1.95.61-2.92.92-1.97,1.14-3.93,2.37-6.16,2.91,3.37-4.51,6.02-9.63,10.21-13.47.3-1.42,1.42-2.37,2.36-3.38,2.31-1.23,4.54-2.58,6.84-3.83,9.91-4.83,21.1-8.01,29.14-15.92-2.39,1.66-4.82,3.27-7.29,4.81-2.66,1.13-5.41,2.11-7.85,3.69-4.05,2.7-8.93,3.43-13.33,5.31l.04.95c-1.26-.05-2.53-.07-3.78-.06l-.2-.92c.59.05,1.78.16,2.38.2-.07-.44-.21-1.33-.28-1.77,6.21-6.19,11.4-13.42,14.98-21.43.58-1.31,1.19-2.61,1.81-3.89,1.15-1.44,2.15-3.05,1.62-4.97.68-.8,1.36-1.6,2.01-2.43-2.77,1.18-3.69,4.28-5.3,6.57-.86.8-1.62,1.67-2.21,2.68-3.55,5.96-8.6,10.84-12.51,16.53-.91,1.23-1.6,2.86-3.32,3.02.08-.98.23-2.95.3-3.94.86-2.5.68-5.17.89-7.77.86-2.55,1.5-5.16,2.04-7.78.93-2.72,2.16-5.41,2.46-8.29l.78-.07c.02-.61.07-1.85.1-2.47,1-1.27,1.95-2.61,2.58-4.11.82-.2,1.64-.41,2.47-.6-2.22-1.7-2.78.27-3.35,1.61Z"/>
      <path class="st1" d="M103.11,343.65c3.94-.15,6.98,2.63,10.36,4.19,3.51,1.7,7.05,3.33,10.63,4.87,1.59.7,3.16,1.42,4.77,2.09.51.22,1.53.68,2.03.9,3.52,1.43,6.95,3.29,10.77,3.85.53.16,1.6.45,2.12.6.06.37.16,1.11.2,1.48-.05-.82-.16-2.45-.21-3.27,1.1-.41,2.2-.79,3.31-1.15l-.57-1.28c.95.23,1.91.46,2.86.69,5.19,3.16,9.78,7.56,12.96,12.76,0-.84.02-2.51.02-3.35,2.63,1.35,6.22-.13,8.24,2.39,3.61,3.03,4.89,7.65,7.27,11.54-.31-1.36-.64-2.72-.92-4.07,1.88-.16,3.77-.18,5.65-.09,2.68,2.67,4.87,5.79,6.73,9.08,2.54,5.84,4.72,11.84,7.84,17.4.45,2.06,1.18,4.07,1.99,6.02.02.76.07,2.29.1,3.04-1.41,4.11-2.26,8.4-3.21,12.64-1.15,2.71-.68,5.78-.81,8.66.14,2.91-.2,5.97.82,8.76.3,2.27.69,4.53,1.08,6.8.08,1.68-1.34,3.87.49,5.11l-1.4.52c1.81,2.52,1.02,6.08,2.46,8.88-3.27-.08-6.57-.36-9.66-1.55l-2.74-1.49c-1.59-.79-3.26-1.37-4.98-1.74-1.89-.6-3.85-.72-5.8-.82-4.34-1.34-9.11-.5-13.63-.96-1.57-.71-3.27-.78-4.94-.92-1.5-.79-3.24-.74-4.85-1.05-1.23-.57-2.56-.78-3.88-.89-3.1-1.69-5.82-4.07-7.98-6.85-1.41-2.79,2.77-1.5,4.16-1.67-1.34-.41-2.67-.85-4.01-1.24-.47-.26-1.4-.79-1.86-1.06-3.76-3.59-7.48-7.24-11.34-10.73.06-1,.17-3.01.22-4.01,1.41-.11,3.16,1.02,4.41.06-1.12-.94-2.76-.12-4.08-.23-.51-.38-1.52-1.13-2.02-1.51-.23-.48-.72-1.41-.96-1.89-1.75-2.75-4.14-5.02-6.75-6.94-1.75-2.01-2.82-4.45-3.34-7.05.57-.3,1.73-.9,2.31-1.21,1.4,0,2.8.04,4.2.08-2.89-2.67-5.05-6.01-7.16-9.31-1.12-3.21-1.95-6.51-2.91-9.76-.04-.83-.14-2.48-.18-3.31,1.25-.65,2.55-1.24,3.99-1.31-.24-.75-.48-1.48-.72-2.21-.35-.97-.71-1.94-1.09-2.89-.29-.98-.59-1.95-.89-2.92-.28-1.31-.61-2.63-1.03-3.9-.22-1.34-.4-2.7-.93-3.96-.18-1.49-.33-2.98-.44-4.46l-.67-.11c-.04-1.42-.22-2.82-.78-4.13-.33-1.28-.64-2.57-1.01-3.83-1.07-3.45-2.54-6.76-4.28-9.92,0-.86.04-2.56.05-3.41ZM131.83,375.26c2.01,1.97,3.93,4.09,5.05,6.72,5.56,7.53,11.81,14.52,18.3,21.24-3.79-.13-7.35-1.56-11.04-2.31-5.55-1.42-11.38-2.05-16.53-4.73,2.91,2.34,6.57,3.39,10.13,4.34,1.27.35,2.56.67,3.84,1,1.23.45,2.48.78,3.69,1.27,1.04.18,2.09.39,3.13.61,3.04.89,6.16,1.52,9.16,2.57,4.49,5.26,8.64,10.87,12.23,16.8.62.78,1.88,2.33,2.5,3.11-7.74-.53-15.46-1.34-23.09-2.84-2.88-.88-5.75-1.78-8.6-2.76,3.48,2.39,7.59,3.72,11.68,4.6,1.88.42,3.77.68,5.65,1.12,4.9.58,9.84.79,14.74.13,2.85,5.01,6.59,9.45,9.59,14.39-1.13-3.76-3.22-7.14-5.08-10.57-1.07-1.84-2.2-3.65-3.33-5.46-2.55-3.97-5.17-7.91-7.4-12.06-1.02-3.21-1.32-6.54-1.8-9.83-.31-4.49.48-9.13-.89-13.51-.18-2.79-.89-5.53-2.21-8,1.73,8.73,2.38,17.62,1.99,26.53-1.06-.88-2.01-1.84-2.86-2.91-1.56-3.14-4.42-5.3-6.62-7.96-4.15-4.86-9.06-9.02-13.01-14.07-4.78-5.75-11.2-9.86-15.71-15.83,1.51,3.14,3.88,6.03,6.49,8.4ZM177.35,395.73c-.16,1.24-.17,2.49-.02,3.74,1.3,6.81-.04,13.8.92,20.65.47,1.21.8,2.45.98,3.73.41-7.43,1.01-15.1-.98-22.37-.39-1.92-.24-3.92-.9-5.76Z"/>
      <path class="st3" d="M380.6,425.34c.76-.02,1.52-.03,2.28-.04.07,1.18.33,2.31.82,3.39.24.5.74,1.49.98,1.98.9,1.66,1.81,3.34,2.81,4.95,2.53-2.63,4.11-5.98,5.74-9.2.39-.04,1.15-.12,1.54-.16.17.6.51,1.79.67,2.38,2.33,6.15,6.16,11.55,8.9,17.49.47,1.36,1.12,2.66,1.79,3.94,1.28,2.89,2.67,5.74,4,8.61.24.53.72,1.59.95,2.11,1.13,2.66,2.32,5.28,3.87,7.72.66,1.26,1.32,2.53,2,3.78,2.58,5.38,4.55,11.01,5.74,16.86.4,2.59.47,5.21,1.13,7.76-1.05,2.2-1.27,4.68-1.95,7.01-1.59,4.89-5.88,7.77-8.94,11.63-2.51,1.2-5.28,1.4-8,1.06-7.47-2.49-12.88-9.13-14.55-16.74-.26-1.61-.58-3.22-1.06-4.79-.21-1.34-.48-2.68-.87-3.97-.26-1.96-.51-3.92-.98-5.84-1.21,4.5.63,9.47-1.64,13.7-1.18,2.46-2.34,4.92-3.31,7.48-1.38,5.11-5.36,8.83-9.8,11.38-3.27,2.16-5.53-2.13-8.8-2.27-4.84-3.18-9.61-7.17-11.63-12.78-2.46-5.63-1.37-11.98.09-17.72.36-1,.69-2,1.02-3.01.31-.95.6-1.91.88-2.86.98-2.31,1.95-4.61,2.92-6.92.64-1.28,1.27-2.56,1.9-3.84.65-1.31,1.32-2.62,1.99-3.91,1.36-2.56,2.6-5.18,3.93-7.76.24-.5.73-1.5.96-2,1.66-3.19,3.37-6.36,4.97-9.58.24-.49.74-1.46.98-1.95.66-1.28,1.29-2.58,1.82-3.92,1.66-4.97,6.02-8.76,6.87-14.02Z"/>
      <path class="st1" d="M615.08,437.45c1.63-.26,3.27-.53,4.85-1.08,2.65-.37,5.34-.53,8.01-.26,1.56.73,3.07,1.72,2.56,3.74,3.02,2.5,6.91,2.96,10.6,3.73,2.38.27,4.79.44,7.2.65,1.85.73,3.86.7,5.82.89,1.9.65,3.91.8,5.9.96,2.05.88,4.12,1.85,6.42,1.94-.16,1.42-.28,2.85-.39,4.29-3.66.53-6.79,2.85-8.97,5.74-2.77,3.68-5.81,7.15-8.68,10.75-1.41,2.02-2.92,4.01-4.84,5.56,1.03-.59,2.08-1.17,3.14-1.7.24,1.61.22,3.24-.07,4.85-6.78,4.88-10.6,13.51-18.66,16.64-4.66.93-9.22,2.32-13.72,3.82-2.06.35-4.12.7-6.16,1.14.9,1.06,1.84,2.1,2.76,3.16,4.53,1.56,9.47,1.32,14.17,2.25,5.38,1.47,11.04.28,16.52.84,3.2,2.33,7.31,4.45,7.85,8.8.29,3.31.98,6.57,1.78,9.79.3.99.6,1.99.89,3.01,4.9,9.61,13.32,16.97,22.47,22.44,3.13,2.04,6.47,4.07,8.14,7.58-.07.8-.21,2.4-.28,3.2-.99,5.94-1.07,12.21.04,18.14.14,1.07.45,2.09.93,3.05.25.49.77,1.46,1.02,1.95.53,1.63,1.22,3.23,1.87,4.83.75,2.37,1.86,4.62,3.08,6.8.81,2.62,2.24,5.21,2.01,8.02-1.39,3.67-5.38,5.32-7.44,8.5-1.41,2.9-2.4,5.98-3.41,9.04-1.18,2.08-2.48,4.08-3.87,6.02-2.7,4.78-7.17,7.96-11.46,11.18-.79,2.19.48,4.12,1.71,5.81.89,3.56,3.11,6.53,4.89,9.68.23.53.7,1.57.93,2.09.27,1.01.63,2.01,1.05,3,.15,2.01.16,4.05.18,6.08-1.46,1.96-3.46,3.32-5.61,4.41-4.13,2.91-7.54,6.81-10.18,11.1-.62,1.31-1.25,2.63-1.91,3.93-2.07,3.91-3.08,8.29-2.92,12.72-.64.99-1.27,2-1.88,3.03-3.1,1.86-6.8,1.37-10.19.81-.99-.36-1.97-.7-2.97-1.02-2.74-.97-5.7-.82-8.55-.86-3.86.05-7.8-.35-11.54.8-5.97.71-11.49,3.82-17.59,3.49-1.69,0-3.38-.1-5.07-.22-4.43-3.03-8.41-6.66-11.93-10.7-1.38-.9-2.63.61-3.29,1.67-3.64,4.76-8.14,9.01-13.55,11.69-.5.25-1.49.76-1.99,1.02-1.29.68-2.61,1.35-3.91,2.02-.84,0-2.52.02-3.36.02-2.27-.85-4.15-2.35-5.85-4.03-2.07-2.02-5-2.64-7.62-3.59-.51.27-1.51.84-2,1.12-.72,2.81-1.68,5.55-2.6,8.32-.35.93-.67,1.89-.98,2.85-.71,1.58-1.38,3.18-1.97,4.81-1.12,2.37-2.38,4.68-3.8,6.89-3.73,4.97-6.53,12.67-13.67,13.11.02-.67.06-1.99.09-2.66-.7.68-1.38,1.37-2.08,2.06-3.86,4.09-7.28,8.8-12.62,11.14-1.5-.05-3-.06-4.48-.03.1-.79.3-2.35.4-3.14-.88.65-1.75,1.31-2.63,1.97-.85.44-1.69.89-2.52,1.34-3.76,2.39-7.37,5-11.08,7.46-2.37,1.15-4.8,2.19-7.05,3.56-3.26,2.1-4.99,6.8-9.45,6.62.17-.95.35-1.91.53-2.84,1.49-4.34-.05-9.06,1.33-13.4.74-8.72.36-17.48.62-26.22-1.34.18-2.69.33-4.04.48-1.55-4.81-.14-9.65,1.08-14.38.81-2.19,1.53-4.43,2.02-6.71.36-.8.71-1.59,1.07-2.37-1.54-.15-3.32.26-4.44-1.08-.51-1.17.04-2.36.29-3.49.42-.93.81-1.86,1.18-2.79.56-1.99,1.26-3.94,1.72-5.95,1.64-3.68,4.87-6.22,7.57-9.09,3.59-3.88,8.43-6.38,11.67-10.61.86-1.82-1.27-2.8-2.48-3.61-2.79-1.52-5.78-2.64-8.76-3.7-.51-.19-1.52-.59-2.02-.79-.59-2.23-2.29-3.89-3.2-5.95-.27-5.39.82-10.68.65-16.03.45-.17,1.33-.49,1.78-.64.62-4.85,3.72-8.79,5.55-13.21.36.05,1.09.15,1.45.2,0,1.75-.02,3.58.71,5.24,2.31,3.17,1.24,7.12,2.12,10.66.12,3.04.07,6.11.2,9.16-1.07,1.01-1.24,2.32-.89,3.72,1.91.64,3.81,1.38,5.86,1.39l.04.81c1.34.15,2.63.62,3.91,1.06l-.09,1.04c.48-.06,1.43-.18,1.91-.24l.12,1.04c.96.38,1.94.76,2.91,1.15l-.19.94,1.35-.26-.48,1.34.95-.13c.56,2.09,3.01,2.44,4.44,3.81l.77-.14.02.87c.52.24,1.56.73,2.08.97,4.13,2.31,6.43,6.57,9.63,9.9,2.2,2.2,2.67,5.34,3.86,8.1,2.33,2.46,6.05,1.57,9.04,2.39,7.43.11,15.22.65,21.85,4.38,1.91,1.27,3.81,2.56,5.6,4.02,2.17,1.49,4.93.91,6.93-.58,2.78-3.55,7.23-6.02,8.52-10.57l-1.35.24c-.67-1.66-1.33-3.33-2.18-4.89.03,1.95.15,3.89.22,5.86l-1.8-.18c.15-2.99-1.06-6.12-3.41-7.99l-1.17.46c2.15,1.53.87,4.53,1.38,6.75-.41-.03-1.24-.1-1.64-.13-.45-5.62-2.94-10.89-6.93-14.86.98,2.48,2,5,1.66,7.74-.25.65-.75,1.95-1,2.6-.4-.06-1.19-.18-1.59-.23.41-3.39-.89-6.57-2.39-9.51-1.33,1.92-.63,4.43-.91,6.61-.85,0-1.69.02-2.54.04.17-3.61-.18-7.28-1.89-10.51-.18,1.7-.31,3.42-.41,5.15-.27.36-.81,1.09-1.08,1.45-.38-.02-1.13-.07-1.51-.09.47-4.42-.59-8.71-1.6-12.97-.52.19-1.54.59-2.05.8-.77-1.33-1.54-2.66-2.44-3.88.75,4.23,1.68,8.55.94,12.87-1.19-6.35-5.26-11.56-6.78-17.8.27,6.97,2.99,14.63-1.1,21.03-.24.06-.72.17-.96.21.55-3.18.51-6.43-.09-9.59-.48-1.87-.8-3.75-1.34-5.58-.21-1.73-.4-3.46-.62-5.17-.81-1.42-.87-3.06-1.19-4.61-.06,1.31-.1,2.63-.13,3.96-1.43.89-2.83,1.81-4.24,2.72.09-.52.25-1.54.34-2.05.89-2.11.86-4.38.33-6.57-1.33.17-2.67.34-3.89.91-1.67.92-3.36,1.84-5.03,2.76.18-2.42,2.79-3.79,2.6-6.27l.76-.08c-.07-.49-.21-1.47-.29-1.96,1.59.03,3.17.03,4.77,0-.37-.22-1.12-.67-1.5-.9l.02-.87c-6.21-1.71-12.67-1.23-19.02-1.2-1.98.41-3.82,1.49-5.91,1.11.64-.49,1.37-.85,2.16-1.06,2-1.7,3.97-3.52,6.48-4.45,1.61-.28,3.15-.85,4.44-1.92-4.27-.2-8.65.37-12.78,1.26l-1.91.7c.09-.56.27-1.69.37-2.26l.68-.04c.66-2,2.74-2.69,4.42-3.61,1.05-.25,2.05-.63,3.02-1.14,2.32-.05,4.57.61,6.85,1.02-4.28-1.55-8.94-2.57-13.44-1.38-1.19.12-2.38.23-3.57.34l-.12.65c-1.32.11-2.62.28-3.92.44.02-.23.05-.69.07-.92,3.38-2.38,7.11-4.19,11.21-4.83.85-.03,2.52-.11,3.37-.14-3.32-2-7.48-2.33-10.93-4.22.52-1.17,1.38-2,2.59-2.51,1.99,0,3.77-.87,5.51-1.76-1.96-.3-2.54-1.49-1.75-3.57-1.76.13-3.51.26-5.27.4.08-.46.23-1.38.3-1.84,2.36-.67,4.72-1.39,7.16-1.72-2.92-1.65-6.07-1.23-9.15-.37l-.1.76c-.52.06-1.55.17-2.06.22.1-.45.3-1.34.4-1.79,1.33-2,1.8-4.36,2.12-6.69.55-1.24.7-2.62,1-3.92.9-1.87.76-3.96.83-5.97.84-2.37.44-4.86.02-7.27-.32-4.57.33-9.28-1.06-13.72-.24-2.31-.13-4.67-.9-6.87-.04-1.4-.05-2.79-.03-4.17.37-.96.7-1.94.98-2.92.6-1.34,1.26-2.64,1.96-3.92.26-.47.8-1.4,1.07-1.87,3.33-4.27,6.26-8.83,8.78-13.63.64-1.31,1.27-2.64,1.88-3.96,1.03-2.09,1.75-4.3,2.31-6.55.16-3.48.02-7.37,2.34-10.22,2.04-1.97,4.64-3.22,6.96-4.81,4.25-.04,8.65.58,12.79-.67,4.45-.81,9.26-1.59,12.69-4.81,3.04-2.87,5.25-6.49,7.59-9.93,2.01-2.87,3.19-6.95,6.93-8.01,2.83-1.17,6.25-3.01,6.59-6.41.98-4.34,1.7-8.84,3.92-12.76,5.28-5.84,11-11.4,14.61-18.51,1.72-1.89,3.69-3.53,5.82-4.94,2.64-1.26,5.22-2.65,7.97-3.68.98-.32,1.95-.69,2.9-1.11,1.13-.1,2.25-.15,3.38-.2.38,1.08.77,2.16,1.17,3.25l1.01-1.32c3.23-1.27,6.71-1.62,10.03-2.57ZM625.99,463.9c-.97.3-1.94.62-2.9.94-5.62,1.27-11.11,3.31-15.95,6.47-3.03,2.07-6.57,3.17-9.74,5.01-4.41,2.66-9.13,4.7-13.5,7.4,8.21-3.53,15.73-8.61,24.29-11.31,2.31-.49,4.59-1.16,6.86-1.83,3.02-.65,5.86-1.84,8.71-2.99,1.64-.67,3.28-1.35,4.93-2.02,1.32-.59,2.62-1.24,3.91-1.91,1.27-.66,2.57-1.3,3.87-1.92,2.3-1.16,4.45-2.57,6.82-3.62-5.75,2.01-11.48,4.03-17.3,5.77ZM599.54,484.06c-1.47-.23-2.74.41-3.9,1.22,3.61-.39,7.26-.24,10.87-.59,7.01-.55,13.81-2.57,20.35-5.09-8.94,2.28-18.01,4.65-27.32,4.46ZM551.85,507.54c-4.32,5.16-9.95,8.93-15.29,12.94-3.16,2.43-7.35,3.61-9.81,6.83-.56.12-1.67.37-2.23.49-.19,1.08-.38,2.17-.56,3.26-1.34,2.78-2.31,5.73-2.99,8.74-.79,2.2-1.42,4.45-2.08,6.71-.33.99-.63,2-.91,3.02-.33,1.28-.62,2.59-.94,3.88-.47,1.33-.71,2.73-.83,4.15l-.65.18-.35,2.49c-1.15,2.53-2.12,5.14-2.96,7.78-.61,1.31-1.24,2.64-1.92,3.92-1.83,2.05-.26,4.57.87,6.51-.05,1.6.87,2.82,1.96,3.88.95,2.27,1.95,4.53,2.98,6.79.54,3.03,1.6,5.96,2.93,8.76.83,3.89,1.98,7.73,2.38,11.71,1.43,7.53,5.4,14.17,8.56,21.06.77.05,2.31.16,3.06.21-.64-1.5-1.17-2.99-1.73-4.49-.26-3.65-.97-7.27-1.96-10.78-.3-3.93-.61-7.92-2.02-11.63-.27-2.94.24-5.99-.86-8.79-.23-2.31-.34-4.64-.56-6.95-.49-1.5-.75-3.03-.8-4.6.53.11,1.58.33,2.1.44.05-3.45.16-6.92-.4-10.33.44.3,1.3.89,1.73,1.2-.31-1.69-.41-3.45-1.18-5.01-.64-2.8-.24-5.68-.43-8.51,2.88,1.3.71-2.94,1.15-4.36,1.59.7.55,3.48,2.97,2.78-.08-1.94-.18-3.85-.24-5.77.9.77,1.71,1.64,2.34,2.68l.63.04c.24.77.49,1.55.75,2.33,0-1.4.02-2.78.05-4.16l-.62-.11c.03-.91.11-2.74.14-3.65.53.39,1.57,1.19,2.09,1.58.14,0,.42.02.55.02-.81-1.57-.76-3.34-.96-5.03l1.1.51c.24-1.84.52-3.65.84-5.46.4.14,1.21.42,1.6.56-.71-3.02-.81-6.28.65-9.09.46.08,1.39.21,1.86.28.02-.48.08-1.43.1-1.92.43,1.03.89,2.06,1.36,3.08,3.45-2.06,3.27-6.78,4.3-10.21.57.06,1.72.18,2.3.24.61-.95,1.24-1.9,1.9-2.82.81-1.48,1.59-2.98,2.03-4.61.52.14,1.54.42,2.04.55-.48-.55-1.45-1.65-1.94-2.21,3.38,1.93,3.36-1.02,3.5-3.01.2-.04.63-.12.84-.15.08,1.25.18,2.52.29,3.78.15.99.43,2.98.57,3.97.95-2.1,2.01-4.15,3.31-6.07,1.04-.51,1.67-1.34,1.9-2.49.25,0,.77.03,1.03.04-1.68,2.93-3.09,6.09-3.41,9.48,1.74-3.1,4.78-5.67,5.37-9.28l2.03-.18c-.66,2.79-1.6,5.5-2.38,8.26,1.55-1.63,2.64-3.64,3.18-5.83.76-1.72,1.73-3.38,1.97-5.29l1.63.16c-.06-1.08.31-1.95,1.09-2.61-.5,3.38-1.56,6.65-2.36,9.97-.46,1.24-.6,2.54-.59,3.87.45-.72.89-1.44,1.34-2.15,1.32-4.63,4.46-8.48,5.74-13.1l1.75-.04c-.19,1.08-.59,3.23-.79,4.31l1.95-.66c-.18.95-.37,1.92-.54,2.88-.85,1.14-1.59,2.35-2.14,3.66,2.85-2.66,5.97-5.01,9.24-7.14.04-.49.12-1.48.17-1.97.19-.09.59-.26.79-.35-.04,1.07-.06,2.13-.07,3.21l-.71.04c-.83,1.26-1.83,2.39-3,3.38,2.93-.26,5.4-1.85,7.7-3.52v-.74c.63-.03,1.88-.08,2.5-.11,1.85-1.86,5.3-2.57,5.68-5.49-1.72-.76-3.37-1.65-4.98-2.59-.47-.25-1.42-.76-1.9-1.01-.48-.23-1.44-.7-1.93-.93-1.6-.73-3.22-1.4-4.87-1.97-.96-.37-1.93-.74-2.88-1.1-1.01-.26-2.02-.51-3.03-.74-2.82-.84-5.76-.91-8.66-1.06-3.12-.88-6.45-.61-9.63-.22-4.41,4.11-8.01,8.99-11.79,13.67ZM603.48,513.48c-3.37,1.15-5.73,3.97-8.52,6.04-1.45.72-2.81,1.63-3.87,2.86-4.56,4.46-8.57,9.45-11.56,15.1,2.61-3.08,6.18-5.08,9.34-7.52,2.17-1.81,4.29-3.7,6.76-5.09,2.22-1.5,5.05-1.07,7.39-2.27l.07-.82c.51-.05,1.51-.14,2.01-.18l-.19,1.18c2.58.39,4.92-.75,7.32-1.49-.7.9-2.09,2.72-2.79,3.63,1.12-.43,3.36-1.28,4.46-1.71-.06.45-.18,1.35-.24,1.8,1.09-.18,2.18-.34,3.28-.51-.03.26-.09.77-.12,1.02l-.86-.02c-1.22,1.82-2.81,3.38-3.72,5.4.45-.25,1.35-.78,1.8-1.03,1.61-1.32,3.21-2.67,4.84-3.98.52-.22,1.54-.68,2.05-.91,1.66-.55,3.36-1.12,4.8-2.15,1.03-.06,2.06-.12,3.11-.16-2,.74-3.21,2.49-4.69,3.91-3,2.12-6.64,3.38-9.13,6.17,5.6-1.58,8.85-7.26,14.65-8.43-.15.46-.42,1.37-.56,1.83-2.35,1.61-3.8,4.16-5.4,6.47.98-.62,1.97-1.24,2.97-1.86,1.61-.66,3.26-1.28,5-1.58-1.68,1.47-2.86,3.41-4.58,4.83l-.03.31c1.47-.23,3.53.81,4.53-.79.5-.08,1.49-.22,1.97-.29-.34,1.14-.94,2.11-1.82,2.92,1.22.68,2.46-.06,3.6-.51.48-.29,1.44-.87,1.93-1.15.95-.06,1.92-.11,2.89-.16,0,.15-.04.45-.06.6-2.17.9-4.09,2.33-5.56,4.17.65-.27,1.94-.83,2.58-1.1l-1.21,3.03c1.4.08,3.64-1.73,5.55-1.06.07,1.78-1.59,2.14-2.69,2.9,2.45.41,4.74,1.45,7.04,2.35.37-3.22-.2-6.43-1.64-9.33-.68-1.93-1.3-3.86-1.97-5.78-.68-2.64-1.11-5.32-1.86-7.93-.34-2.21-.87-4.39-1.46-6.53-.6-.04-1.8-.12-2.4-.15-4.33-1.38-9.12-.2-13.61-1.05-1.59-.66-3.27-.76-4.93-.9-2.15-.91-4.57-.68-6.83-1.01-2.57-1.01-5.51-1.04-7.64.89ZM565.24,537.48c-2.19,2.87-.64,6.7-1.85,9.88,0,3.23-.45,6.55.43,9.71.04,4.01.92,7.92,1.54,11.86,1.24,5.15,2.56,10.26,4.21,15.3.3.99.62,1.99.94,3.01.24,1.03.52,2.07.83,3.1.33.92.68,1.85,1.05,2.78.33.96.65,1.93.99,2.91.27.46.81,1.38,1.08,1.84,3.34,4.96,7.01,9.77,11.21,14.03,4.67,3.06,8.26,7.49,13.09,10.3,2.46,1.62,4.63,3.65,6.64,5.81-2.31-3.7-5.32-6.89-7.96-10.34-.63-1.01-1.25-2.03-1.84-3.05-.26-.47-.8-1.4-1.06-1.86-.16-.99-.53-1.89-1.11-2.66-3.99-5.29-7.55-10.91-10.64-16.78-1.34-3.53-2.23-7.23-3.79-10.66-.44-1.73-1.03-3.41-1.8-5.01-1.08-3.86-3-7.61-2.38-11.73.43-2.58-1.23-4.74-2.66-6.66-.33-.97-.67-1.93-1-2.88-.37-5.23-.33-10.48-.51-15.71-.18-2.12.6-4.09,1.42-5.99.49-.89.96-1.76,1.45-2.64.07-1.27.2-2.55.44-3.78-2.6,3.37-6.23,5.79-8.72,9.24ZM591.87,536.79c-1.37.49-2.8.89-4.05,1.65-3.73,3.69-6.88,8.03-8.53,13.05-2.03,3.87-1.86,8.35-2.62,12.57,1.17-4.76,3.82-9.32,7.87-12.19,4.82-3.73,9.12-8.45,14.99-10.58,3.91.11,7.5-1.42,10.78-3.42-1.29-.45-2.62-.85-3.89-1.3-1.88-.87-3.74-1.95-5.83-2.22-2.98.52-5.79,1.74-8.72,2.44ZM650.79,542.73c-.1,1.13-.28,3.39-.38,4.52l1.34-.47c-.12,1.75,0,3.53-.51,5.24.6-.12,1.8-.34,2.4-.46-.07.46-.18,1.37-.24,1.83-1.23,1.03-2.41,2.11-3.57,3.22,2.08-.11,4.19-.19,6.29-.24-.49.74-1.46,2.21-1.95,2.94l2.72-.88c-.61,1.46-1.3,2.86-1.91,4.33,1.55-.13,3.09-.26,4.65-.41-.45,1.41-.33,2.87-.08,4.32.89-.03,2.67-.1,3.57-.13-.39,1.07-.91,2.05-1.59,2.97-1.31,1.15-2.31,2.59-3.22,4.07.79-.08,2.38-.22,3.17-.3-.03.82-.06,1.63-.09,2.46-.87.82-1.41,1.83-1.61,3.02,2.26-1.23,4.57-2.53,7.23-2.55-1.41,3.45-5.52,4.8-7.03,8.32-.61.81-1.2,1.62-1.78,2.46,2.79-1.92,5.53-3.9,8.42-5.68.42-.11,1.25-.32,1.67-.44-.08.45-.21,1.33-.28,1.77-2.29,3.45-5.37,6.23-8.77,8.57,1.11-.11,3.32-.32,4.43-.43-.37,1.25-.95,2.43-1.55,3.61-1.61,1.86-3.11,3.81-4.88,5.53,1.37-1.18,2.91-2.16,4.47-3.05.97-.34,2.92-1.01,3.89-1.34.62,3.04-1.25,5.1-3.49,6.71-.78.22-2.33.66-3.11.88,1.06.38,2.13.77,3.21,1.16.03,1.08.53,1.96,1.51,2.66-.67-.43-2-1.3-2.67-1.74.02.53.06,1.56.08,2.08l1.6-.38c-.09.78-.26,2.33-.35,3.1l-1.67,1.05c2.08.37,4.12.97,6.2,1.47-3.62.96-7.4.1-11.08.59,1.64.81,3.19,1.54,2.85,3.72-1.27.03-2.55.08-3.8.14-1.06,1.32-2.22,2.55-3.27,3.87-.33,1.8-.18,3.65-.29,5.49-.36,1.03-.63,2.09-.81,3.18-.89,1.35-1.65,2.97-3.21,3.69-4.15,2.16-7.84,5.07-11.74,7.63-1.37.82-1.55,2.34-1.42,3.79.32-.26.95-.79,1.27-1.05,1.32-.23,2.67-.48,3.99-.84,3.63-1.41,7.14-3.11,10.56-4.98,1.58-1.04,3.2-2.01,4.84-2.96,3.46-1.5,5.91-4.44,8.76-6.8,3.28-2.66,4.45-6.87,5.92-10.64.22-.48.67-1.44.9-1.92,1.08-1.91,2.09-3.84,3.03-5.82l.89-2.02c1.19-3.34,3.51-5.96,6.64-7.62-.79-2.93-1.35-5.92-2.65-8.68-1.2-3.57-4.09-6.59-4.15-10.48.09-2.76-1.16-5.3-1.26-8.02-.37-4.38.56-8.75.21-13.12-4.2-3.59-9.19-6.36-13.2-10.27-2.68-2.69-5.82-4.83-9.13-6.65ZM619.95,550.12c1.36,1.28,3.38.75,5.09.98,4.52,2.08,9.15,4.21,12.72,7.79.58,1.32,1.2,2.64,1.81,3.96.34,2.34,1.02,4.63,1.97,6.81,3.75,4.97,7.98,10.17,8.75,16.58-.33-4.8-.59-9.64-1.25-14.38-.21-3.99-.87-7.93-1.39-11.87-4.93-4.15-8.91-10.45-15.91-11.1-3.93.45-7.86.84-11.79,1.22ZM596.8,550.38c3.71.33,7.37,1.16,10.8,2.65,4.69,2.94,9.3,6.58,11.67,11.73.17,1.75.64,3.44.99,5.16-.41,1.75-1.06,3.42-1.74,5.09-.75.56-1.49,1.14-2.23,1.72,3.26.84,6.22-1.13,8.81-2.86,1.28-.59,1.39-1.99,1.68-3.18.38-1.6.39-3.25.39-4.87-1-2.5-1.52-5.39-3.67-7.21-4.29-4-9.81-6.43-15.35-8.12-3.73-.88-7.6-.3-11.36-.11ZM593.69,573.81c1.93,3.92,3.75,8.17,7.36,10.86,3.38,2.8,7.77,3.8,11.94,4.78.55,0,1.65.03,2.2.04-6.41-2.97-12.47-7.3-16.26-13.36l-.53-.12c-.74-4.03-2-7.95-2.85-11.95-.09-1.76-.09-3.52-.18-5.27-1.74,4.71-3.25,10.06-1.67,15.03ZM554.72,562.52c-.62,1.09-1.6,1.88-2.53,2.67-3.08,2.26-4.69,5.87-6.08,9.32-1.22,3.13-2.33,6.69-1.06,9.99,1.47,3.55,2.06,7.37,3.49,10.94,1.69,1.04,2.61,2.8,3.26,4.63.43.33,1.27.98,1.7,1.3l-.32,1.15,1.15-.12c-.28,2.96,2.61,5.02,5.15,5.74-.77-.42-1.54-.81-2.31-1.18,1.15-2.7-1.46-4.11-2.89-5.86-.03-.61-.1-1.84-.13-2.44-.38-.05-1.15-.14-1.53-.18,0-2.16-1.82-3.48-2.9-5.14-.24-.53-.74-1.57-.99-2.09-.5-2.66-.23-5.38-.17-8.05,4.03,6.37,8.74,12.46,14.9,16.9,1.33.8,2.05,2.14,2.55,3.56-.1-.72-.18-1.43-.26-2.13-.97-1.25-1.95-2.49-2.9-3.74-2.89-4.32-4.68-9.25-6.19-14.19-.26-1.33-.61-2.65-1.08-3.91-1.05-4.01-.15-8.09,1.07-11.94,1.52-1.91,1.41-6.26-1.95-5.23ZM604.98,565.62c0,.45.03,1.35.03,1.81,1.47.02,2.94.05,4.43.09.56.28,1.68.86,2.25,1.15.12.76.35,2.29.47,3.04,1.04-.75,2.31-1.95,1.6-3.35-1.78-2.85-5.7-4.99-8.77-2.74ZM632.87,591.43c-1.64.63-3.27,1.3-4.91,1.92-.99.27-1.97.58-2.93.94-1.97.28-4.03.28-5.89,1.03-8.65.63-17.31-1.25-25.48-3.97-1.75-.89-3.83-1.25-5.2-2.72-.08.17-.22.51-.3.68,2.91,1.87,5.66,3.97,8.73,5.57,4.39,2.29,8.61,5.95,13.81,5.76l.1.73c6.59-.27,13.32,2.62,19.83.43,2.6-.22,5.61-.03,7.49-2.23,2.37-2.9,3.84-6.62,4.14-10.37,1.07-2.06.42-4.51.72-6.73-2.95,3.41-6.13,6.75-10.11,8.96ZM637.71,616.75c-1.08,1.52-2.04,3.11-2.86,4.8-1.42,3.53-4.82,5.1-7.89,6.92-2.29.23-4.6.3-6.83.87-3.32.09-6.63.29-9.93.64-1.58.53-3.24.48-4.86.43-1.89-.74-3.89-.97-5.88-1.09-6.64-1.68-13.59-.54-20.36-.95-4.19-.87-8.43-1.56-12.68-1.99-1.56-.6-3.2-.8-4.83-.95-1.64-.53-3.36-.68-5.05-.86-2.53-1.16-4.97-2.49-7.28-4.02,6.42,5.55,12.97,11.25,20.78,14.76,2.3,1.19,4.32,2.8,6.38,4.34,1.9,1.42,3.86,2.73,5.81,4.09,3.05,1.11,6.42.77,9.52-.05,1.25-.39,2.54-.72,3.81-1.08.99-.29,1.98-.59,2.98-.91,2.85-.84,5.78-1.34,8.67-2.02,3.9-.56,7.85-1.01,11.69-1.89,3.63-.48,7.21-1.3,10.87-1.35,4.06-2.44,7.7-5.56,10.61-9.31,2.23-2.71,1.29-6.31,2.11-9.46.62-2.63.41-5.33.53-7.99-1.92,2.25-3.68,4.62-5.3,7.09ZM651.29,646.79c-1.02.33-2.03.68-3.04,1.02,1.91-.89,2.33,3.12.2,2.24l.25,1c-1.02-.11-3.05-.32-4.08-.44.13.51.4,1.52.53,2.01-2.46-1.17-4.95-2.3-7.54-3.1-.68,2.35,1.76,3.11,2.97,4.45-2.73.41-5.26-1.82-7.97-.46,2.38.75,4.77,1.54,7.06,2.55.46.28,1.38.84,1.85,1.12.67.65,1.34,1.32,2.02,2.01.46,1.06.96,2.12,1.45,3.19.31.34.93,1.01,1.24,1.34-.57,0-1.72-.05-2.31-.06l-.08-.81c-4.38-3.92-10.46-4.95-16.06-5.86,3,1.18,5.93,2.72,9.19,3.09.09.42.27,1.26.36,1.68-.89-.04-2.66-.13-3.54-.18,2.61,2.06,5.44,4.18,6.57,7.46-5.19-3.32-10.32-7.44-16.52-8.56,2.98,1.79,6.23,3.22,8.73,5.72.27.37.82,1.13,1.1,1.51-.54-.1-1.62-.28-2.16-.37-1.32-1.23-3.07-.75-4.65-.6-1.8-.48-3.27-1.66-4.89-2.48,2.54,3.16,5.39,6.49,5.76,10.72-4.22-3.29-8.89-5.9-13.33-8.85,2.34,2.72,5.1,5.03,7.93,7.23-2.42.53-4.41-1.15-6.45-2.12-2.01-1.21-4.06-2.37-6.23-3.22l.31-.63c-.65.11-1.97.32-2.63.44,2.57.75,5.22,1.51,6.71,4.03-1.04-.11-3.12-.31-4.16-.42l-.14,1.41c-1.33-.94-2.66-1.84-4-2.72.82.96,1.62,1.92,2.46,2.9l-.58,3.5c-2.31-1.97-4.88-3.59-7.57-4.99-1.22-.63-3.92-2.25-4.26.21-.53-.42-1.59-1.25-2.11-1.67-1.12-1.5-2.71-2.89-4.74-2.49-2.86.38-5.49-.73-8.21-1.31l-.13-.54c-4.64-1.21-8.29-4.94-13.24-5.33-2.56-.49-5.15-.79-7.53-1.9,3.1,2.61,4.86,6.44,8.12,8.88,3.17,2.36,5.87,5.29,9.18,7.49,7.64,5.71,14.54,12.39,22.34,17.93,1.48.31,2.75-.65,4.07-1.16,1.51-.64,3.26-.6,4.68-1.48,3.45-.14,6.77-1.2,10.22-1.44l.08-.65c5.07.05,10.13-.08,15.19.17,3.09.67,6.17,1.48,9.31,1.89,2.62-3.39,2.99-7.88,4.89-11.65,4.19-7.19,9.4-13.83,15.3-19.68.46-1.13-.19-2.18-.63-3.16-1.81-3.53-3.88-7.02-6.98-9.57-1.49-.51-2.97.22-4.34.72ZM506.23,694.24c-1.24.79-2.48,1.56-3.7,2.38-5.37.89-10.82,1.89-15.55,4.73-3.73,1.85-7.75,3.86-10.05,7.47,5.34-4.56,11.72-7.79,18.41-9.86,1.07-.22,2.14-.51,3.2-.84,3.29-.16,6.19-1.64,8.9-3.44-4.24,6.37-10.14,11.86-12.72,19.21-1.98,4.2-4.23,8.32-5.84,12.68-1.05,2.56-2.72,4.82-3.66,7.43.29-.24.87-.72,1.15-.95.69-1.01,1.45-1.95,2.21-2.89.58-1.02,1.18-2.02,1.76-3.03,3.63-4.59,6.8-9.49,9.86-14.46,1.76-2.66,3.63-5.26,4.94-8.18l1.53-.17c.06,3.73-.19,7.57.79,11.22.58,5-.82,9.89-.89,14.87,4.14-9.58,1.58-20.19,2.04-30.24.68-2.12,1.54-4.25,1.12-6.53-1.18.16-2.34.35-3.5.59Z"/>
      <path class="st1" d="M158.89,465.62c2.53-2.68,6.11-4.81,9.92-4.21,3.3,2.53,7.01,4.44,10.57,6.57,1.36.53,2.7,1.08,4.06,1.64,1.29.34,2.62.58,3.93.88,2.23.68,4.46,1.35,6.71,1.97,1.23.48,2.46.89,3.7,1.34,1.39.48,2.76,1.01,4.17,1.47,2.95,1.04,5.57,2.88,6.84,5.84,3.14,5.17,7.28,9.63,11.14,14.26,4.88,5.52,10.27,10.78,16.94,14.1,1.6.77,3.25,1.45,4.96,1.95,4.33,1.66,8.99,1.62,13.55,1.84,1.29.41,2.65.69,4.01.84,1.84,1.42,3.58,3,4.9,4.94,1.65,3.46,2.52,7.2,3.68,10.84.74,2.99,1.8,5.87,3.01,8.71,1.13,2.98,2.59,5.82,4,8.68.24.49.74,1.47.99,1.96.91,1.6,1.87,3.21,2.91,4.76,1.38,2.53,3.46,4.98,3.29,8.03.03,4.01-1.52,7.84-1.35,11.87-1.14,3.73-.29,7.71-1.14,11.51-.89,4.13-.13,8.46-1.22,12.54-.48,2.34-1.02,4.68-1.56,7.02-.39,1.28-.74,2.6-1.11,3.91-1.47,3.44,1.08,6.82,4.07,8.35,3.11,2.72,6.11,5.61,8.79,8.77,1.02,1.63,2.31,3.17,2.38,5.2-.4.21-1.2.65-1.6.87,1.64,2.78,4.02,5.01,5.95,7.59,2.74,4.35,5.88,8.43,8.8,12.67,1.32,2.3,2.65,4.6,4.05,6.87,0,.78.04,2.33.05,3.11-1.35.73-1.54,2.56-.51,3.63,2.34,2.87,3.97,6.21,5,9.76.3.99.62,1.99.94,3,.36,1.3.36,2.8,1.25,3.93,0,1.47-.4,2.9-1.06,4.23-1.48.62-3.02,1.06-4.61,1.32.2.7.42,1.41.64,2.12.53,1.96,1.19,3.9,1.88,5.83.99,3.94,2.52,7.83,2.14,11.97-.25.55-.76,1.66-1.01,2.23h-.81c-1.3,5.98-1.05,12.12-1.16,18.2-.03,1.88.34,3.76,1,5.54.46,3.88.23,7.79.26,11.69-4.15-.41-5.57-5.11-8.51-7.49-3.36-2.58-7.1-4.57-10.71-6.75-.49-.25-1.47-.75-1.95-1-3.68-2.03-7.7-3.27-11.54-4.92-2.17-1.99-5.04-2.89-7.96-2.54-.11.48-.32,1.45-.43,1.93-2.41.2-4.34-1.24-6.35-2.28-4.01-2.74-6.91-6.68-10.45-9.93-.62,1.01-1.25,2.02-1.89,3.05-.52.36-1.56,1.07-2.08,1.42-4.16-2.69-8.81-5.38-10.92-10.12-.45-1.69-1.13-3.32-1.87-4.89-.08-.61-.24-1.84-.32-2.45-2.18-1.4-4.9-.41-7.11-1.69-1.17-1.49-2.27-3.02-3.28-4.62-.25-1-.52-1.99-.8-2.97-.39-.98-.78-1.95-1.16-2.91-.7-2.03-1.58-4-2.48-5.94-.39-.95-.76-1.91-1.12-2.85-3.51.53-6.41,2.76-9.63,4.1-2.39.34-4.8.3-7.2.13-.49-.3-1.45-.9-1.93-1.21-.86-1.07-2.64-1.01-3.29.25-2.07,2.77-3,6.21-4.24,9.4-.22.51-.65,1.51-.88,2.01-.98,2.24-2.17,4.42-2.83,6.78-1.69,4.45-5.05,7.94-8.26,11.33-1.32,1.33-3.24.88-4.91.81-.19-1.28-.41-2.56-.64-3.82-3.26,5.12-7.22,10.04-12.55,13.1-1.4.87-2.7,1.89-3.91,3.01-1.7.76-3.81,1.76-5.35.11-.26-1.6-.65-3.18-.95-4.75-.89.71-1.78,1.44-2.67,2.16-2.11,1.25-4.29,2.39-6.56,3.34-1.67.56-3.3,1.28-4.91,2.02-4.01.45-7.28,3.01-10.75,4.8-2.76,1.37-5.6,2.76-7.7,5.09-2.43,2.4-4.85,5.49-8.63,5.46-.31-3.32,1-6.34,2.05-9.39,2.53-8.41-.12-17.11.3-25.65-.4-4.4,1.01-8.65.77-13.03-1.25-.4-2.51-.81-3.77-1.17-.18-3.07-.54-6.17.09-9.2,1.13-1.46,1.18-3.59,3.06-4.42-.58.17-1.76.5-2.34.66.6-2.29,1.08-4.6,1.37-6.93,1.12-2.89,1.9-5.89,3-8.78.4-1.27.58-2.62.79-3.92.24-.53.74-1.56.99-2.08,1.32-1.94,2.63-3.88,3.86-5.87,1.29-1.51,2.72-2.91,3.8-4.57-1.01-1.62-2.96-2.21-4.49-3.16-4.21-1.63-8.56-2.84-12.82-4.31-1.79-1.15-3.53-2.38-5.01-3.92-1.96-6.29-3.87-12.62-6.68-18.61-2.37-7.04-7.57-12.48-12.16-18.09l-.66-.1c-.08-2.77-.2-5.54.13-8.29.42-.96.79-1.95,1.1-2.94,1.35-2.89,2.68-5.78,3.9-8.72.22-.49.67-1.47.89-1.95,1.32-5.33,4.61-10.8,2.94-16.36-.15-2.66-.23-5.33-.63-7.97-.57-1.85-.62-3.81-1.29-5.63-.18-1.41-.32-2.82-.45-4.23,1.81-.5,3.58-1.13,5.33-1.8,1.6-.61,3.17-1.27,4.72-1.98,3.67-2.16,7.64-3.98,10.71-6.98.93-.51,1.87-1,2.8-1.48-.18-1.33-.45-2.65-.8-3.93-.18-6.31-2.1-12.55-1.1-18.87,2.55-5.03,4.7-10.24,7.06-15.36.64-1.28,1.27-2.57,1.85-3.88.35-.97.71-1.95,1.07-2.91.66-1.64,1.28-3.31,1.79-5,.86-1.73,2.23-3.08,3.87-4.05,4.56-1.33,9.48-.56,13.85-2.62.95-.36,1.9-.73,2.84-1.09,4.7-2.12,9.03-5.02,12.61-8.72ZM153.35,481.58c-1.72.45-3.35,1.16-4.94,1.92-4.5,1.69-9.14,2.96-13.63,4.67-1.69,1.3-3.57,2.7-3.86,4.99-1.87,4.76-3.98,9.42-6.22,14.01-1.03,3.97-.27,8.14-.13,12.19,1.06-2.33,3.36-3.53,5.24-5.11,1.54-.97,2.79-2.3,3.74-3.83.66-1.74,1.31-3.5,2.38-5.03-.28,2.26,1.02,3.39,3.15,2.78-.1-3.29-1.57-6.27-2.41-9.4,2.17.21,2.82,2.84,5.18,2.63.04,1.99.04,4,.1,6l1.91-.08c.2-2.08-.08-4.15-.19-6.22.48.06,1.45.16,1.94.21,1.33,1.9,2.55,3.89,3.59,5.97-.32-2.04.15-4.39-1.2-6.14-1.54-2.62-4.34-4.28-5.51-7.13.39.33,1.17.98,1.56,1.31,4.51,2.89,7.39,7.56,9.93,12.15-1.32-4.7-3.77-8.96-6.3-13.09l-.66-.03c-.07-.51-.22-1.53-.29-2.03.5.06,1.48.19,1.97.26l.08.7c3.79,2.64,6.99,6.15,8.94,10.37.37-3.41-1.85-6.1-3.78-8.63.57.14,1.71.4,2.29.53.56.47,1.69,1.39,2.26,1.85.03-1.53.05-3.05.06-4.57,2.03,1.51,2.96,3.92,4.19,6.03-.58-1.95-1.29-3.84-1.85-5.8-.4-.97-.84-1.92-1.3-2.84-.19-1.47-.31-2.96-.36-4.43,2.01,1.6,3.22,3.94,4.78,5.94l.81-.34c-.7-2.36-1.48-4.75-1.39-7.25,4,4.55,8.37,9.32,9.76,15.4-.17-1.88-.39-3.83.59-5.52.23-1.79.39-3.59.49-5.38.42-.04,1.24-.11,1.66-.15,0,1.95.07,3.87.29,5.82.27-.88.81-2.62,1.08-3.49.48-.99.95-1.97,1.56-2.88.22,1.33.49,2.66.79,3.97.22,2.94.32,5.88.67,8.81,1.48-1.16,1.88-2.98,2.32-4.69-.02-1.61,0-3.21,0-4.81.22.03.68.09.9.12.24.39.73,1.16.98,1.54.14,2.64.37,5.27.29,7.92.52-3.64,2.64-6.99,2.05-10.76.08-1.38-.67-3.1.59-4.12.24.76.74,2.28.99,3.03.17,1.97.42,3.95.76,5.9l.93-2.84c.32-1.09.58-2.18.79-3.28.51-.14,1.52-.41,2.01-.54-.11,1.66-.21,3.34-.3,5.02.73-.98,1.48-1.94,2.26-2.86,1.29,1.95,3.08,1.15,4.71.16,0-1.24,0-2.49.02-3.72-5.41-1.93-9.48-6.7-15.43-7.28-2.91-.94-5.88-1.74-8.96-1.76-.8-.54-1.6-1.1-2.38-1.64-2.26-1.35-4.33-4.28-7.09-3.85-3.5,3.84-7.85,6.88-12.41,9.34ZM207.84,502.9c-3.96.84-7.98,1.53-11.82,2.86-1.63.57-3.22,1.26-4.78,2.01-3.07,1.77-5.95,3.86-8.87,5.88,1.61.27,3.44.05,4.83,1.09,2.46-.54,4.32.83,5.74,2.74-.16-1.75-.98-3.26-1.65-4.81.49.08,1.46.24,1.95.33,1.21,1.62,2.43,3.27,3.22,5.15-.12-.88-.33-2.61-.45-3.48l1.99.23c1.17,2.25,2.94,4.09,4.55,6.01-.68-1.47-1.3-2.96-1.97-4.43-.23-1.34-.48-2.67-.72-4,.53.16,1.57.47,2.09.62,1.94,2.27,3.57,4.76,5.06,7.33.03-2.1-.57-4.09-.94-6.13.31.32.94.97,1.25,1.3,2.26,2.26,3.28,5.44,5.69,7.55-.89-1.53-1.26-3.26-1.3-5,1.13,1.19,2.1,2.51,3.05,3.86.79,2.31,1.68,4.59,2.7,6.82-.13-2.95-.8-5.88-2.36-8.4-.05-.6-.14-1.79-.18-2.38,1.61,1.29,2.54,3.18,3.67,4.87,1.07,1.97,1.92,4.08,3.07,6.01,0-1.25-.17-2.5-.57-3.69-.12-.51-.37-1.52-.49-2.01.44.16,1.31.47,1.76.62.89,2.02,1.91,4,2.95,5.95.71,2.02,1.41,4.06,2.27,6.04.09-1.39.17-2.77.24-4.14.24-.54.74-1.61.98-2.16.45-.04,1.32-.14,1.76-.18.1,2.43-.24,4.93.53,7.29.19,1.64.37,3.31,1.04,4.85.08,1.99.08,3.99,0,5.99-.62,1.55-.81,3.2-1,4.84-.37.98-.71,1.98-1,3.01-.47,1.25-.75,2.56-.92,3.89-1.61,4.77-5.31,8.34-7.76,12.65-1.99,3.23-4.03,6.45-5.82,9.8-1.33,2.24-2.67,4.46-3.87,6.79-1.3,2.26-2.65,4.49-3.88,6.79-.26.47-.77,1.41-1.02,1.88-2.91,5.02-5.66,10.16-7.83,15.55-.66,1.63-1.32,3.28-1.97,4.92-.71,1.59-1.35,3.19-1.96,4.82-.4,1.24-.75,2.5-1.06,3.79,3.26-3.07,5.08-7.26,7.55-10.92,6.2-8.03,13.64-14.92,20.85-22.01,3.74-3.4,5.42-8.29,7.11-12.9,1.44-4.22,3.02-8.4,4.22-12.69,1.35-2.92,1.96-6.14,3.73-8.85,2.36-3.18,5.7-5.69,7.28-9.4.79-3.91-.23-7.84-1.24-11.59-1.85-5.83-3.97-11.74-7.63-16.68-6.6-5.39-13.19-11.51-16.43-19.57-.71-.59-1.42-1.19-2.13-1.77-3.1,1.2-6.25,2.26-9.5,3.02ZM154.03,518.11c-8.49,1.36-16.13,5.57-24.43,7.64-1.01,6.1-3.37,11.85-4.55,17.92-1.28,3.92-1.15,8.45-.06,12.43.36.96.71,1.94,1.07,2.92.27.97.55,1.96.85,2.96,1.34,2.77,2.71,5.55,3.43,8.58-.12-2.82-.18-5.72.64-8.44.21-1.36.39-2.71.62-4.07,1.11-3.12.6-6.49.86-9.73.5-1.3,1.01-2.6,1.77-3.76-.05-.38-.15-1.14-.2-1.52l1.27.17c0-.86-.05-2.58-.07-3.43.25.08.74.21.99.29l-.42,1.72c2.33-.26,3.32-2.53,3.49-4.54.43,0,1.3-.03,1.73-.04,0-.36.04-1.08.05-1.44.86-1.01,1.66-2.09,2.04-3.37l.7-.08c.11-1.23.09-2.53.87-3.54.09.83.25,2.48.34,3.31,3.11-1.42,2.96-5.75,4.96-8.28,2.99-.07,4.76-3.3,7.57-4.18l.02-.67c.85-.14,2.53-.42,3.38-.55-2.28-.43-4.61-.31-6.92-.27ZM164.05,524.34c-2.35,1.46-5.1,2.54-6.85,4.78-2.86,3.45-1.78,8.35-4.75,11.78,3.72-3.26,7.57-6.29,12.18-8.18,1.79-1.56,3.76-2.87,5.82-4.05,2.37.02,4.76,0,7.14.1,1.92.75,3.89,1.35,5.88,1.86,4.86,2.44,8.77,6.32,11.9,10.73,1.97,3.43.78,7.41.76,11.14-.49,1.58-.73,3.22-.89,4.86-3.66,9.91-9.58,19.69-19.48,24.34-.52.24-1.56.72-2.07.96-3.69,1.72-7.69,2.51-11.75,2.55.82,1.39,2.62.75,3.93.94,4.96.27,9.75-1.29,14.39-2.84,3.18-.61,5.94-2.36,8.74-3.89,2.71-2.13,5.05-4.67,7.55-7.03,3.74-3.53,5.76-8.46,7.09-13.33,1.19-5.8,1.47-11.74,2.5-17.56-1.37-2.76-4.05-4.63-5.81-7.15-3.74-3.77-7.14-8.18-12.07-10.48-2.39-.31-4.7-1.03-7.04-1.58-1.84-.68-3.79-.83-5.73-1-3.96-1.5-8.01,1.24-11.44,3.05ZM208.58,530.15c3.03,3.98,5.66,8.27,8.96,12.04.69-.13,1.37-.24,2.06-.34.41,1,.81,2.01,1.22,3.02,1.3,1.49,2.6,3.01,4.02,4.41-.47-1.26-1.1-2.45-1.77-3.6-1.61-1.33-1.98-4.91-4.51-4.39l.34-1.18c-1.81.57-1.99-1.19-2.59-2.3-2.31-2.8-5.01-5.26-7.72-7.67ZM163.88,543.56c-1.56.75-3.14,1.43-4.74,2.1-4.61,3.59-9.48,8.35-9.68,14.56-.53,1.6-.64,3.33.22,4.84.06-.81.18-2.43.23-3.24,4.04-5.7,9.98-9.74,15.7-13.62,1.39-.23,2.75-.59,4.09-1.04,3.93.99,8.35,1.28,10.86,4.99.34,1,.71,1.99,1.13,2.99.45,3.16-1.24,5.94-2.13,8.87,2.25-1.29,5.59-2.83,5.45-5.84-.02-3.75.44-8.1-2.14-11.19-4.72-5.3-12.68-4.67-19-3.43ZM113.41,545.54c-.5.25-1.49.77-1.97,1.02-3.04,1.12-5.65,3.09-8.5,4.58-.48,5.26.53,10.52.17,15.78-.25.41-.75,1.23-1,1.63-.39,4.43-1.16,8.81-2.21,13.14-1.13,4.8-4.04,9.29-3.84,14.32,1.09,2,2.57,3.76,3.86,5.64,3.3,5,6.44,10.13,8.73,15.68,1.58,4.24,2.63,8.69,4.57,12.79,1.41,3.06,5.15,3.5,7.93,4.74,4.85,1.96,9.8,3.72,14.61,5.81,3.24,1.62,6.32,3.57,9.68,4.95.49.25,1.45.76,1.94,1,3.13,1.29,6.51,1.81,9.88,1.79,1.55.54,3.16.8,4.77,1.12.99.31,1.99.61,3,.9,3.53,1.12,7.02,2.43,10.71,2.95,5.64,2.05,11.37-.09,16.22-3.02,6.37-3.69,13.08-7.3,18.35-12.44l-1.4,1.13c-9.24,1.5-18.65,1.81-27.99,1.28l-.06.92c-3.43.17-6.86.02-10.28-.07-.47-.34-1.41-1.01-1.88-1.35-.98-.3-1.96-.61-2.94-.94-1.91-.61-3.91-.41-5.86-.27-2.95,1.88-5.74-1.5-8.77-1.56-1.25-.75-2.54-1.47-3.83-2.14-1.01-.26-2.02-.52-3.02-.77-2.64-.79-5.43-.51-8.14-.71v-1.66c1.83-.44,3.61-1.03,5.41-1.55-2.48-1.24-5.31-.75-7.98-.82-.57-.21-1.74-.63-2.32-.84l.1-1.7c2.07-.2,4.14-.41,6.23-.33-3.04-.94-6.09-2.07-9.34-1.81.02-.48.06-1.44.08-1.93,1.82,0,3.65-.02,5.47-.07-2.92-1.23-5.98-2.08-8.98-3.11,1.45-.82,2.88-1.67,4.19-2.68-1.83,0-3.67.11-5.5.2-.03-.5-.1-1.49-.14-1.97,2.46-.23,4.92-.46,7.37-.75-2.55-.71-5.15-1.2-7.64-2.07-1.92.06-4.1-.6-5.83.52-.94.09-1.89.18-2.82.26.03-.47.09-1.4.12-1.86,1.82-.56,3.66-1.1,5.44-1.78,5.21-.63,10.48-.38,15.73-.41-1.99-1.02-4.37-.33-6.48-.48-1.22-2.4,1.6-2.58,3.29-2.47-2.65-1.33-5.64-.64-8.47-.89,1.41.59,4.02,1.3,3.62,3.24-2.61.17-5.31-.41-7.96-.43l-.16-.58c-.25-.31-.77-.94-1.02-1.26l-.86.09v-1.69c.82-.18,2.45-.52,3.28-.68-.95-.24-1.95-.31-2.93-.32-2,1.02-4.3.41-6.45.61-.51-4.02,4.9-2.26,7.31-2.81l-.08-.74c-3.03.32-5.87-.89-8.72-1.73,2.54-1.95,5.9-.76,8.77-1.78l.04-.94c-2.33-1.03-4.63-2.19-7.08-2.92l-.26-1.85c2.55.35,5.09.83,7.63,1.24-1.01-.42-2.01-.84-3.02-1.25-1-.58-2.09-.85-3.27-.77-.43-1.39-.97-2.72-1.62-4.01,1.97.05,3.94.09,5.9.07-2.05-1.05-4.05-2.23-6.15-3.19l-.37-1.86c2.76.3,5.54.46,8.33.34-2.01-.92-4.11-1.68-6.28-2.18.03-.4.08-1.21.11-1.61.92.03,2.77.09,3.7.11-2.16-1.72-5.9-.83-7.36-3.4,3.04-.07,6.05.53,9.08.45-1.97-1.47-4.5-1.32-6.8-1.76-1.96-.75-3.82-1.8-4.98-3.61,4.31-.12,8.34,2.1,12.69,1.24-.63-1.25-1.84-1.89-3.08-2.41-2.5-.43-5.08-.48-7.41-1.58.04-.44.12-1.31.16-1.76,2.81-.08,5.87.45,8.38-1.14-1.1-.45-2.22-.85-3.34-1.22l-.34-1.79c.94.03,2.83.11,3.77.15-1.71-.97-3.7-1.28-5.52-1.97-.02-.49-.07-1.47-.1-1.96,1.18.13,2.34.23,3.51.38-.46-.82-1.36-2.45-1.82-3.27.75,0,2.23-.02,2.98-.03-1.77-1.24-3.94-2.06-5.09-3.99,1.97.14,3.95.29,5.92.47l-3.11-2.72c-.13-.39-.39-1.15-.52-1.54.28,0,.86-.04,1.15-.05l.12,1.1c1.11.12,2.22.23,3.33.36-.19-1.1-.4-2.2-.6-3.29-1.39,0-2.82-.02-4.11.54ZM257.35,545.61c3.53,4.5,1.3,10.32,2.96,15.37.24,5.55.39,11.13-.02,16.67-.55,1.27-.72,2.66-.89,4.05-.68,1.9-1.38,3.8-1.9,5.76-.78,1.81-1.63,3.59-2.66,5.28.86.03,2.59.1,3.45.14-2.41.87-3.15,2.93-2.51,5.23-4.17,1.95-6.05,6.63-10.18,8.64.4,1.16,1.35,1.58,2.53,1.65l.08,1.63c-2.68,1.03-5.21,2.42-7.38,4.32,1.51-.64,3.05-1.24,4.67-1.57-.02,2.61-2.95,2.79-4.59,3.99-1.57.85-3.19,1.58-4.81,2.31,2.72-.9,6.45-2.36,8.49.48-1.58.67-3.15,1.36-4.76,1.99-3.32,1.84-6.47,3.98-9.68,6.01,1.28-.23,2.55-.51,3.83-.74.75.31,2.25.93,3.01,1.24-3.37,1.34-6.73,2.7-9.88,4.51,1.54.05,3.06.06,4.61.09l-.12,1.58c-3.37.48-6.29,2.31-9.02,4.22,1.12-.22,3.37-.67,4.48-.89,1.87-.12,3.67.48,5.21,1.52-2.04.58-4.1,1.13-6.14,1.75-1.48.63-2.95,1.3-4.41,1.97.57.34,1.74,1.03,2.32,1.38-.15.41-.43,1.22-.56,1.62-2.61.24-4.96,1.44-7.32,2.44-1.37.72-2.85,1.29-3.98,2.4,1.95.31,3.93.32,5.89.29-.07.45-.22,1.35-.29,1.8-1.77,0-3.55.15-5.18.86-2.37.39-4.69,1.07-6.93,1.94,3.76-.24,7.58-.05,11.04,1.61l.16,1.66c-5.65-.53-11.3.32-16.94,0,2.08,1.09,4.88,2.35,4.66,5.22-3.14-1.3-6.49-1.65-9.85-1.43-.49-.2-1.46-.63-1.95-.85,1.71,1.69,4.26,1.76,6.26,2.94-4.31.83-8.49-1.87-12.74-.53-1.64.97-3.32,1.9-4.99,2.84,4.03,1.06,7.72,3.22,11.9,3.77,3.45.86,7.02.8,10.55.94,4.8,2.28,9.35-1.74,13.38-3.93.79-.48,1.58-.94,2.36-1.4,1.44-.56,2.9-1.06,4.37-1.55,3.2-.44,6.33-1.32,9.4-2.31.16-.34.47-1,.61-1.33.2-.51.59-1.52.79-2.03,1.19-2.16,2.04-4.48,2.99-6.75l.97-1.95c1.25-2.31,2.53-4.59,3.83-6.86,6.22-9.44,13.16-18.57,21.82-25.92,2.4-1.55,1.37-4.79.51-6.93-.08-2.66-.1-5.31.02-7.96.76-1.89.78-3.92.98-5.9.62-1.53.85-3.16,1.04-4.79,1.83-8.5,3.1-17.72.04-26.09-.62-1.62-1.25-3.24-1.95-4.82-.24-.51-.73-1.52-.97-2.03-1.91-4.65-3.64-9.46-6.61-13.57ZM140.64,558.26c-.24.49-.73,1.45-.97,1.94-.25.49-.75,1.47-1,1.96-.76,1.56-1.44,3.16-2,4.81-2.31,8.95,6.55,15.14,13.66,18.26,2.31.83,4.66,1.54,6.82,2.71-1.79-2.03-4.08-3.53-6.06-5.35-2.99-3.95-6.49-7.72-7.89-12.59-.16-1.66-.39-3.34-.91-4.91-.63-3.96.04-7.92.77-11.8-.84,1.63-1.64,3.29-2.4,4.96ZM159.83,570.75c1.06,1.65,2.61,2.74,4.65,2.73-.3-2.24-.18-4.47,0-6.7,1.26-1.47,2.47-3.34,4.62-3.45l.11-.91c1.49.03,2.98.07,4.46.19.69,1.54,2.14,2.41,3.57,3.17-.22-.4-.68-1.21-.9-1.61-.63-2.56-1.31-6.51-4.65-6.57-7.03-1.36-13.55,6.51-11.87,13.16h0ZM209.64,575.74c-2.78,2.62-6.26,4.23-9.66,5.88-2.31.85-4.53,1.88-6.72,2.98-2.67.79-5.3,1.75-7.86,2.87-1.31.26-2.62.55-3.89.94-2.31.24-4.6.48-6.89.78,3.5.95,7.16.24,10.73.19,1.55-.41,3.12-.7,4.66-1.13,2.97-.84,5.94-1.69,8.73-3.02,1.13-.59,2.26-1.21,3.52-1.47l-.04-.8c1.35.16,2.63-.32,3.56-1.3,2.55-2.33,5.03-4.87,6.6-7.99-1.01.55-1.9,1.29-2.75,2.06ZM127.56,577.37c.08,3.34-.02,6.67.15,10.01.79,3.54.95,7.2,1.83,10.75,2.26,1.78,4.83,3.1,7.32,4.53,1.24.69,2.49,1.38,3.74,2.06,1.28.65,2.58,1.28,3.89,1.9,1.6.73,3.21,1.42,4.85,2.04,1.25.71,2.55,1.39,3.92,1.86,5.28,2.81,11.89,2.37,17.26.08.99-.35,1.98-.69,2.97-1.03,1.59-.68,3.17-1.34,4.77-1.97,3.65-1.1,7.24-2.37,10.75-3.83,3.04-1.26,6.31-2.3,8.73-4.63-1.24.7-2.46,1.45-3.69,2.2-1.31.13-2.67.13-3.88.74-10.01,1.69-20.22-.09-30.24-1.01-1.58-.61-3.27-.72-4.93-.88-1.94-.66-3.87-1.29-5.82-1.92-2.98-1.33-6.12-2.29-9.02-3.78-2.98-1.95-5.54-4.46-6.68-7.92-.03-1.79-.12-3.56-.25-5.33-1.83-1.38-3.48-3.06-5.68-3.86ZM156.02,620.77c2.34,2.36,4.75,4.71,7.43,6.69,2.53,1.52,5.39,2.34,8.11,3.43-5.15-3.42-10.23-6.96-15.54-10.12ZM263.03,647.07c1.83,1.1,4,1.11,6.05,1.4,3.64.63,7.25,1.3,10.65,2.86,1.32.59,2.72,1.06,3.97,1.87,3.7,2.81,8.49,3.96,11.43,7.8-1.13-1.98-3.12-3.2-4.57-4.89-1.46-.89-3.08-1.41-4.74-1.73v-1.68c-3.38-1.72-6.69-3.63-10.27-4.91-4.11-.86-8.35-.82-12.53-.71h0ZM252.66,654.23c1.6,2.79,3.77,5.18,5.81,7.66.58,1.05,1.21,2.09,1.84,3.14,1.48,2.14,2.88,4.35,4.09,6.66-.1,1.7.02,3.46-.56,5.12,1.16,2.46-.07,5.16.22,7.73.61,4.83-.23,9.82,1.03,14.58.34,2.64.95,5.25,2.06,7.69.44,1.31.87,2.65,1.3,3.97-.26-1.36-.53-2.72-.81-4.08.55-1.12.5-2.27-.09-3.35-.33-2.66.28-5.52-.81-8.03-.06-7.25-1.43-14.38-1.29-21.63,3.84,3.6,6.53,8.2,9.97,12.15,5.34,6.95,12.41,12.49,16.98,20.05.85,1.49,2.95,2.27,2.56,4.29l.73.05c.36,3.74,3.25,6.92,5.86,9.47-.92-1.65-1.8-3.32-2.55-5.04-.59-1.37-1.43-2.6-2.43-3.68.03-.38.1-1.14.13-1.52l-1.3-.07c.04-.44.13-1.3.17-1.73h-1.1l.25-1.12-.7-.19c-2.9-5.94-7.57-10.76-11.24-16.19-5.22-6.84-9.82-14.11-14.99-20.99-.9-1.24-1.87-2.42-2.78-3.64,1,.13,2.01.27,3.02.44,1.88.7,3.88.79,5.86.96,1.55.46,3.14.79,4.73,1.1,3,.56,5.94,1.36,8.96,1.78,3.84,1.78,7.82,3.39,11.27,5.88-1.26-1.18-2.56-2.31-3.88-3.4-3.95-3.51-9.33-4.96-14.53-5.07-1.57-.53-3.2-.81-4.83-.98-2.9-.61-5.83-1.11-8.65-2.01-.5-.24-1.5-.73-1.99-.97-2.55-3.01-5.52-5.58-8.83-7.7-1.15-.48-2.3-.92-3.45-1.33ZM250.13,663.99c-.24,6.55-.73,13.1-1.88,19.54.02,4.22-.75,8.64.57,12.74-.05-3.63.19-7.26.45-10.87,1.28-6.97,2.89-14.48.86-21.41ZM153.51,680.39c1.32-2.91,1.99-6.52,5.09-8.1-1.6.35-2.47,2.04-4,2.66l.49,1.47c-1.46-.18-2.93-.35-4.4-.42l-.55.95c-4.11.89-7.56,3.43-11.5,4.8-2.59.89-5,2.3-6.77,4.43,3.11-2.42,7.25-2.49,10.48-4.7,2.88-1.56,6.36-2.66,8.42-5.24,1.15.15,2.31.28,3.46.41-.38.78-1.13,2.32-1.51,3.1,0,.29.05.88.07,1.17l-1.16.43c-3.23,4.52-6.27,9.22-8.92,14.12-1.92,3.41-3.16,7.15-4.95,10.63-1.83,3.21-2.87,6.77-4.46,10.1.11-.02.31-.07.41-.09,1.91-5.74,6.42-10.09,9.52-15.18,1.13-1.83,2.3-3.64,3.51-5.4l-.05-.85,1.29.14-.19-2.06c.45.1,1.34.28,1.79.38,1.74-3.46,4.51-6.22,6.58-9.45.94-1.16,1.6-2.89,3.36-2.87-.22,4.83-.04,9.7.21,14.53,1.03,5.02,1.28,10.17.68,15.27.87-4.95,1.58-10.31.27-15.2-.12-5.96-.1-11.91-.2-17.88.7-2.27,1.78-4.38,3.28-6.22-3.47,2.98-7.04,5.82-10.25,9.08Z"/>
    </g>
  </g>
</svg>