<?xml version="1.0" encoding="UTF-8"?>
<svg id="_Слой_1" data-name="Слой_1" xmlns="http://www.w3.org/2000/svg" version="1.1" xmlns:xlink="http://www.w3.org/1999/xlink" viewBox="0 0 623.3 777">
  <!-- Generator: Adobe Illustrator 29.4.0, SVG Export Plug-In . SVG Version: 2.1.0 Build 152)  -->
  <defs>
    <style>
      .st0 {
        fill: #937ab4;
      }

      .st0, .st1 {
        stroke: #c1a7e5;
      }

      .st0, .st1, .st2 {
        stroke-miterlimit: 10.43;
        stroke-width: .09px;
      }

      .st3 {
        fill: none;
      }

      .st1, .st2 {
        fill: #c1a7e5;
      }

      .st4 {
        clip-path: url(#clippath);
      }

      .st2 {
        stroke: #937ab4;
      }
    </style>
    <clipPath id="clippath">
      <rect class="st3" x="0" width="623.3" height="777"/>
    </clipPath>
  </defs>
  <g class="st4">
    <g>
      <path class="st1" d="M467.1.12c2.6-.16,5.23-.09,7.79.43,1.28.48,2.61.8,3.99.96,2.33.72,4.65,1.51,7.05,2.01,9.64,3.63,17.42,10.5,25.96,16.01,3.35,2.34,5.35,6.02,8.17,8.91,2.01,2.67,4.16,5.25,5.99,8.05,1.81,3.25,3.5,6.57,4.92,10.01.58,2.04,1.26,4.05,2.04,6.03.13.58.4,1.74.53,2.32,1.09,2.85,1.45,5.91,2.5,8.78.13,2.02.06,4.1.92,5.99.65,11.42.74,22.88.01,34.29-.45,1.33-.75,2.7-.98,4.07-.8,2.26-1.58,4.54-2.08,6.89-1.23,3.7-2.52,7.38-3.91,11.03-.75,1.63-1.46,3.28-2.04,4.98-2.18,4.1-5.04,7.8-7.11,11.97-.69,1.66-1.37,3.34-1.89,5.06-1.65,5.24-6.24,8.52-8.92,13.16-8.48,11.07-17.48,21.75-27.28,31.69-5.25,5.71-10.35,11.74-16.95,15.97-5.83,5.17-11.08,11.02-15.79,17.24-1.11,1.6-2.33,3.12-3.46,4.71.98-.66,1.97-1.34,2.95-2.03,11.69-7.42,22.3-16.43,31.93-26.36l1.56-.04c.29,1.58,1.15,2.95,1.93,4.34.23.53.69,1.6.92,2.14,1.47,3.73,3.36,7.26,5.03,10.92.23.54.69,1.63.92,2.17.31.98.64,1.97.99,2.96,1.01,2.64,2.06,5.28,3.15,7.89.59,1.68,1.25,3.34,1.93,4.99.32,1.01.65,2.02,1,3.03.61,2.36,1.32,4.7,2.07,7.02.26,1.32.54,2.65.89,3.96.34,1.34.7,2.68,1.13,4.01,1.13,4.91,1.13,9.99,2.1,14.9.25,2.71-.37,5.63.89,8.16.37,12.4.81,24.82-.02,37.2-.99,4.27-1.38,8.7-2.04,13.05-.56,1.89-.71,3.89-1.22,5.8-.5,3.07-1.33,6.08-1.7,9.19-.88,2.94-1.6,5.93-2.09,8.97-.36,1.01-.7,2.03-1.01,3.06-.47,1.26-.88,2.54-1.38,3.8-.62,1.58-1.24,3.18-1.6,4.85-.36-.05-1.08-.16-1.44-.21.32,8.92-2.9,17.53-2.43,26.47.27,5.94-.7,12.06.86,17.87.3,1,.59,2.01.87,3.03,1.99,5.01,5.31,9.3,8.17,13.82.31.51.94,1.54,1.25,2.05.38,3.57.61,7.23,0,10.79-1.18,3.97-2.91,7.74-4.24,11.67-1.73,3.94-3.35,7.93-5.03,11.91-.26.49-.78,1.46-1.03,1.95-.24.51-.73,1.52-.97,2.02l-1,2.04c-1.34,2.34-2.62,4.72-3.92,7.09-.26.48-.8,1.43-1.06,1.91-5.36,8.11-12.11,15.23-19.42,21.6-1.82,1.18-3.67,2.3-5.51,3.44-.5.28-1.51.84-2.02,1.12-2.72,1.17-6.52.62-8.17,3.53-2.53.1-4.91-.82-7.25-1.63-2.14-1.15-4.43-1.94-6.85-2.11-3.85-1.11-7.94-.19-11.89-.58-1.77-.34-3.32.54-4.83,1.28.16.49.5,1.48.67,1.97l-1.52-.6.13,1.53c-.42-.1-1.27-.28-1.69-.38l-.61.99c-.36.07-1.08.2-1.44.26-.75.95-1.83,1.28-3.21,1l-.07.88c-1.71-.2-2.73,1.28-3.86,2.23-3.8,4.13-6.55,9.19-8.44,14.46-.82,1.96-1.63,3.94-2.07,6.03-.5,1.5-.94,3.02-1.4,4.53-.48,2.15-1.14,4.27-1.49,6.45,1.13-1.96,1.8-4.14,2.54-6.27.74-1.63,1.46-3.28,2.06-4.96,2.89-7.19,7.31-14,13.95-18.25.49-.14,1.48-.43,1.98-.57-.18,1.67-.33,3.35-.54,5.03-.9,2.28-1.47,4.68-2.05,7.07-.81,2.96-1.35,5.98-1.89,9.02-2.09,1.91-1.55,5.23-1.85,7.81.09,4.96-.53,10.11.78,14.95.17,7.06-.13,14.14.56,21.18,1.02,4.55.42,9.33.41,13.97-.87,2.25-.82,4.68-1.01,7.04-1.01,1.81-.65,3.99-1.01,5.97-.44,1-.79,2.02-1.07,3.08-.29.99-.58,1.98-.87,2.98-2.93,7.2-6.21,14.27-9.98,21.08-.26.51-.79,1.52-1.06,2.02-1.38,1.63-1.84,4.79-4.49,4.58,0-6.06-2.52-11.81-2.49-17.89-1.16-4.64-1.75-9.39-2.72-14.06-.45,9.08.51,18.15-.28,27.22-.96,3.3-.67,6.86-2.06,10.09-.16.61-.47,1.83-.63,2.44l-.94-.16c-.51,1.87-1.14,3.71-1.84,5.52-.15.53-.45,1.58-.6,2.11-1.16,2.64-2.01,5.4-2.93,8.13-.25.5-.74,1.49-.98,1.99-2.77,3.21-3.47,7.63-6.19,10.88-1.23,1.49-2.51,2.95-3.77,4.42-.41,0-1.23,0-1.65,0,.08-1.86.11-3.71.21-5.55.92-3.95.68-8.05,1-12.08,1.14-3.23.46-6.68,1.03-10,.62-3.29.88-6.63.93-9.98.98-3.54.64-7.24.83-10.87.02-2.94.25-5.97-.67-8.82-.55-2.11-1.12-4.22-2.04-6.18-.2-1.06-.41-2.11-.61-3.15-1.92-4.44.18-9.29.25-13.88.02-3.64.76-7.46-.66-10.94-.9-3.36-1.36-6.88-2.99-10-.36-.95-.71-1.9-1.07-2.83-.33-1.06-.67-2.1-1.04-3.13-.27-1.8-.54-3.58-1.19-5.27-.2,5.6-.62,11.36.66,16.87.12,4.73.04,9.55.95,14.21.31,2.71.27,5.44.03,8.16-.65,1.57-.84,3.27-1.17,4.94-.73,1.73-.64,3.63-.69,5.48l-.9-.19c-1.36,1.95-1.04,4.44-.38,6.58.28,1.35.63,2.68,1.12,3.99.17,2.05.19,4.12.01,6.19-.87,4.63-.8,9.45-.96,14.17-1.16,6.87-.17,13.93-1.2,20.82-.41,2.01-.65,4.06-.91,6.12-1.07,4.52-1.42,9.21-2.31,13.77-.23,1.68-.46,3.37-.71,5.06-1.05,3.03-2.15,6.05-2.99,9.16-2.28,6.01-4.39,12.1-6.93,18.02-2.38,4.31-4.28,8.89-6.9,13.07-.71.75-1.4,1.51-2.09,2.28-.41.04-1.21.11-1.61.14-.96-6.26-.05-12.56.13-18.83,1.17-8.6,1.72-17.35,1.96-26.05,1.18-3.79.38-7.83.65-11.73.67-13.02.29-26.06.41-39.09.07-3.42-.1-6.84-.52-10.24-.46-1.61-.83-3.22-1.32-4.79-.35-1.64-.31-3.39-1.15-4.86-1.24-5.74.24-11.61-.05-17.41,1.11-4.18.34-8.59-1.22-12.54-1.47-3.56-1.5-7.48-2.65-11.14-.22,6.9-1.05,14.11.39,20.87.06,1.72.05,3.45-.05,5.18-1.33,5.2-.43,10.71-1.01,16.04-.8,2.22-.86,4.59-1.01,6.92-1.09,2.85-.66,6.01-1.01,9.02-.18.33-.53.99-.7,1.32-.35,10.24.18,20.49-.28,30.73-1.01,7.25-.56,14.69-1,22.02-1.12,2.9-.66,6.05-.91,9.1-1.32,4.14-.49,8.66-1.36,12.91-.79,3.56-.15,7.29-1.1,10.83-.3,2.75-.48,5.52-.63,8.29-1.06,2.88-.52,6.01-1.07,9-.54,2.62-.85,5.28-.92,7.97-.61,3.2-1.02,6.45-2.96,9.21-1.43.76-2.96,1.22-4.57,1.39-.23-.64-.7-1.93-.94-2.57-.27-2.69-.04-5.46-.87-8.06-.11-2.36-.27-4.73-.98-6.99-.25-1.7-.34-3.42-.99-5.01-.24-2.02-.51-4.05-1.08-5.99-.69-4.34-1.05-8.77-2.06-13.03-.16-2.34-.02-4.75-.91-6.96-.28-4.36-.26-8.77-1.09-13.08-.05-9.39-1.49-18.7-1.38-28.1-1-5.41-.51-10.91-.71-16.36l.8-.22c-.17-2.45.07-4.96-.64-7.33-.14-2.99-.13-6.03-1.01-8.93-.3-2.36-.01-4.85-.95-7.08-.13-2.36-.23-4.75-1.03-7-.71-14.72.03-29.48-.39-44.21-1.37,1.73-.87,4.13-1.32,6.18-.45,1.31-.72,2.69-.93,4.07-.44,1.32-.77,2.69-1.08,4.06-1.42,4.91-.44,10.14-.6,15.19l.8.23c.06,3.51.15,7.02-.1,10.54-1.37,3.79-2.5,7.67-3.38,11.62-1.35,15.39-.09,30.86-.06,46.28,1.61,7.55-.35,15.42,1.42,22.91.19,5.01-.01,10.12.98,15.05.3,2.97-.03,6.05,1.05,8.93.03,3.52.11,7.04.12,10.57-.36,1.06-1.52.92-2.38,1.04-.88-1.82-1.99-3.51-3.17-5.13-2.81-5.33-5.61-10.68-7.89-16.26-.64-1.67-1.3-3.32-1.94-4.97-.38-1.01-.77-2.01-1.15-3.01-.18-1.05-.49-2.05-.92-3.01-.23-1.72-.45-3.43-.75-5.13-1.08-3.88-1.41-7.92-2.3-11.84-.69-3.69-1.07-7.45-1.93-11.11-.29-1.98-.56-3.94-1.14-5.85-2.01-7.94-1.21-16.13-1.62-24.21-1.08-4.92,0-10.07-1.34-14.91-.03-1.41-.03-2.81-.01-4.19,1.62-4.21.25-8.69-.94-12.81-2.32-7.13-1.68-14.74-.94-22.08,1.06-2.91.51-6.07.84-9.09,1.19-4.8.4-10,.14-14.91-.03.65-.11,1.95-.15,2.6l-1.2-.1c-.09,1.2-.19,2.41-.29,3.63-.76,1.56-.72,3.35-.96,5.05-.41.98-.8,1.97-1.16,2.97-1.24,3.25-3.37,6.3-3.29,9.92-.05,1.56,1.2,3.57-.24,4.83,1.4,3.8.64,8.04.91,12.04.46,3.96-1.6,7.47-2.4,11.24-.39,1.28-.71,2.59-1.05,3.91-.9,2.57-.41,5.34-.34,8.01,1.17,3.15.08,6.68,1.43,9.82.03,6.78,1.33,13.44,1.7,20.2.97,2.54.22,5.4,1.27,7.93.36,3.64.34,7.29.3,10.96l-2.4-.88c-2.86-3.56-5.78-7.11-8.29-10.95.16-2.24-.72-4.24-1.84-6.09-.58-1.68-1.32-3.29-2.1-4.86-.25-.54-.75-1.6-1-2.14-.26-.48-.76-1.45-1.02-1.94-2.09-5.88-3.34-12.04-4.73-18.11-1.02-3.92-.04-8.08-1.31-11.94-.06-1.76-.05-3.51.04-5.26,1.2-3.78,1.02-7.86.59-11.76-1.18,2.86-.78,6.03-1.18,9.05-.46,1.31-.81,2.66-1.12,4.03-.41,1.55-.73,3.13-1.11,4.7-.68,4.99-1.96,9.93-1.77,15.02-.6-.12-1.79-.37-2.39-.5-.14-1.14-.44-2.23-.89-3.27-1.03-1.66-2.04-3.33-3.13-4.93-1.01-1.64-2.01-3.29-2.98-4.94-.64-1.39-1.31-2.75-1.99-4.11-.95-2.7-1.84-5.42-3.04-8.02-.62-1.99-1.33-3.94-2.07-5.88-.7-2.98-1.49-5.95-1.99-8.98-.45-4.05.35-8.24-.91-12.18-.04-4.73-.19-9.48.01-14.2.43-1.03.76-2.07,1-3.14.23-.79.71-2.35.94-3.14l-1.24-.22c.17-6.83.02-13.66.11-20.47.06-1.65-.16-3.28-.75-4.81-.16-2.35-.28-4.72-.94-6.98-.61-2.06-1.35-4.06-2.2-6.02-2-4.83-1.86-10.41-4.56-14.93,1.92.29,3.48,1.49,5.07,2.54.46.26,1.37.79,1.82,1.06,3.15,2.99,5.85,6.37,8.23,10,3.03,3.9,3.17,9.05,5.51,13.21-.66-4.02-1.6-8.01-2.87-11.9-.7-1.66-1.39-3.33-2.03-5.01-3.93-4.24-7.41-8.89-11.75-12.75-.4.05-1.2.14-1.6.19l.11-1.28-1.22.39.14-1.28-1.74.35c2.59-3.2-3.01-2.73-4.77-3.99-6.07-1.2-12.46-.48-17.99,2.36-2.62,1.11-5.38,1.86-8.19,2.24-2.87-.99-5.33-2.97-8.14-4.16-6.61-2.53-11.95-7.24-16.73-12.35-4.18-3.52-7.23-8.06-10.31-12.54-1.33-2.03-2.63-4.07-3.96-6.09-2.19-3.91-4.21-7.9-5.93-12.04-.88-2.72-1.9-5.39-2.99-8.03-.62-1.69-1.27-3.35-1.96-5-.24-.54-.7-1.63-.94-2.17-.98-3.01-2.02-6-3.13-8.96-.28-1.82-.45-3.64-.5-5.46l1.19.06c-.1-2.03.45-3.94,1.28-5.77.7-.98,1.38-1.98,2.03-2.99,3.63-6.36,8.81-12.35,9.03-20.05.98-5.8,1.11-11.96,0-17.73-.38-3.35-.23-6.77-.98-10.08-.25-2.31-.14-4.7-.94-6.91-.36-.99-.72-1.98-1.08-2.96-.22-.53-.65-1.6-.87-2.13-.39-.97-.77-1.93-1.16-2.89-1.6-4.93-2.81-9.99-3.92-15.05-.6-3.02-1.21-6.05-2.05-9.02-.19-1.41-.4-2.82-.64-4.22-.93-4.26-1.61-8.6-2.02-12.94-1.48-8.24-1.62-16.69-2.03-25.07-.53-2.52-.96-5.44.21-7.83-.03-1.65-1.05-3.46-.16-5.02.24-3.42.08-6.87.46-10.29.87-3.87.56-7.91,1.16-11.84.76-1.94.73-4.06,1.04-6.09.78-2.66,1.33-5.38,1.96-8.08.77-2.26,1.42-4.56,2.11-6.85.47-1.27.91-2.55,1.4-3.81.82-2.44,1.69-4.87,2.51-7.31.72-1.62,1.44-3.24,2.06-4.9.23-.5.68-1.51.91-2.02.24-.54.73-1.62.98-2.16.48-.9.97-1.81,1.45-2.71.61-1.29,1.32-2.54,2.1-3.74,1.34-2.58,2.73-5.16,4.67-7.35.56-1.3,2.23-.5,2.76.38,3.54,2.76,6.07,6.57,9.66,9.28,5.4,3.9,9.91,9.01,15.83,12.19,1.68.81,3.27,1.79,4.84,2.81-1.87-2.72-4.78-4.68-5.92-7.87-1.89-2.72-3.48-5.66-5.82-8.03-4.29-5.07-10.57-8.09-14.54-13.48-5.52-7.08-12.09-13.3-17.8-20.22-7.94-8.79-13.82-19.43-23.24-26.84-1.01-1.65-2.03-3.3-3.04-4.95-.92-1.71-1.88-3.4-2.87-5.07-.29-.49-.87-1.46-1.16-1.94-1.78-4.33-4.54-8.1-6.98-12.06-1.26-2.01-2.62-3.96-3.92-5.95-.62-1.08-1.26-2.15-1.93-3.2-1.29-4.54-1.63-9.38-.76-14.02-.94-11.01-.81-22.11-.31-33.15.98-3.61,1.45-7.32,2.07-11.01.33-1.04.63-2.09.9-3.14.66-1.96,1.36-3.9,2.11-5.83.69-1.32,1.35-2.66,1.88-4.05.94-2.03,1.89-4.1,3.32-5.84,5.08-5.94,8.67-13.08,14.37-18.51,3.73-3.99,8.03-7.36,12.3-10.78,3.52-2.6,7.34-4.74,11.15-6.9,1.68-.63,3.33-1.35,4.96-2.09,5.52-1.63,11.29-1.54,16.99-1.47-.12.47-.35,1.41-.46,1.87-6.72,4.2-12.09,10.24-16.12,17.01-.28.51-.85,1.51-1.14,2.01-2.87,4.86-5.53,9.86-8,14.94-.78,1.62-1.51,3.27-1.99,5.01-.97,2.59-1.76,5.25-2.02,8.01-1.12,3.51-.79,7.23-.83,10.87.04,3.98-.25,8.05.8,11.95.44,2.06,1.21,4.02,2.12,5.92,3.91,7.32,8.67,14.65,15.94,19.02,3.87,6.1,10.8,9.26,16.1,13.96,3.59,2.39,7.22,4.75,10.96,6.93.85.53,1.7,1.06,2.55,1.6,3.18,1.81,6.34,3.69,9.56,5.46,1.26.71,2.52,1.4,3.79,2.08,4.15,2.39,8.44,4.64,13.06,5.98.97.38,1.95.75,2.93,1.12.52.21,1.55.63,2.07.84,14.46,6.73,29.52,13.74,40.13,26.07,5.66,6.53,9.9,14.54,11.22,23.12.04-2.7.28-5.39.39-8.09,1.14-3.16,1.12-6.62-.02-9.78-.19-1.83-.95-3.48-1.94-4.99-.27-.47-.81-1.4-1.08-1.86-2.22-2.8-4.03-5.92-6.37-8.62-3.46-2.9-6.52-6.32-10.59-8.42-1.04-.68-2.07-1.36-3.1-2.03-4.19-2.61-8.12-5.79-12.47-8.01l-.16-.64c1.62.35,2.89-.41,3.98-1.53,1.93-1.05,3.87-2.07,5.8-3.13l2.04-1c1.69-.58,3.31-1.34,4.93-2.07,1.72-.57,3.42-1.22,5.1-1.9,3.32-1.01,6.69-1.91,9.93-3.22.66-.07,1.99-.19,2.65-.26l.09-.71c3.45-.22,6.8-1.16,10.18-1.88,1.42-.22,2.85-.44,4.28-.7,2.21-.67,4.59-.52,6.77-1.31,2.69-.34,5.47-.21,8.07-1.08,6.2.06,12.29-1.2,18.48-1.09,10.9-.51,21.79-.06,32.69.15,5.24.95,10.65,1.27,15.95,2.08,6.48,1.24,12.85,2.99,19.15,4.94.97.38,1.95.74,2.94,1.1,1.03.3,2.06.59,3.1.88,1.18.5,2.37.97,3.56,1.45,2.88.97,5.57,2.39,8.35,3.6,1.72.98,3.46,1.93,5.23,2.84.79.53,1.59,1.06,2.4,1.59,1.55.93,3.1,1.85,4.71,2.71-5.36,2.47-10.25,5.95-15.11,9.28-4.77,4.91-10.97,8.28-15.12,13.8-.71,1.02-1.41,2.04-2.11,3.05-2.29,3.54-3.61,7.67-3.76,11.89-.3,4.45,1.39,8.71,1.39,13.15.64-1.7.83-3.52,1.02-5.31,4.92-11.24,11.57-22.32,22.09-29.12,2.65-1.67,5.35-3.26,7.99-4.97,2.38-1.25,4.74-2.55,7.1-3.85,1.35-.64,2.68-1.32,3.99-2.04,3.04-1.26,5.97-2.73,8.98-4.07.51-.23,1.52-.68,2.03-.91.51-.24,1.54-.72,2.06-.96,1.65-.68,3.29-1.4,4.91-2.15,6.58-2.8,12.94-6.11,19.3-9.39,4.51-2.53,8.87-5.35,13.25-8.11,8.95-5.81,17.28-12.58,24.79-20.15,2.99-3.43,5.12-7.51,7.57-11.34l1.08-2c.67-1.32,1.35-2.64,2.05-3.96.69-1.31,1.37-2.63,1.99-3.98.63-1.39,1.3-2.77,1.97-4.14,2.98-4.57,1.97-10.59,1.07-15.65-.23-1.69-.51-3.38-1.04-5-.32-1-.64-2-.95-3-.35-1-.7-2-1.04-3.01-.34-1.01-.69-2.01-1.04-3.01-.61-1.68-1.29-3.34-1.97-4.99-5.38-12.41-12.66-24.68-24.33-32.11-.06-.65-.18-1.93-.24-2.58h-.02ZM509.49,41.64c-.41,3.69-.51,7.42-.32,11.13-.05.96.37,1.65,1.25,2.08-.34-4.32,1.18-9.27-.93-13.21ZM508.33,59.09c-.09,1.47-.19,2.95-.28,4.42.9-.81,1.82-1.61,2.73-2.42.52.35,1.57,1.05,2.1,1.4-.7-1.18-1.47-2.31-2.28-3.4h-2.27ZM512.69,71.32c-.57,1.07-1.18,2.12-1.57,3.27.8.67,1.46,2.12,2.72,1.65.23-1.13.37-2.28.43-3.44-.46-.33-1.16-2.25-1.58-1.48ZM499.75,92.7c-.91.87-2.17,2.16-1.58,3.53.92,1.17,1.95,2.24,2.95,3.35.1.76.29,2.29.39,3.06.8-1.64,1.54-3.32,2.15-5.05,1.27-2.95,2.33-5.99,3.16-9.11-2.3,1.51-4.83,2.63-7.07,4.21ZM118.12,94.58c-.07.56-.19,1.7-.25,2.27,1.45,1.09,1.9,2.88,2.59,4.46,2.14-.34,3.84-1.97,5.81-2.83-1.16-.26-2.19.17-3.15.76-.78-.95-1.53-1.91-2.26-2.89-.41-1.16-1.24-3.42-2.74-1.77ZM122.81,103.91c1.95.94,3.53,3.36,1.09,4.86,2.67,2.65,5.04,5.58,7.48,8.46.57,0,1.72.03,2.29.04,2.35,2.51,4.89,4.82,7.64,6.87,2.68,2.03,3.7,5.47,6.3,7.59-1.98-3.54-5.08-6.27-7.44-9.55-2.87-4.14-5.74-8.43-9.67-11.65-.17.72-.52,2.17-.7,2.89-.66-.47-1.99-1.4-2.65-1.87.09-1.36-.27-2.95.87-3.97-.24-.31-.72-.94-.97-1.25-1.45-.74-2.85-1.6-4.25-2.43ZM493.69,104.9c-4.22,6.26-9.8,11.46-14.49,17.34-5.22,6.38-14.74,7.47-19.31,14.51.23,2.22,2.23,3.52,3.72,4.92-.11.74-.32,2.23-.43,2.97,2.18-3,5.7-4.6,7.98-7.5,1.78-2.24,3.86-4.25,5.44-6.65,1.65-2.29,2.89-4.84,3.9-7.47.26,0,.79,0,1.06.01-.47,3.32-1.52,6.56-1.52,9.94-.97,1.49-1.96,2.97-2.91,4.47,1.98-1.78,3.81-3.73,5.5-5.79,1.93-2.75,3.16-5.86,2.79-9.29h.83c.43-.94.87-1.87,1.31-2.8,2.53-3.65,6.51-6.18,8.87-9.88-.78-1.59-.54-4.6-2.75-4.77ZM155.9,138.4c.79.54,1.58,1.08,2.37,1.64,2.36,1.98,4.46,4.24,6.36,6.67,4.99,5.68,10.73,10.65,16.39,15.63,10.33,10.45,18.88,22.44,27.94,33.95,1.15.29,2.34.08,3.51.05-.13.41-.38,1.22-.5,1.63-2.02,1.31-4.32,2.64-5.1,5.07-.51.38-1.54,1.14-2.05,1.52,3.83.38,7.57-.81,10.72-2.96,1.59-.22,3.19-.39,4.8-.52-.86,2.45-2.19,4.69-3.46,6.93-.7.98-1.38,1.97-2.01,3-3.29,4.64-8.46,7.52-13.29,10.34,5.13.55,10.3-.44,14.96-2.6.5-.27,1.5-.8,2-1.06,1.21-.51,2.41-1.04,3.6-1.59-.02.45-.06,1.36-.08,1.82-2.34,1.29-3.93,3.49-5.96,5.16-1.72,1.06-3.57,1.89-5.35,2.86-4.61,1.96-9.47,3.23-14.3,4.52,4-.31,8.15.08,12.08-.84,2.48-.08,4.84-.74,7.04-1.88,2.09-.8,4.1-1.82,5.95-3.08,4.27-3.16,8.09-6.98,10.43-11.82.5-1.42,1.07-2.82,1.62-4.22.39-1.29.71-2.6,1.08-3.89,1.42-4.67.41-9.68.61-14.47-.74,1.48-1.13,3.06-1.19,4.73-.53-2.42-.77-4.88-.98-7.34-.57,2.81-1,5.66-2.13,8.33-1.24,1.78-1.99,4.46-4.47,4.81-.58-5.28.43-10.7-.83-15.92-.4-.65-.79-1.29-1.17-1.93-.99,4.26-3.67,7.91-6.43,11.22-.86,1.38-2.42,1.29-3.86,1.11,1.52-.85,2.22-2.17,2.09-3.95h1.02c-.01-.4-.04-1.19-.05-1.59,1.35-1.36,1.79-3.26,2.33-5.03,1.13-3.48,2.2-7.14,1.51-10.83-2.15-2.75-5.41-4.28-8.05-6.48-3.05-2.21-4.83-5.62-7.41-8.3-2.3,2.3-3.85,5.19-5.97,7.64-.79-1.21-1.59-2.41-2.38-3.61.1-2.55-.19-5.07-.52-7.59-2.27-2.82-5.65-3.62-9.1-3.78-6.23-.71-10.91-5.32-16.1-8.39-2.36,1.09-4.93,1.05-7.47.96.06-1.75.14-3.49.23-5.23-3.54-3.11-7.58-5.77-10.09-9.89.16,3.06,4.87,6.37,1.68,9.2ZM447.39,144.53c-1.46.84-2.93,1.64-4.42,2.41-3.11,1.05-5.96,2.89-9.26,3.34-2.46.45-4.93,1.14-7.04,2.5-.5,1.33-.54,2.77-.79,4.16-.35,1-.68,2-.98,3.02-.52,1.56-1.16,3.08-1.89,4.56-.59-.39-1.76-1.17-2.35-1.57-.23-.53-.7-1.6-.93-2.14-.44-1.51-1.92-1.65-3.23-1.85-.39.5-1.16,1.49-1.55,1.99-1.17.82-2.17,1.83-3.08,2.92-.87.75-1.75,1.48-2.64,2.2-2.57,1.29-5.33,2.6-7.17,4.88-.16,2.58-.25,5.28.79,7.71.35.97.7,1.95,1.07,2.92,2.13,4.39,5.27,8.15,8.19,12.03,4.62-7.09,11.41-12.32,16.6-18.93,4.74-3.84,9.04-8.31,13.85-12.13,4.44-3.52,8.48-7.55,13.13-10.83,1.94-1.55,4.1-2.89,5.78-4.73-1.56.86-2.98,2.08-4.77,2.46-.43-.71-1.28-2.12-1.71-2.82,1.23-2.53,3.71-4.47,3.62-7.53-4.8-1.3-7.36,3.63-11.21,5.41ZM395.97,177.9c-.65,1.37-1.25,2.76-1.98,4.09-1.83,2.82-.99,6.66,0,9.68.04,1.1.13,3.3.18,4.4-2.37-2.19-4.77-4.4-6.59-7.08-.26-.51-.76-1.54-1.01-2.05-1.09-2.4-1.36-5.06-2.42-7.45-.36,5.08-.77,10.34.62,15.3.31,1.02.63,2.03.94,3.06,3.25,9.06,9.27,17.67,18.24,21.78,3.91,2.05,8.37,2.49,12.62,3.45-5.68-2.16-11.69-4.6-15.46-9.64-.35-.3-1.06-.9-1.41-1.2.55.07,1.65.2,2.19.26,2.63.98,5.39,1.56,7.9,2.84-1.74-1.79-3.77-3.3-5.35-5.24-1.32-2.69-2.83-5.28-3.84-8.11-.44-.67-1.32-2.02-1.76-2.7,2.04.27,4.04.83,6.02,1.39,1.58.87,3.27,1.52,5.02,2.01,1.99,1.06,4.02,2.05,6.11,2.93.41.25,1.22.77,1.63,1.02-1.79-3.25-5.63-4.84-7.71-7.96-4.33-3.77-8.44-8.1-10.39-13.63-.2-.55-.61-1.66-.81-2.22-.36-.98-.72-1.96-1.05-2.93-.22-1-.79-1.66-1.69-1.99ZM360.82,213.73c.51,2.09,1.15,4.15,1.64,6.26.42,1.25.83,2.53,1.29,3.78.35.96.7,1.93,1.06,2.9.94,2.37,2,4.69,3.19,6.95.9,1.72,1.87,3.41,2.9,5.05,3.85,5.76,9.15,10.44,15.06,14,1.98.79,4.46,3.66,6.41,2.45-3.32-1.54-7.64-3.04-7.86-7.43,6.41,2.56,13.16,6.36,20.29,5.1,1.61.23,3.27.77,4.77-.17,1.72-.17,3.43-.41,5.1-.89,1.67-.15,3.36-.31,4.95-.9,4.24-1.62,8.08-4.26,11.2-7.55-3.42,2.01-7.09,3.59-10.89,4.75-1.43.15-2.84.33-4.24.56-6.85,1.52-14.19.05-20.82-1.99-1.44-.52-2.85-1.09-4.27-1.6-11.84-5.98-21.13-16.32-27.16-28.02-.46-1.45-1-2.88-1.51-4.31-1.91-5.41-2.76-11.15-3.27-16.85-.52,6.01.62,12.09,2.15,17.9ZM259.57,201.38c-.84,3.53-1.77,7.03-2.85,10.5-.24.53-.72,1.58-.95,2.1-2.29,4.84-4.91,9.55-7.89,14-3.65,5.86-8.77,10.68-14.03,15.08-3.72,1.59-7.61,2.81-11.62,3.48l-.22.6c-1.78,0-3.57.19-5.22.9-4.08.31-8.18.29-12.26-.04-1.67-.74-3.49-.81-5.29-.83l-.18-.61c-1.57-.42-3.08-.96-4.62-1.44-2.38-1.22-4.5-2.85-6.73-4.31,4.52,5.77,10.76,10.31,17.96,12.01,6.67,1.99,13.97,2.45,20.75.78,1.07-.19,2.13-.43,3.18-.71.99-.37,1.99-.72,2.99-1.07,10.14-4.98,16.84-14.83,20.94-25.07.35-.99.7-1.98,1.04-2.97.37-.99.74-1.98,1.1-2.97,1.97-6.32,2.79-12.91,4.33-19.32-.11-.03-.32-.07-.43-.1ZM486.22,262.88c0,1.68.07,3.39.53,5.03,1.35,5.9,2.55,11.92,2.38,18,.21,8.88,1.74,18.19-1.46,26.72-.43-.01-1.27-.04-1.69-.06.46-7.25-.86-14.52-2.3-21.61-.31-1.32-.6-2.63-.95-3.93-.35-1.34-.66-2.67-.99-4-.46-1.98-1.06-3.92-1.7-5.84-.14.04-.44.12-.58.15,1.2,4.4,1.37,9.01,2.45,13.43.31,3.39.8,6.78,1.97,10,.79,4.97,1.94,9.96,1.5,15.03.2-.51.59-1.52.79-2.03.52-.1,1.58-.31,2.1-.41.75-2.9,1.92-5.67,2.47-8.63,1.12-2.84.21-6.08,1.39-8.85-1.5-5.01.26-10.67-1.46-15.77-.63-2.7-1.24-5.41-1.93-8.09-.53-3.12-1.37-6.18-2.52-9.13ZM134.6,266.84c-1.41,3.92-2.6,7.91-2.86,12.1-1.56,8.22-2.14,16.74-1.75,25.15,1.41-2.16,1.08-4.86,1.49-7.29.99-3.23.62-6.65.96-9.97,1.02-4.61.67-9.49.78-14.2-.37-2.09,2.13-3.73,1.38-5.78ZM154.73,290.94c-.69,1.92-.55,4.01.07,5.93-.39,1.32-.56,2.68-.51,4.06.81,5.48-.04,11.62,2.55,16.85.34,2.04.91,4.25-.01,6.25-2.2,5.05-4.31,10.16-7.1,14.93l-.84,2.16c-2.2,3.17-2.44,7.11-3.59,10.69-.2,1.06-.39,2.13-.57,3.21-.79,2.04-1.38,4.16-1.86,6.31l-.73.08c-.65,5.51.16,11,1.59,16.33.95,2.88.21,6.76,2.32,9.05.19,4.33-.76,8.87.73,13.04.23,9.39-.64,19.37,4.01,27.93,1.09,1.94,2.2,3.84,3.39,5.73-.27-4.14.47-8.44-.73-12.46-.2-2.35-.42-4.71-1.06-6.98-.11-.96-.23-1.9-.34-2.84.21-.02.62-.04.83-.05.35,1.34,1.04,2.54,1.84,3.67,1.53,4.84,3.46,9.59,6.1,13.94,2.3,4.45,5.86,8.04,9.91,10.96,4.23,3,8.11,6.52,12.62,9.16-4.16-3.4-7.39-7.73-10.69-11.93-2.86-3.84-6.04-7.47-8.3-11.73-.63-1.39-1.24-2.78-1.89-4.14-.23-.52-.69-1.57-.92-2.09-.32-1.01-.65-2.01-1-2.99-.34-1.34-.56-2.69-1.12-3.95-.29-1.33-.6-2.66-1.01-3.94-.3-2.04-.32-4.14-1.03-6.09-.33-6.29-1.09-12.63-.4-18.92.88-5.25,2.7-10.3,4.45-15.31,4.01-9.28,9.99-17.93,18.3-23.82-1.45.5-2.86,1.1-4.27,1.7-1.94,1.08-3.87,2.16-5.74,3.36-6.65,4.26-12.33,9.97-17.01,16.29-.41.09-1.24.27-1.65.36.2-1.97.27-3.95.34-5.92.81-3.31,1.14-6.73,2.07-10.03.95-3.78,2.4-7.39,3.91-10.98,1.52-4.4,5.36-8.08,4.99-12.98,1.81-2.24,3.45-4.62,4.97-7.07,3.54-4.73,7.45-9.17,11.32-13.61-4.16,3.15-8.45,6.15-12.48,9.49-1.47,1.36-3.59,2.74-3.15,5.05-.19-.03-.55-.09-.74-.12-.69-5.2-1.44-10.42-2.93-15.46-.15-1.39-.41-2.77-.87-4.09-.34-3.71-.96-7.39-1.99-10.98-.38-2.33-.76-4.65-1.37-6.92-.2,2.94-.06,5.93-.41,8.89ZM462.95,288.97c-1.04,3.88-1.44,7.9-2.35,11.82-.28,1.72-.49,3.44-.72,5.18-1.07,4.57-2.32,9.28-1.56,14.01-6.55-7.3-14.76-12.77-22.27-18.98,3.34,3.53,7.06,6.73,9.85,10.77,6.07,6.77,10.6,14.73,16.37,21.74,1.21,1.54,1.87,3.42,2.66,5.2,2.14,6.33,4.74,12.56,5.89,19.18,1.39,4.75,1.74,9.67,1.41,14.59-.42,0-1.27-.03-1.69-.04-3.26-11.85-12.78-22.06-24.7-25.49,3.92,3.76,7.8,7.61,10.71,12.26,1.17,1.84,2.31,3.7,3.42,5.59.61,1.34,1.26,2.67,1.93,3.99.67,1.63,1.35,3.27,2.05,4.9.58,1.76,1.21,3.5,1.82,5.26,3.43,8.34,1.16,17.45.1,26.03-.43,1.33-.71,2.71-.9,4.1-.75,2.63-1.42,5.28-2.04,7.94-1.7,3.87-3.28,7.85-5.78,11.31-3.67,4.92-7.05,10.26-12.17,13.84-.53.2-1.58.6-2.11.8-1.21.58-2.41,1.2-3.59,1.84v-1.92c-1.88.33-3.67.95-5.41,1.71-1.31.52-2.64.98-3.96,1.45-1.01.31-2.02.65-3,1.02-2.38.34-4.74.83-7.12,1.14-5.42.37-10.73-1.1-16.15-1.08-5-1.66-10.08-3.11-14.99-5-.5-.26-1.49-.79-1.99-1.05-1.84-1.05-3.74-2-5.64-2.92,2.84,2.31,5.83,4.43,8.87,6.5,2.39,1.5,5.22,2.95,5.84,5.99-1.04-.16-2.07-.33-3.09-.5-1.26-.51-2.6-.82-3.9-1.14-1.67-.72-3.34-1.4-5.05-1.96-.51-.25-1.54-.76-2.05-1.01-13.39-5.69-23.27-16.97-31.13-28.85-.61-1.37-1.27-2.72-1.98-4.03-.98-2.5-1.34-5.16-1.41-7.83-.18,0-.55.03-.73.04.02,4.83-.99,9.99,1.42,14.45.68,1.36,1.36,2.72,2.07,4.09,2.46,4.12,4.61,8.49,7.65,12.24,4.73,4.98,10.1,9.53,16.28,12.63.55.24,1.65.72,2.19.96,3.09,1.63,6.18,3.5,9.84,3.02,1.19.78,2.64.8,4,1.03,7.73,2.72,16.01,1.43,24.02,1.76,2.63,1.76,5.82,1.92,8.82,2.61,3.36.25,6.75.34,10.13-.04,4.02-.91,8.14-1.57,11.94-3.3,5.46-2.77,10.68-6.75,13.87-12.06-3.57,3.25-6.97,6.85-11.67,8.48-3.34.24-6.68.4-10.02.51-.77.66-1.54,1.03-2.16.07,1.35-.14,2.33-.8,2.94-1.99.51-.26,1.52-.77,2.02-1.03.5-.24,1.51-.71,2.02-.94.48-.26,1.45-.77,1.94-1.03,9.22-3.95,18-10.55,22.04-19.98.54-1.07,1.12-2.13,1.74-3.15,1.15-1.2.71-3.01.96-4.49.25,0,.73-.04.98-.05-.21,3.82-.34,7.65-.03,11.48,1.75-3.01,3.55-6.03,4.7-9.34,2.34-5.28,1.32-11.19,1.37-16.77-1.46,1.58-.48,4.29-2.31,5.59.03-2.76.23-5.52.5-8.28,1.44-4.29-.03-8.96.54-13.39.46,1.53.83,3.11,1.31,4.66.14-4.47-1.37-9.28,1-13.4,1.16-2.11.95-4.58,1.17-6.9,1.28-5.43,1.34-11.62-1.02-16.82-.2-1.68-.45-3.35-.95-4.96-.38-4.14-1.63-8.1-2.92-12.04-.89-2.07-1.85-4.11-3.11-5.97-.88-1.46-1.72-2.94-2.61-4.39-2.48-3.9.87-8.78-1.43-12.6-.3-1.36-.59-2.71-.94-4.04-.8-8.3-.52-16.64-.59-24.96-.21-1.08-.45-2.15-.72-3.2-.09,1.71-.24,3.42-.39,5.13ZM244.9,315.19c7.43,7.71,14.48,15.83,22.42,23.03,4.29,4.29,9.27,8.2,12.23,13.61-7.19-3.66-12.72-9.84-19.68-13.84,3.38,2.09,6.05,5.04,8.92,7.74,4.9,6.27,11.63,10.78,16.69,16.89-.47-1.94-1.16-3.81-1.86-5.66-.95-3.14-2.46-6.05-4.12-8.87-1.26-2.07-2.61-4.08-4.03-6.04-8.01-11.11-18.52-20.33-30.56-26.87ZM201.99,325.29c5.68.91,11.11,3.04,16.68,4.49,2.05.81,4.37,1.3,5.83,3.11-.41.37-1.23,1.11-1.64,1.49-6.99-.7-14.24-3.17-21.18-1.32-2.46.14-4.93.33-7.33.92-2.62.64-5.52-.09-7.93,1.35,4.48.11,8.97-.34,13.44.25,8.95,1.54,17.88,3.35,26.94,4.14,1.28.41,2.59.75,3.91,1.06,2.33,1.16,4.55,2.54,6.96,3.52,3.14.09,6.32.09,9.29,1.33.8.54,1.61,1.08,2.42,1.63,1.42.86,2.86,1.72,4.33,2.51.49.25,1.49.74,1.98.99,2.67,1.73,5.35,3.47,8.21,4.89.81.49,1.63.98,2.45,1.48,2.32,1.26,3.76,4.7,6.67,4.38,2.46,2.23,4.85,4.57,7.59,6.48-.62-1.68-1.4-3.29-2.18-4.9-3.34-6.36-8.87-11.18-14.2-15.85-6.96-6.81-15.42-12.14-24.67-15.23-1.02-.36-2.03-.7-3.05-1.04-2.88-.88-5.84-1.47-8.75-2.27-3.4-.66-6.77-1.45-10.25-1.61-4.81-.95-9.94-.57-14.51-2.74-.25.23-.76.69-1.02.92ZM396.92,327.08c-3.59,1.59-7.57.56-11.13,1.85-4.35,2.02-8.91,3.6-12.98,6.16-4.77,2.33-8.69,5.95-12.8,9.23-.6.11-1.79.32-2.38.42.37-.4,1.12-1.21,1.49-1.62l.06-.75.8-.12c3.04-6.39,9.07-10.89,13.48-16.36-5.73,4.44-10.59,9.88-15.92,14.78-6.27,5.5-11.62,12.1-15.62,19.42-.26.53-.76,1.59-1.01,2.11-.69,1.3-1.37,2.6-2.05,3.9-1.11,2.15-2.01,4.4-2.88,6.66,2.36-5.19,6.39-9.29,10.66-12.96,1.34-.4,2.64-.93,2.88-2.5.28,0,.84-.03,1.13-.04-1.65,2.23-3.15,4.58-4.71,6.88-1.7,2.18-3.55,4.25-5.15,6.51,2.19-2.38,4.54-4.59,6.86-6.84,4.14-3.26,8.23-6.64,12.87-9.21,4.98-2.81,10.4-4.92,16.09-5.71,1.47-1.19,2.74-2.63,4.36-3.63,2.42-2.78,6.48-2.8,9.56-4.6,5.58-1.69,11.69-.46,17.12-2.87,5.16-.2,9.95-2.72,15.16-2.44,4.99-.25,10.03.26,14.76,1.93-2.83-2.22-6.53-2.7-9.96-3.33-3.5-1.33-7.33-.27-10.91-1.27-5.2.92-10.59.17-15.74,1.48-2.26.18-4.46.69-6.58,1.47-.05-.39-.15-1.17-.2-1.55-2.06.1-4.1.29-6.16.39.01-.29.02-.86.02-1.15l.84.06c.9-.59,1.8-1.17,2.7-1.74,1.69-.56,3.35-1.22,4.99-1.92,1.01-.28,2.03-.57,3.05-.87,1.73-.51,3.46-1.08,5.15-1.74,2.25-.89,4.71-.89,7.01-1.61-4.97.12-10.01.5-14.87,1.58ZM316.9,406.06c-.37,1.01-.72,2.04-1.06,3.07-.35.97-.67,1.95-.98,2.94-1.02,2.47-2,4.96-2.92,7.48-.62-.02-1.85-.05-2.47-.06-.64-1.14-1.27-2.28-1.92-3.41-.23-.51-.7-1.54-.94-2.06-.27-.49-.8-1.48-1.07-1.97-.3-1-.61-2-.94-2.97-.33-1.35-.68-2.69-1.04-4.02-.24-1.39-.48-2.77-1.01-4.07-.34,2.67-.37,5.38-.7,8.06-.45,1.31-.74,2.68-.97,4.06-.82,2.26-1.58,4.55-2.11,6.9-1.71,3.57-3.08,7.31-5.35,10.6-2.94,5.95-5.59,12.11-7.7,18.4-1.84,3.93-3.52,7.93-4.89,12.06-.26.49-.76,1.47-1.02,1.96-.25.51-.76,1.52-1.02,2.03-1.75,2.95-3.35,5.98-5.03,8.98-2.16,3.26-2.32,7.31-3,11.06-.44,1.3-.69,2.66-.91,4.02-.68,2.27-.85,4.65-1.02,7.01-1.69,4.2-.14,8.65.88,12.8.85,2.07,1.91,4.05,3.1,5.95,3.44,4.92,8.54,8.61,13.93,11.14,2.01,1.32,3.97-.38,5.85-1.1,2.05-.91,4.08-1.89,6.03-3.01.5-.24,1.48-.74,1.97-.99,3.14-1.5,6.06-3.4,9.07-5.16,2.74.24,4.74,2.85,7.21,4.04,5.39,3.57,12.18,9.87,18.75,5.06.48-.27,1.42-.79,1.89-1.06,4.37-2.71,9.37-5.36,11.47-10.36,2.19-5.05,4.31-10.85,2.58-16.33-.21-3.01.12-6.15-.91-9.05-.95-3.33-1.61-6.77-3.05-9.96-.39-2.09-1.19-4.07-2.06-6-1.23-4.09-2.93-8.01-4.41-12.02-1.06-3.16-3.78-5.3-5.6-8-1.74-3.26-3.42-6.55-4.99-9.9-.25-.54-.75-1.61-1-2.14-.21-.5-.65-1.5-.87-2-.26-.5-.79-1.49-1.05-1.98-2.74-5.72-4.56-11.79-6.07-17.93-.2-1.07-.5-2.11-.89-3.11-.94-5.36-2.15-10.69-1.81-16.16-1.07,2.25-1.45,4.76-1.91,7.19ZM277.29,406.95c-.78,3.15-1.9,6.2-3.36,9.11-5.13,9.48-12.07,18.1-21.1,24.1-6.67,4.3-13.85,8.2-21.78,9.47l-.18-1.84c4.29-1.56,8.12-4.06,11.59-7,1.87-1.33,3.54-2.91,5-4.69-3.71,2.6-7.33,5.4-11.62,7-1.36.28-2.71.61-4.02,1.04-4.89,1.61-10.2,1.14-15.01,3.05-4.75.62-9.56.31-14.31-.06-1.6-.57-3.27-.82-4.95-1.01-3.65-1.22-7.45-2.07-10.8-4.06,4.15,5.08,9.85,8.61,15.98,10.79.49.26,1.45.77,1.94,1.03.58.24,1.75.72,2.34.96.13.44.4,1.32.53,1.76-1.92.32-4.6-.84-5.9,1.01l-.87-.77c-6.28-.8-12.45-2.42-18.36-4.7-2.96-1.25-5.75-2.85-8.71-4.1,5.73,4.74,11.16,11.16,19.08,11.86,3.86.77,7.86,1.54,11.8.92,2.34-.3,4.91.34,7.01-1.04,4.26.52,9.12-1.04,13,.72,3.95-1.62,8.06-2.85,11.97-4.64,1.31-.72,2.64-1.41,3.98-2.06,1.34-.63,2.66-1.29,3.99-1.94,3.79-1.81,7.5-3.79,11.02-6.09,5.74-4.39,11.2-9.32,15.13-15.45-.65.41-1.96,1.22-2.61,1.62.09-.74.27-2.22.37-2.96l.75-.71c1.7-2.65,3.16-5.46,4.31-8.4,1.72-4.14,4.14-8.25,3.79-12.9ZM397.88,493.19c-4.12,2.82-7.34,6.74-9.98,10.96-1.03,1.66-2.02,3.34-2.99,5.04-1.46,3.5-3.02,6.98-3.96,10.69,2.74-6.97,6.7-13.38,11.51-19.1,4.8-6.13,11.16-10.73,17.11-15.64-4.26,2.11-7.74,5.43-11.69,8.05ZM249.18,549.92c.02,4.32-.81,8.57-1.12,12.86,2.32-6.18,2.33-12.97,2.4-19.5-.14-1.75-.26-3.48-.42-5.2-1.34,3.79-.46,7.91-.86,11.85ZM287.25,568.98c2.06-5.59,2.87-11.95,1.72-17.83-1.7,5.84-.09,12-1.72,17.83ZM330.04,558.07c-.12,4.09.96,8.06,1.55,12.08.49-5.72-.68-11.52-.59-17.29-1.41,1.36-.82,3.46-.96,5.21ZM386.46,587.54c.13-.01.39-.01.52-.02,1.81-7.07,1.6-14.39,1.28-21.62-2.2,6.97-.33,14.5-1.8,21.64ZM232.94,576.96c-.17,4.08-.13,8.39,1.92,12.06-1.24-6.84-.27-13.84-.68-20.75-1.33,2.7-1.06,5.77-1.24,8.7Z"/>
      <path class="st0" d="M586.74,317.54c1.33-.15,2.66-.26,4-.36-.31,1.82-.82,3.6-1.49,5.32l-.74-.13c-.41,1.25-1.03,2.42-1.63,3.59-2.02,6.18-2.49,12.64-2.86,19.08-1.14,5.21-1.74,10.73-4.66,15.33,1.74-.81,3.66-1.73,5.63-1.1,1.41,1.17,1.21,3.01,1.25,4.67-1.28,1.58-2.26,3.37-3.23,5.16-1.67,3.15-2.84,6.59-5.13,9.39,1.99.24,3.96.67,5.95.99-.81,2.3-2.14,4.4-2.76,6.77-.31.23-.92.71-1.23.94h2.04c-2.01,4.93-6.62,7.86-10.22,11.54-.82.76-1.8,1.31-2.8,1.79,1.62-.88,3.06.09,4.31,1.14.33.28.98.83,1.31,1.11-3.56,8.45-10.73,14.75-18.48,19.32-3.02,1.53-5.61,4.66-9.24,4.32,1.89-.13,2.71,1.02,2.89,2.88-5.47.57-10.64,2.82-15.74,4.76-1.38.59-2.71,1.28-4.01,2.01-2.82,1.02-5.41,2.55-8.01,4.03-1.69.54-3.33,1.22-4.98,1.87-2.23.8-4.41,1.71-6.57,2.66-.09-4.18.27-8.45-.73-12.54-.78-4.32-2.49-8.51-5.02-12.1-1.47-3.86-2.16-7.92-2.92-11.96-.55-3.79-1.62-7.52-3.18-11.02-.31-3.06-.21-6.14.13-9.2.65-1.96.87-4.01,1.04-6.05.28-1.07.53-2.15.74-3.23,1.45.28,2.75-.3,3.46-1.6,1.71-2.85,2.6-6.08,3.84-9.14,1.03-2.32,1.99-4.65,2.87-7.02,1.53-4.17,3.68-8.11,7.22-10.92.63-.74,1.28-1.47,1.93-2.19.49-.27,1.46-.81,1.95-1.08.77.05,2.32.16,3.09.22.9,1.42.24,3.28.47,4.9,2.37-5.95,6.75-10.77,11.44-15.01,1.94-1.96,4.84-1.55,7.34-1.37.2,1.23.47,2.5.78,3.73,2.96-4.65,6.9-8.89,11.85-11.44,4.32-.89,8.75-.96,13.08-1.75,1.01-.38,2.04-.72,3.08-1.04,4.79-2.13,9.27-4.95,13.94-7.31ZM550.89,336.45c-.61,1.86-2.77,2.95-2.53,5.13l-.94-.05c-.06.61-.19,1.83-.26,2.44-2.2,4.04-3.13,8.63-4.24,13.06-1.36,5.59-1.74,11.39-1.64,17.13-4.14,5.17-7.76,10.72-11.92,15.87.26-7.74-.72-15.45-.47-23.19.05-1.34-.13-2.66-.48-3.94-1.39,8.93-1.59,18-.83,27.03.51,4.58-2.63,8.24-4.61,12.06-.76,1.32-1.45,2.67-2.05,4.07-1.08,1.72-2.12,3.48-2.83,5.4l-.57.06c-1.11,2.83-2.89,5.41-3.43,8.45,1.7-3.22,3.79-6.21,5.38-9.5l.73.04c.87-1.54,1.73-3.09,2.5-4.68,1.12-2.61,3.02-4.67,5.98-5.03,1-.31,2-.64,3-.98,4.37-1.23,8.84-2.25,13.05-4,1.69-.6,3.37-1.27,5.02-1.99.5-.25,1.49-.75,1.99-1,2.02-.91,3.97-1.96,5.92-3.02,2.2-1.32,4.17-2.97,5.99-4.78-2.91,2.21-6.28,3.65-9.63,5.03-3.05.92-6.02,2.03-9.02,3.08-2.03.58-4.04,1.24-6.02,1.93-1.03.3-2.04.62-3.04.96-1.01.31-2.01.63-3,.95-2.03,1.17-4.04,2.44-6.33,2.99,3.46-4.64,6.19-9.91,10.51-13.86.31-1.46,1.46-2.44,2.43-3.48,2.38-1.26,4.67-2.65,7.03-3.94,10.2-4.97,21.7-8.25,29.98-16.38-2.46,1.71-4.96,3.36-7.5,4.95-2.74,1.16-5.56,2.17-8.07,3.79-4.16,2.78-9.19,3.53-13.72,5.46l.04.98c-1.3-.05-2.6-.07-3.89-.06l-.21-.95c.61.05,1.83.16,2.45.21-.07-.45-.22-1.37-.29-1.82,6.38-6.36,11.73-13.81,15.41-22.04.6-1.35,1.22-2.68,1.86-4,1.18-1.48,2.21-3.14,1.67-5.11.7-.82,1.4-1.64,2.07-2.5-2.85,1.21-3.79,4.4-5.45,6.75-.88.82-1.67,1.72-2.27,2.76-3.65,6.13-8.85,11.15-12.87,17.01-.94,1.26-1.64,2.94-3.41,3.1.08-1.01.24-3.03.31-4.05.88-2.57.7-5.32.92-7.99.88-2.62,1.54-5.31,2.1-8,.96-2.8,2.22-5.56,2.53-8.53l.8-.07c.02-.63.07-1.9.1-2.54,1.03-1.31,2-2.68,2.65-4.23.84-.21,1.69-.42,2.54-.62-2.28-1.75-2.86.28-3.44,1.66Z"/>
      <path class="st0" d="M18.05,342.36c4.05-.15,7.18,2.7,10.66,4.31,3.61,1.75,7.25,3.42,10.94,5.01,1.63.72,3.25,1.46,4.9,2.15.52.23,1.57.7,2.09.93,3.62,1.47,7.15,3.38,11.08,3.96.54.16,1.64.46,2.18.62.06.38.16,1.14.21,1.52-.05-.84-.16-2.52-.22-3.36,1.13-.42,2.26-.81,3.4-1.18l-.59-1.32c.98.24,1.96.47,2.94.71,5.34,3.25,10.07,7.77,13.33,13.13,0-.86.02-2.58.02-3.44,2.7,1.39,6.39-.13,8.48,2.46,3.71,3.12,5.03,7.87,7.47,11.87-.32-1.4-.66-2.8-.95-4.18,1.93-.16,3.88-.18,5.81-.09,2.76,2.75,5.01,5.95,6.92,9.35,2.61,6,4.85,12.18,8.06,17.9.46,2.12,1.21,4.18,2.05,6.19.02.78.07,2.35.1,3.13-1.45,4.23-2.32,8.65-3.3,13.01-1.18,2.79-.7,5.94-.83,8.91.14,2.99-.21,6.14.84,9.02.31,2.33.71,4.66,1.11,6.99.08,1.73-1.38,3.98.5,5.25l-1.44.53c1.86,2.59,1.05,6.25,2.53,9.14-3.36-.08-6.76-.37-9.94-1.59l-2.82-1.53c-1.63-.81-3.35-1.41-5.12-1.79-1.94-.62-3.96-.74-5.96-.84-4.46-1.38-9.38-.51-14.02-.99-1.61-.73-3.36-.8-5.08-.95-1.54-.81-3.33-.76-4.99-1.08-1.26-.59-2.63-.8-3.99-.91-3.19-1.74-5.98-4.18-8.2-7.04-1.45-2.87,2.85-1.54,4.28-1.72-1.38-.42-2.75-.87-4.12-1.27-.48-.27-1.44-.81-1.91-1.09-3.87-3.69-7.69-7.44-11.67-11.04.06-1.03.17-3.09.23-4.12,1.45-.11,3.25,1.05,4.53.06-1.15-.97-2.84-.12-4.19-.24-.52-.39-1.56-1.16-2.08-1.55-.24-.49-.74-1.45-.99-1.94-1.8-2.83-4.26-5.16-6.94-7.14-1.8-2.07-2.9-4.58-3.43-7.25.59-.31,1.78-.93,2.38-1.24,1.44.01,2.88.04,4.32.08-2.97-2.75-5.19-6.18-7.36-9.58-1.15-3.3-2.01-6.69-2.99-10.04-.04-.85-.14-2.55-.18-3.4,1.29-.67,2.62-1.28,4.1-1.35-.25-.77-.49-1.52-.74-2.27-.36-1-.73-1.99-1.12-2.97-.3-1.01-.61-2.01-.92-3-.29-1.35-.63-2.7-1.06-4.01-.23-1.38-.41-2.78-.96-4.07-.19-1.53-.34-3.06-.45-4.59l-.69-.11c-.04-1.46-.23-2.9-.8-4.25-.34-1.32-.66-2.64-1.04-3.94-1.1-3.55-2.61-6.95-4.4-10.21.01-.88.04-2.63.05-3.51ZM47.6,374.88c2.07,2.03,4.04,4.21,5.19,6.91,5.72,7.74,12.15,14.94,18.83,21.85-3.9-.13-7.56-1.6-11.36-2.37-5.71-1.46-11.71-2.11-17.01-4.86,2.99,2.41,6.76,3.49,10.42,4.46,1.31.36,2.63.69,3.95,1.03,1.26.46,2.55.8,3.79,1.31,1.07.19,2.15.4,3.22.63,3.13.91,6.33,1.56,9.43,2.64,4.62,5.41,8.89,11.19,12.58,17.28.64.8,1.93,2.4,2.57,3.2-7.96-.55-15.91-1.38-23.75-2.92-2.96-.9-5.91-1.83-8.85-2.84,3.58,2.46,7.8,3.82,12.02,4.73,1.93.43,3.88.7,5.81,1.15,5.04.6,10.13.81,15.17.13,2.93,5.15,6.78,9.73,9.87,14.81-1.16-3.87-3.31-7.34-5.22-10.88-1.1-1.89-2.26-3.75-3.42-5.61-2.62-4.08-5.32-8.13-7.61-12.41-1.05-3.3-1.36-6.72-1.85-10.12-.32-4.62.49-9.4-.92-13.9-.19-2.87-.91-5.69-2.27-8.23,1.78,8.99,2.45,18.13,2.05,27.3-1.09-.9-2.07-1.89-2.94-2.99-1.6-3.23-4.54-5.45-6.81-8.18-4.27-5-9.33-9.28-13.39-14.48-4.91-5.91-11.53-10.15-16.16-16.29,1.55,3.23,3.99,6.2,6.67,8.65ZM94.43,395.94c-.16,1.28-.17,2.56-.02,3.85,1.34,7-.04,14.2.95,21.24.48,1.24.82,2.52,1.01,3.84.42-7.64,1.04-15.54-1.01-23.01-.4-1.97-.25-4.03-.93-5.92Z"/>
      <path class="st2" d="M303.52,426.4c.78-.02,1.56-.03,2.34-.04.07,1.21.34,2.38.84,3.49.25.51.76,1.53,1.01,2.04.93,1.71,1.86,3.43,2.89,5.09,2.6-2.7,4.23-6.15,5.9-9.47.4-.04,1.18-.12,1.58-.16.17.62.52,1.84.69,2.45,2.4,6.32,6.33,11.88,9.16,17.99.48,1.4,1.15,2.73,1.84,4.05,1.32,2.97,2.74,5.9,4.11,8.86.25.54.74,1.63.98,2.17,1.16,2.73,2.39,5.43,3.98,7.94.68,1.3,1.36,2.6,2.06,3.89,2.65,5.53,4.68,11.33,5.9,17.34.41,2.66.48,5.36,1.16,7.98-1.08,2.26-1.31,4.81-2,7.21-1.63,5.03-6.05,7.99-9.2,11.97-2.58,1.23-5.43,1.44-8.23,1.09-7.68-2.56-13.25-9.4-14.97-17.22-.27-1.66-.6-3.31-1.09-4.92-.22-1.38-.49-2.76-.89-4.08-.27-2.02-.52-4.03-1.01-6-1.24,4.63.65,9.75-1.69,14.1-1.21,2.53-2.41,5.06-3.4,7.69-1.42,5.25-5.51,9.09-10.09,11.71-3.36,2.22-5.69-2.19-9.06-2.33-4.98-3.27-9.89-7.37-11.97-13.15-2.53-5.79-1.41-12.33.09-18.23.37-1.03.71-2.06,1.05-3.09.32-.98.62-1.96.9-2.94,1.01-2.37,2-4.74,3-7.11.66-1.32,1.31-2.63,1.95-3.95.67-1.35,1.36-2.69,2.05-4.02,1.4-2.63,2.67-5.33,4.04-7.98.25-.51.75-1.54.99-2.06,1.71-3.28,3.46-6.54,5.11-9.86.25-.5.76-1.5,1.01-2,.68-1.32,1.33-2.65,1.87-4.03,1.71-5.11,6.19-9.02,7.06-14.42Z"/>
      <path class="st0" d="M544.75,438.86c1.68-.27,3.36-.55,4.99-1.11,2.72-.38,5.49-.55,8.25-.27,1.6.75,3.16,1.77,2.63,3.85,3.1,2.57,7.1,3.04,10.91,3.84,2.45.28,4.92.45,7.4.67,1.9.75,3.97.72,5.98.92,1.95.67,4.02.82,6.07.99,2.11.9,4.24,1.9,6.6,1.99-.16,1.46-.29,2.93-.4,4.41-3.76.54-6.98,2.93-9.23,5.9-2.85,3.78-5.97,7.35-8.93,11.06-1.45,2.08-3,4.12-4.98,5.72,1.06-.61,2.14-1.2,3.23-1.75.25,1.66.23,3.33-.07,4.99-6.97,5.02-10.91,13.9-19.2,17.12-4.79.96-9.49,2.39-14.12,3.93-2.12.36-4.24.72-6.33,1.17.93,1.09,1.89,2.16,2.84,3.25,4.66,1.6,9.75,1.36,14.58,2.31,5.53,1.51,11.36.29,17,.86,3.29,2.4,7.52,4.58,8.07,9.06.3,3.4,1.01,6.76,1.83,10.08.31,1.02.62,2.05.92,3.09,5.04,9.89,13.71,17.46,23.11,23.08,3.22,2.1,6.65,4.18,8.38,7.79-.07.82-.22,2.47-.29,3.29-1.02,6.11-1.1,12.56.04,18.66.14,1.1.46,2.15.96,3.14.26.5.79,1.5,1.05,2,.55,1.68,1.25,3.32,1.92,4.97.77,2.44,1.91,4.75,3.17,6.99.83,2.69,2.3,5.36,2.07,8.25-1.43,3.77-5.53,5.47-7.65,8.75-1.45,2.98-2.47,6.15-3.51,9.3-1.21,2.14-2.55,4.19-3.98,6.19-2.78,4.91-7.37,8.18-11.79,11.5-.81,2.25.49,4.24,1.76,5.97.91,3.66,3.2,6.71,5.03,9.96.24.54.72,1.61.96,2.15.28,1.04.65,2.07,1.08,3.08.15,2.07.16,4.16.18,6.25-1.5,2.02-3.56,3.41-5.77,4.53-4.25,2.99-7.75,7-10.48,11.42-.64,1.35-1.29,2.7-1.96,4.04-2.13,4.02-3.17,8.53-3,13.09-.66,1.02-1.31,2.06-1.93,3.12-3.19,1.91-6.99,1.41-10.49.83-1.02-.37-2.03-.72-3.05-1.05-2.82-1-5.86-.84-8.8-.88-3.97.05-8.02-.36-11.87.82-6.14.73-11.82,3.93-18.09,3.59-1.74,0-3.48-.1-5.21-.23-4.55-3.12-8.66-6.85-12.28-11.01-1.42-.93-2.7.63-3.38,1.72-3.74,4.89-8.38,9.27-13.94,12.03-.51.26-1.53.78-2.05,1.05-1.33.7-2.68,1.39-4.02,2.08-.86.01-2.59.02-3.45.02-2.33-.87-4.27-2.42-6.01-4.14-2.13-2.08-5.14-2.71-7.83-3.69-.52.28-1.55.86-2.06,1.15-.74,2.89-1.73,5.71-2.67,8.56-.36.96-.69,1.94-1.01,2.93-.73,1.62-1.42,3.27-2.03,4.95-1.15,2.44-2.45,4.81-3.91,7.08-3.83,5.11-6.71,13.04-14.06,13.49.02-.69.06-2.05.09-2.73-.72.7-1.42,1.41-2.14,2.12-3.97,4.2-7.49,9.06-12.99,11.46-1.54-.05-3.08-.06-4.61-.03.1-.81.31-2.42.41-3.23-.9.67-1.8,1.35-2.7,2.03-.87.45-1.74.91-2.59,1.38-3.87,2.46-7.58,5.14-11.4,7.67-2.44,1.18-4.94,2.25-7.25,3.66-3.35,2.16-5.13,6.99-9.73,6.81.17-.98.36-1.96.55-2.92,1.53-4.46-.05-9.32,1.37-13.79.76-8.98.37-17.98.64-26.98-1.38.19-2.77.34-4.15.49-1.59-4.95-.14-9.93,1.11-14.79.83-2.25,1.57-4.55,2.08-6.9.37-.82.73-1.63,1.1-2.44-1.58-.15-3.41.27-4.56-1.11-.52-1.2.04-2.43.3-3.59.43-.96.83-1.91,1.21-2.87.58-2.05,1.3-4.05,1.77-6.12,1.69-3.78,5.01-6.4,7.78-9.36,3.69-3.99,8.68-6.56,12.01-10.92.88-1.87-1.31-2.88-2.55-3.71-2.87-1.56-5.94-2.71-9.02-3.8-.52-.2-1.56-.61-2.08-.81-.61-2.29-2.35-4-3.29-6.12-.28-5.54.84-10.99.67-16.49.46-.17,1.37-.5,1.83-.66.64-4.99,3.82-9.05,5.71-13.59.37.05,1.12.15,1.49.21,0,1.8-.02,3.68.73,5.39,2.37,3.26,1.27,7.32,2.18,10.97.12,3.13.07,6.28.21,9.43-1.1,1.04-1.28,2.39-.91,3.82,1.96.66,3.92,1.42,6.03,1.43l.04.83c1.38.15,2.7.64,4.02,1.09l-.09,1.07c.49-.06,1.47-.19,1.96-.25l.12,1.07c.99.39,1.99.78,2.99,1.18l-.2.97,1.39-.27-.49,1.38.98-.13c.58,2.15,3.09,2.51,4.56,3.92l.79-.14.02.89c.53.25,1.6.75,2.14,1,4.25,2.38,6.61,6.76,9.91,10.19,2.26,2.26,2.75,5.49,3.97,8.34,2.4,2.53,6.22,1.61,9.3,2.46,7.64.11,15.66.67,22.47,4.5,1.96,1.31,3.92,2.63,5.76,4.13,2.23,1.53,5.07.94,7.13-.6,2.86-3.65,7.43-6.19,8.77-10.88l-1.39.25c-.69-1.71-1.37-3.42-2.24-5.03.03,2,.15,4,.23,6.02l-1.85-.19c.15-3.07-1.09-6.29-3.51-8.21l-1.2.47c2.21,1.57.89,4.66,1.42,6.94-.42-.03-1.27-.1-1.69-.13-.46-5.78-3.02-11.21-7.12-15.29,1.01,2.55,2.06,5.14,1.71,7.96-.26.67-.77,2.01-1.03,2.67-.41-.06-1.22-.18-1.63-.24.42-3.49-.91-6.76-2.46-9.79-1.37,1.97-.65,4.55-.94,6.8-.87,0-1.74.02-2.61.04.17-3.71-.19-7.48-1.94-10.82-.19,1.75-.32,3.52-.42,5.29-.28.37-.83,1.12-1.11,1.49-.39-.02-1.16-.07-1.55-.09.48-4.54-.61-8.97-1.64-13.34-.53.2-1.58.61-2.11.82-.79-1.37-1.58-2.73-2.51-3.99.77,4.35,1.73,8.8.97,13.24-1.22-6.53-5.41-11.9-6.97-18.31.28,7.17,3.07,15.05-1.13,21.63-.25.06-.74.17-.99.22.57-3.27.52-6.61-.09-9.87-.49-1.92-.82-3.86-1.38-5.74-.22-1.78-.41-3.56-.64-5.32-.83-1.46-.89-3.15-1.22-4.74-.06,1.35-.1,2.7-.13,4.07-1.47.91-2.91,1.86-4.36,2.8.09-.53.26-1.58.35-2.11.91-2.17.88-4.5.34-6.75-1.37.17-2.75.35-4,.94-1.72.95-3.45,1.89-5.17,2.84.18-2.49,2.87-3.9,2.67-6.45l.78-.08c-.07-.5-.22-1.51-.3-2.02,1.63.03,3.26.03,4.9.01-.38-.23-1.15-.69-1.54-.93l.02-.89c-6.38-1.76-13.04-1.26-19.57-1.23-2.04.42-3.93,1.53-6.08,1.14.66-.5,1.41-.87,2.22-1.09,2.06-1.75,4.08-3.62,6.66-4.58,1.66-.29,3.24-.87,4.56-1.97-4.39-.21-8.9.38-13.15,1.3l-1.96.72c.09-.58.28-1.74.38-2.32l.7-.04c.68-2.06,2.82-2.77,4.54-3.71,1.08-.26,2.11-.65,3.1-1.17,2.39-.05,4.7.63,7.04,1.05-4.4-1.59-9.2-2.64-13.83-1.42-1.22.12-2.45.24-3.67.35l-.12.67c-1.36.11-2.69.29-4.03.45.02-.24.05-.71.07-.95,3.48-2.45,7.31-4.31,11.54-4.97.87-.03,2.59-.11,3.46-.14-3.41-2.06-7.69-2.4-11.25-4.34.53-1.2,1.42-2.06,2.66-2.58,2.05.01,3.88-.89,5.66-1.81-2.02-.31-2.61-1.53-1.8-3.67-1.81.13-3.61.27-5.42.41.08-.47.24-1.42.31-1.89,2.43-.69,4.85-1.43,7.36-1.77-3-1.7-6.24-1.26-9.42-.38l-.1.78c-.53.06-1.59.17-2.12.23.1-.46.31-1.38.41-1.84,1.37-2.06,1.85-4.48,2.18-6.88.57-1.28.72-2.69,1.03-4.03.93-1.92.78-4.07.85-6.14.86-2.44.45-5,.02-7.47-.33-4.7.34-9.55-1.09-14.12-.25-2.37-.13-4.8-.93-7.06-.04-1.44-.05-2.87-.03-4.29.38-.99.72-1.99,1.01-3,.62-1.38,1.3-2.71,2.02-4.03.27-.48.82-1.44,1.1-1.92,3.42-4.39,6.44-9.09,9.04-14.02.66-1.35,1.31-2.71,1.93-4.07,1.06-2.15,1.8-4.42,2.38-6.73.16-3.58.02-7.58,2.41-10.52,2.1-2.03,4.77-3.31,7.16-4.95,4.37-.04,8.9.6,13.16-.69,4.58-.83,9.53-1.63,13.06-4.95,3.13-2.95,5.4-6.67,7.8-10.22,2.07-2.95,3.28-7.15,7.13-8.24,2.91-1.2,6.43-3.09,6.78-6.59,1.01-4.46,1.75-9.1,4.03-13.13,5.43-6,11.32-11.73,15.03-19.04,1.77-1.94,3.79-3.63,5.98-5.08,2.71-1.3,5.37-2.72,8.19-3.78,1.01-.33,2.01-.71,2.98-1.14,1.16-.1,2.31-.15,3.48-.21.39,1.11.79,2.22,1.2,3.34l1.04-1.36c3.32-1.31,6.9-1.67,10.32-2.64ZM555.97,466.07c-1,.31-1.99.64-2.98.97-5.78,1.31-11.43,3.4-16.41,6.65-3.12,2.13-6.76,3.26-10.02,5.15-4.53,2.73-9.4,4.83-13.89,7.61,8.45-3.63,16.18-8.86,24.99-11.64,2.38-.5,4.72-1.19,7.05-1.88,3.1-.67,6.03-1.89,8.97-3.07,1.69-.69,3.37-1.39,5.07-2.08,1.36-.61,2.69-1.27,4.02-1.96,1.31-.68,2.64-1.34,3.98-1.97,2.36-1.19,4.58-2.64,7.01-3.72-5.91,2.07-11.81,4.14-17.8,5.93ZM528.76,486.8c-1.51-.24-2.82.42-4.01,1.25,3.71-.4,7.46-.25,11.19-.61,7.21-.57,14.21-2.64,20.93-5.23-9.2,2.34-18.53,4.78-28.11,4.59ZM479.7,510.97c-4.44,5.31-10.24,9.19-15.73,13.31-3.25,2.5-7.56,3.71-10.1,7.02-.58.12-1.72.38-2.29.5-.2,1.11-.39,2.23-.58,3.35-1.38,2.86-2.37,5.89-3.07,9-.81,2.26-1.46,4.58-2.14,6.9-.34,1.02-.65,2.06-.94,3.11-.34,1.32-.64,2.66-.97,3.99-.48,1.37-.73,2.81-.85,4.27l-.67.19-.36,2.56c-1.18,2.6-2.18,5.28-3.04,8-.63,1.35-1.27,2.71-1.97,4.03-1.88,2.11-.27,4.7.89,6.69-.05,1.64.89,2.9,2.02,3.99.98,2.33,2.01,4.66,3.06,6.98.56,3.12,1.65,6.13,3.01,9.02.85,4,2.04,7.95,2.45,12.05,1.47,7.74,5.55,14.58,8.81,21.66.79.05,2.37.16,3.15.22-.66-1.54-1.2-3.07-1.78-4.62-.27-3.75-1-7.47-2.02-11.09-.31-4.04-.63-8.14-2.08-11.97-.28-3.02.25-6.16-.88-9.05-.24-2.38-.35-4.77-.58-7.15-.5-1.54-.77-3.12-.82-4.73.54.11,1.62.34,2.16.45.05-3.55.16-7.11-.41-10.63.45.31,1.34.92,1.78,1.23-.32-1.74-.42-3.55-1.21-5.15-.66-2.88-.25-5.84-.44-8.76,2.96,1.34.73-3.02,1.18-4.48,1.63.72.57,3.58,3.05,2.86-.08-1.99-.19-3.96-.25-5.93.93.79,1.76,1.69,2.41,2.76l.65.04c.25.79.5,1.59.77,2.4.01-1.44.02-2.86.05-4.28l-.64-.11c.03-.94.11-2.82.14-3.75.54.4,1.61,1.22,2.15,1.62.14,0,.43.02.57.02-.83-1.61-.78-3.43-.99-5.17l1.13.52c.25-1.89.53-3.75.86-5.61.41.14,1.24.43,1.65.58-.73-3.1-.83-6.46.67-9.36.47.08,1.43.22,1.91.29.02-.49.08-1.47.1-1.97.44,1.06.91,2.12,1.4,3.17,3.55-2.12,3.36-6.97,4.42-10.51.59.06,1.77.19,2.36.25.63-.98,1.28-1.95,1.95-2.9.83-1.52,1.63-3.06,2.09-4.74.53.14,1.58.43,2.1.57-.49-.57-1.49-1.7-1.99-2.27,3.48,1.98,3.45-1.05,3.6-3.09.21-.04.65-.12.86-.15.08,1.29.18,2.59.3,3.89.15,1.02.44,3.06.59,4.08.98-2.16,2.07-4.27,3.4-6.24,1.07-.52,1.72-1.38,1.95-2.56.26.01.79.03,1.06.04-1.73,3.01-3.18,6.26-3.51,9.76,1.79-3.19,4.91-5.83,5.52-9.55l2.09-.19c-.68,2.87-1.65,5.65-2.45,8.5,1.59-1.68,2.71-3.74,3.27-5.99.78-1.77,1.78-3.48,2.03-5.44l1.68.16c-.06-1.11.32-2,1.12-2.68-.51,3.47-1.6,6.84-2.43,10.26-.47,1.27-.62,2.61-.61,3.98.46-.74.92-1.48,1.38-2.21,1.36-4.76,4.59-8.73,5.9-13.48l1.8-.04c-.2,1.11-.61,3.32-.81,4.43l2-.68c-.19.98-.38,1.97-.56,2.96-.87,1.17-1.63,2.42-2.2,3.76,2.93-2.74,6.14-5.15,9.51-7.34.04-.5.12-1.52.17-2.03.2-.09.61-.27.81-.36-.04,1.1-.06,2.19-.07,3.3l-.73.04c-.85,1.3-1.88,2.46-3.08,3.47,3.01-.27,5.55-1.9,7.92-3.62v-.76c.65-.03,1.93-.08,2.57-.11,1.9-1.91,5.45-2.64,5.84-5.64-1.77-.78-3.46-1.7-5.12-2.66-.48-.26-1.46-.78-1.95-1.04-.49-.24-1.48-.72-1.98-.96-1.64-.75-3.31-1.44-5.01-2.03-.99-.38-1.98-.76-2.96-1.13-1.04-.27-2.08-.52-3.12-.76-2.9-.86-5.92-.94-8.91-1.09-3.21-.9-6.63-.63-9.91-.23-4.53,4.23-8.24,9.25-12.13,14.06ZM532.81,517.07c-3.47,1.18-5.89,4.08-8.77,6.21-1.49.74-2.89,1.68-3.98,2.94-4.69,4.59-8.82,9.73-11.9,15.53,2.68-3.17,6.35-5.22,9.61-7.73,2.23-1.86,4.41-3.8,6.95-5.23,2.28-1.54,5.19-1.1,7.6-2.33l.07-.84c.52-.05,1.55-.14,2.07-.18l-.2,1.21c2.65.4,5.06-.77,7.53-1.53-.72.93-2.15,2.8-2.87,3.73,1.15-.44,3.45-1.32,4.59-1.76-.06.46-.18,1.39-.25,1.85,1.12-.18,2.24-.35,3.37-.52-.03.27-.09.79-.12,1.05l-.88-.02c-1.25,1.87-2.89,3.48-3.82,5.55.46-.26,1.39-.8,1.85-1.06,1.66-1.36,3.3-2.75,4.98-4.09.53-.23,1.58-.7,2.11-.94,1.71-.57,3.45-1.15,4.94-2.21,1.06-.06,2.12-.12,3.2-.16-2.06.76-3.3,2.56-4.82,4.02-3.08,2.18-6.83,3.47-9.4,6.34,5.76-1.62,9.11-7.46,15.07-8.68-.15.47-.43,1.41-.58,1.88-2.42,1.66-3.91,4.28-5.55,6.65,1.01-.64,2.03-1.27,3.05-1.91,1.66-.68,3.35-1.32,5.14-1.62-1.73,1.51-2.94,3.51-4.71,4.97l-.03.32c1.51-.24,3.63.83,4.66-.81.51-.08,1.53-.23,2.03-.3-.35,1.17-.97,2.17-1.87,3,1.25.7,2.53-.06,3.7-.52.49-.3,1.48-.89,1.98-1.18.98-.06,1.97-.11,2.97-.16,0,.15-.04.46-.06.62-2.23.93-4.21,2.4-5.72,4.29.67-.28,1.99-.85,2.65-1.13l-1.24,3.12c1.44.08,3.74-1.78,5.71-1.09.07,1.83-1.63,2.2-2.77,2.98,2.52.42,4.87,1.49,7.24,2.42.38-3.31-.21-6.61-1.69-9.6-.7-1.98-1.34-3.97-2.03-5.94-.7-2.71-1.14-5.47-1.91-8.15-.35-2.27-.89-4.51-1.5-6.71-.62-.04-1.85-.12-2.47-.15-4.45-1.42-9.39-.21-14-1.08-1.63-.68-3.36-.78-5.07-.93-2.21-.94-4.7-.7-7.02-1.04-2.64-1.04-5.66-1.07-7.86.91ZM493.47,541.77c-2.25,2.95-.66,6.89-1.9,10.17,0,3.32-.46,6.73.44,9.99.04,4.12.95,8.14,1.58,12.2,1.27,5.29,2.63,10.56,4.33,15.74.31,1.02.64,2.05.97,3.09.25,1.06.53,2.13.85,3.19.34.95.7,1.9,1.08,2.86.34.99.67,1.98,1.02,2.99.28.47.83,1.42,1.11,1.89,3.43,5.1,7.21,10.05,11.54,14.43,4.8,3.15,8.5,7.7,13.47,10.6,2.53,1.67,4.76,3.75,6.83,5.97-2.37-3.8-5.47-7.08-8.18-10.64-.65-1.04-1.29-2.09-1.89-3.14-.27-.48-.82-1.44-1.09-1.91-.16-1.02-.54-1.94-1.14-2.74-4.1-5.44-7.76-11.23-10.95-17.26-1.38-3.63-2.29-7.43-3.9-10.97-.45-1.78-1.06-3.51-1.85-5.15-1.11-3.97-3.08-7.82-2.45-12.07.44-2.65-1.26-4.87-2.74-6.85-.34-1-.69-1.98-1.03-2.96-.38-5.38-.34-10.78-.52-16.16-.19-2.18.62-4.21,1.46-6.16.5-.91.99-1.81,1.49-2.71.07-1.31.21-2.62.45-3.89-2.67,3.46-6.41,5.95-8.98,9.51ZM520.87,541.06c-1.41.5-2.88.91-4.16,1.7-3.83,3.79-7.07,8.27-8.78,13.43-2.09,3.98-1.91,8.6-2.69,12.93,1.2-4.89,3.93-9.59,8.09-12.54,4.96-3.83,9.39-8.7,15.42-10.89,4.02.11,7.71-1.46,11.09-3.52-1.33-.46-2.69-.87-4-1.34-1.93-.89-3.85-2.01-5.99-2.28-3.06.53-5.95,1.79-8.98,2.51ZM581.48,547.17c-.1,1.16-.29,3.49-.39,4.65l1.38-.48c-.12,1.8-.01,3.63-.52,5.39.62-.12,1.85-.35,2.47-.47-.07.47-.19,1.41-.25,1.88-1.26,1.06-2.48,2.17-3.67,3.31,2.14-.11,4.31-.2,6.47-.25-.5.76-1.5,2.27-2.01,3.02l2.8-.9c-.63,1.5-1.34,2.94-1.96,4.45,1.59-.13,3.18-.27,4.78-.42-.46,1.45-.34,2.95-.08,4.44.92-.03,2.75-.1,3.67-.13-.4,1.1-.94,2.11-1.63,3.05-1.35,1.18-2.38,2.66-3.31,4.18.81-.08,2.45-.23,3.26-.31-.03.84-.06,1.68-.09,2.53-.89.84-1.45,1.88-1.66,3.1,2.32-1.26,4.7-2.6,7.43-2.62-1.45,3.55-5.68,4.93-7.23,8.56-.63.83-1.23,1.67-1.83,2.53,2.87-1.97,5.69-4.01,8.67-5.84.43-.11,1.29-.33,1.72-.45-.08.46-.22,1.37-.29,1.82-2.35,3.55-5.52,6.41-9.03,8.82,1.14-.11,3.41-.33,4.55-.44-.38,1.29-.98,2.5-1.59,3.71-1.66,1.91-3.2,3.92-5.02,5.69,1.41-1.21,2.99-2.22,4.6-3.14,1-.35,3-1.04,4-1.38.64,3.13-1.29,5.24-3.59,6.9-.8.23-2.4.68-3.2.9,1.09.39,2.19.79,3.3,1.19.03,1.11.55,2.02,1.55,2.73-.69-.44-2.06-1.34-2.75-1.79.02.54.06,1.6.08,2.14l1.65-.39c-.09.8-.27,2.4-.36,3.19l-1.72,1.08c2.14.38,4.24,1,6.37,1.51-3.72.99-7.61.1-11.4.61,1.69.83,3.28,1.58,2.93,3.82-1.31.03-2.62.08-3.91.14-1.09,1.36-2.28,2.62-3.36,3.98-.34,1.85-.18,3.75-.3,5.64-.37,1.06-.65,2.15-.83,3.27-.92,1.39-1.7,3.05-3.3,3.79-4.27,2.22-8.06,5.21-12.08,7.84-1.41.84-1.59,2.41-1.46,3.9.33-.27.98-.81,1.31-1.08,1.36-.24,2.75-.49,4.1-.86,3.73-1.45,7.34-3.2,10.87-5.12,1.62-1.07,3.29-2.07,4.98-3.04,3.56-1.54,6.08-4.57,9.02-6.99,3.37-2.74,4.58-7.06,6.09-10.95.23-.49.69-1.48.93-1.97,1.11-1.96,2.15-3.95,3.12-5.98l.92-2.08c1.22-3.43,3.61-6.13,6.83-7.83-.81-3.01-1.39-6.09-2.72-8.93-1.23-3.67-4.2-6.78-4.27-10.79.09-2.84-1.19-5.45-1.3-8.25-.38-4.5.58-9.01.22-13.5-4.32-3.69-9.46-6.54-13.58-10.57-2.76-2.77-5.98-4.97-9.4-6.84ZM549.76,554.77c1.4,1.32,3.47.77,5.23,1.01,4.65,2.14,9.42,4.33,13.09,8.01.6,1.36,1.23,2.71,1.86,4.07.35,2.41,1.05,4.76,2.03,7,3.86,5.11,8.2,10.47,9.01,17.06-.34-4.93-.61-9.92-1.29-14.79-.22-4.1-.89-8.15-1.43-12.21-5.07-4.27-9.17-10.75-16.37-11.42-4.04.46-8.08.86-12.13,1.25ZM525.94,555.04c3.81.34,7.58,1.19,11.11,2.72,4.82,3.02,9.57,6.77,12.01,12.07.17,1.8.66,3.54,1.02,5.31-.42,1.8-1.09,3.52-1.79,5.23-.77.58-1.53,1.17-2.29,1.77,3.35.86,6.4-1.16,9.07-2.94,1.32-.61,1.43-2.05,1.73-3.27.39-1.65.4-3.34.4-5.01-1.03-2.57-1.56-5.54-3.77-7.41-4.41-4.11-10.1-6.61-15.79-8.36-3.83-.9-7.81-.31-11.69-.11ZM522.75,579.14c1.98,4.03,3.86,8.41,7.57,11.18,3.48,2.88,7.99,3.91,12.29,4.91.57,0,1.7.03,2.26.04-6.59-3.05-12.83-7.51-16.73-13.75l-.55-.12c-.76-4.14-2.06-8.17-2.93-12.3-.09-1.81-.09-3.62-.19-5.42-1.79,4.84-3.34,10.35-1.72,15.46ZM482.65,567.52c-.64,1.12-1.64,1.93-2.6,2.75-3.17,2.32-4.82,6.04-6.25,9.59-1.25,3.22-2.4,6.88-1.09,10.28,1.51,3.65,2.12,7.58,3.59,11.26,1.74,1.07,2.68,2.88,3.35,4.76.44.34,1.31,1.01,1.75,1.34l-.33,1.18,1.18-.12c-.29,3.04,2.68,5.16,5.3,5.9-.79-.43-1.58-.83-2.38-1.21,1.18-2.78-1.5-4.23-2.97-6.02-.03-.63-.1-1.89-.13-2.51-.39-.05-1.18-.14-1.57-.19,0-2.22-1.87-3.58-2.98-5.28-.25-.54-.76-1.61-1.02-2.15-.51-2.74-.24-5.53-.17-8.28,4.14,6.55,9,12.82,15.33,17.39,1.37.82,2.11,2.2,2.62,3.66-.1-.74-.19-1.47-.27-2.19-1-1.29-2.01-2.56-2.98-3.85-2.97-4.44-4.81-9.52-6.36-14.6-.27-1.37-.63-2.72-1.11-4.02-1.08-4.12-.15-8.33,1.1-12.29,1.56-1.96,1.45-6.44-2-5.38ZM534.35,570.72c0,.46.03,1.39.03,1.86,1.51.02,3.02.05,4.55.09.58.29,1.73.88,2.31,1.18.12.78.36,2.35.48,3.13,1.07-.77,2.38-2,1.65-3.44-1.83-2.93-5.86-5.13-9.03-2.82ZM563.05,597.27c-1.69.65-3.36,1.34-5.05,1.97-1.02.28-2.03.6-3.01.97-2.03.29-4.14.29-6.06,1.06-8.9.65-17.81-1.29-26.22-4.08-1.8-.92-3.94-1.29-5.35-2.8-.08.17-.23.52-.31.7,2.99,1.92,5.82,4.08,8.99,5.73,4.51,2.35,8.86,6.12,14.21,5.92l.1.75c6.78-.28,13.7,2.69,20.4.44,2.67-.23,5.77-.03,7.7-2.29,2.44-2.98,3.95-6.81,4.26-10.67,1.1-2.12.43-4.64.74-6.92-3.03,3.51-6.3,6.94-10.4,9.22ZM568.02,623.32c-1.11,1.56-2.1,3.2-2.94,4.93-1.46,3.63-4.96,5.24-8.11,7.11-2.35.24-4.73.31-7.02.89-3.41.09-6.82.3-10.22.66-1.62.55-3.33.49-5,.44-1.94-.76-4-1-6.05-1.12-6.83-1.73-13.98-.56-20.94-.98-4.31-.89-8.68-1.6-13.05-2.05-1.6-.62-3.29-.82-4.97-.98-1.69-.55-3.45-.7-5.19-.88-2.6-1.19-5.11-2.56-7.49-4.13,6.6,5.71,13.34,11.58,21.38,15.19,2.36,1.22,4.44,2.88,6.56,4.46,1.95,1.46,3.97,2.81,5.97,4.21,3.14,1.14,6.6.79,9.8-.05,1.29-.4,2.61-.74,3.92-1.11,1.02-.3,2.04-.61,3.06-.94,2.93-.86,5.94-1.38,8.92-2.08,4.01-.58,8.07-1.04,12.03-1.94,3.73-.49,7.41-1.34,11.19-1.39,4.17-2.51,7.92-5.72,10.92-9.58,2.29-2.79,1.33-6.49,2.17-9.74.64-2.7.42-5.48.54-8.22-1.97,2.31-3.78,4.75-5.45,7.29ZM582,654.23c-1.05.34-2.09.7-3.13,1.05,1.96-.91,2.4,3.21.21,2.3l.26,1.03c-1.05-.11-3.14-.33-4.19-.45.13.52.41,1.56.55,2.07-2.53-1.2-5.09-2.36-7.75-3.19-.7,2.42,1.81,3.2,3.05,4.58-2.81.42-5.41-1.87-8.19-.47,2.45.77,4.9,1.58,7.26,2.62.47.29,1.42.86,1.9,1.15.69.67,1.38,1.36,2.08,2.07.47,1.09.99,2.18,1.49,3.28.32.35.96,1.04,1.28,1.38-.59-.01-1.77-.05-2.37-.06l-.08-.83c-4.5-4.03-10.76-5.09-16.52-6.03,3.08,1.21,6.1,2.8,9.46,3.18.09.43.28,1.3.37,1.73-.91-.04-2.73-.13-3.64-.18,2.68,2.12,5.59,4.3,6.75,7.67-5.34-3.41-10.62-7.65-17-8.81,3.06,1.84,6.41,3.31,8.99,5.88.28.38.84,1.16,1.13,1.55-.56-.1-1.67-.29-2.22-.38-1.36-1.26-3.16-.77-4.78-.62-1.85-.49-3.36-1.71-5.03-2.55,2.61,3.25,5.54,6.67,5.92,11.03-4.34-3.38-9.15-6.07-13.72-9.11,2.41,2.8,5.24,5.17,8.15,7.43-2.49.55-4.53-1.18-6.63-2.18-2.07-1.24-4.17-2.44-6.41-3.31l.32-.65c-.67.11-2.03.33-2.7.45,2.64.77,5.37,1.55,6.9,4.14-1.07-.11-3.21-.32-4.28-.43l-.14,1.45c-1.37-.97-2.73-1.89-4.11-2.8.84.99,1.67,1.97,2.53,2.98l-.6,3.6c-2.37-2.03-5.02-3.69-7.78-5.13-1.25-.65-4.03-2.31-4.38.22-.55-.43-1.63-1.29-2.17-1.72-1.15-1.54-2.79-2.97-4.87-2.56-2.94.39-5.64-.75-8.45-1.35l-.13-.56c-4.77-1.24-8.53-5.08-13.62-5.48-2.63-.5-5.3-.81-7.74-1.95,3.19,2.68,5,6.62,8.36,9.14,3.26,2.43,6.04,5.44,9.45,7.7,7.86,5.87,14.96,12.75,22.98,18.44,1.52.32,2.83-.67,4.18-1.19,1.55-.66,3.35-.62,4.81-1.52,3.55-.14,6.96-1.23,10.52-1.48l.08-.67c5.21.05,10.43-.08,15.63.17,3.18.69,6.34,1.52,9.58,1.94,2.69-3.49,3.07-8.1,5.03-11.99,4.31-7.39,9.67-14.23,15.74-20.24.47-1.16-.2-2.24-.65-3.25-1.86-3.63-3.99-7.22-7.18-9.85-1.53-.52-3.05.23-4.46.74ZM432.76,703.04c-1.27.81-2.55,1.6-3.8,2.45-5.52.91-11.13,1.94-16,4.86-3.83,1.9-7.97,3.97-10.34,7.68,5.49-4.69,12.06-8.01,18.94-10.15,1.1-.23,2.2-.52,3.29-.86,3.38-.16,6.36-1.69,9.16-3.54-4.36,6.55-10.44,12.2-13.09,19.76-2.04,4.32-4.35,8.56-6,13.05-1.08,2.63-2.8,4.96-3.76,7.64.3-.25.89-.74,1.18-.98.71-1.04,1.49-2,2.27-2.97.6-1.05,1.21-2.08,1.81-3.12,3.73-4.72,6.99-9.77,10.15-14.88,1.81-2.73,3.73-5.41,5.08-8.42l1.57-.17c.06,3.84-.2,7.78.81,11.55.6,5.14-.84,10.18-.92,15.3,4.26-9.86,1.62-20.77,2.1-31.11.7-2.18,1.58-4.37,1.15-6.71-1.21.16-2.41.36-3.6.61Z"/>
      <path class="st0" d="M75.44,467.84c2.6-2.76,6.28-4.95,10.21-4.33,3.39,2.6,7.21,4.56,10.88,6.75,1.4.54,2.78,1.11,4.17,1.69,1.33.35,2.69.6,4.04.9,2.29.7,4.59,1.39,6.9,2.03,1.26.49,2.53.91,3.8,1.38,1.43.49,2.84,1.04,4.29,1.51,3.03,1.07,5.73,2.96,7.03,6,3.23,5.32,7.48,9.91,11.46,14.67,5.02,5.68,10.57,11.09,17.43,14.51,1.64.79,3.34,1.49,5.1,2,4.45,1.71,9.25,1.67,13.94,1.89,1.33.42,2.72.71,4.12.86,1.89,1.46,3.68,3.08,5.04,5.08,1.7,3.56,2.59,7.4,3.78,11.16.76,3.07,1.85,6.04,3.09,8.97,1.16,3.06,2.66,5.98,4.11,8.93.25.5.76,1.51,1.02,2.02.94,1.65,1.92,3.3,2.99,4.89,1.42,2.6,3.56,5.12,3.38,8.27.03,4.12-1.56,8.06-1.39,12.21-1.17,3.83-.3,7.93-1.17,11.84-.92,4.25-.13,8.71-1.25,12.9-.49,2.41-1.05,4.81-1.6,7.22-.4,1.32-.76,2.67-1.14,4.02-1.51,3.54,1.11,7.01,4.18,8.6,3.2,2.8,6.28,5.77,9.05,9.03,1.05,1.68,2.38,3.26,2.45,5.35-.41.22-1.23.67-1.64.89,1.69,2.86,4.13,5.15,6.12,7.8,2.82,4.47,6.05,8.68,9.06,13.04,1.36,2.36,2.72,4.73,4.16,7.06,0,.8.04,2.4.05,3.2-1.39.75-1.58,2.63-.52,3.73,2.41,2.95,4.08,6.38,5.14,10.04.31,1.02.64,2.05.97,3.08.37,1.34.37,2.88,1.29,4.04,0,1.51-.41,2.98-1.09,4.35-1.52.64-3.11,1.09-4.74,1.36.21.72.43,1.45.66,2.18.55,2.02,1.22,4.01,1.93,5.99,1.02,4.05,2.59,8.05,2.2,12.32-.26.57-.78,1.71-1.04,2.29h-.83c-1.34,6.15-1.08,12.47-1.19,18.72-.03,1.93.35,3.87,1.03,5.7.47,3.99.24,8.01.27,12.03-4.27-.42-5.73-5.25-8.76-7.7-3.45-2.65-7.3-4.7-11.02-6.94-.5-.26-1.51-.77-2.01-1.03-3.78-2.09-7.92-3.36-11.87-5.06-2.23-2.05-5.18-2.97-8.18-2.61-.11.49-.33,1.49-.44,1.98-2.48.21-4.46-1.27-6.53-2.34-4.12-2.82-7.1-6.87-10.75-10.22-.64,1.04-1.29,2.08-1.94,3.14-.53.37-1.6,1.1-2.14,1.46-4.28-2.77-9.07-5.53-11.24-10.41-.46-1.74-1.16-3.41-1.92-5.03-.08-.63-.25-1.89-.33-2.52-2.24-1.44-5.04-.42-7.31-1.74-1.2-1.53-2.33-3.11-3.37-4.75-.26-1.03-.53-2.05-.82-3.05-.4-1.01-.8-2-1.19-2.99-.72-2.09-1.62-4.11-2.55-6.11-.4-.98-.78-1.96-1.15-2.93-3.61.54-6.59,2.84-9.91,4.22-2.46.35-4.94.31-7.4.13-.5-.31-1.49-.93-1.98-1.24-.88-1.1-2.71-1.04-3.38.26-2.13,2.85-3.08,6.38-4.36,9.67-.23.52-.67,1.55-.9,2.07-1.01,2.3-2.23,4.54-2.91,6.97-1.74,4.58-5.19,8.16-8.5,11.66-1.36,1.37-3.33.9-5.05.83-.2-1.32-.42-2.63-.66-3.93-3.35,5.26-7.42,10.33-12.91,13.48-1.44.89-2.78,1.94-4.02,3.09-1.75.78-3.92,1.81-5.5.11-.27-1.64-.67-3.27-.98-4.88-.91.73-1.83,1.48-2.75,2.22-2.17,1.29-4.41,2.46-6.74,3.43-1.72.58-3.39,1.32-5.05,2.08-4.12.46-7.48,3.09-11.06,4.94-2.84,1.41-5.76,2.84-7.92,5.23-2.5,2.47-4.99,5.64-8.88,5.61-.32-3.41,1.03-6.52,2.11-9.66,2.6-8.66-.12-17.6.31-26.39-.41-4.52,1.04-8.9.79-13.41-1.29-.41-2.58-.83-3.88-1.2-.19-3.16-.56-6.34.09-9.47,1.16-1.5,1.21-3.69,3.15-4.54-.6.17-1.81.51-2.41.68.62-2.35,1.11-4.73,1.41-7.13,1.15-2.97,1.95-6.06,3.08-9.04.41-1.31.6-2.69.81-4.03.25-.54.76-1.6,1.02-2.14,1.36-1.99,2.7-3.99,3.97-6.04,1.33-1.55,2.8-2.99,3.91-4.7-1.04-1.67-3.04-2.27-4.62-3.25-4.33-1.68-8.81-2.92-13.19-4.43-1.84-1.18-3.63-2.45-5.15-4.03-2.02-6.47-3.98-12.99-6.87-19.14-2.44-7.24-7.78-12.84-12.51-18.61l-.68-.1c-.08-2.85-.21-5.7.13-8.53.43-.99.81-2,1.13-3.02,1.39-2.97,2.76-5.94,4.01-8.98.23-.5.69-1.51.92-2.01,1.36-5.48,4.74-11.11,3.02-16.83-.15-2.74-.24-5.48-.65-8.19-.59-1.9-.64-3.92-1.33-5.79-.19-1.45-.33-2.9-.46-4.35,1.86-.51,3.68-1.16,5.48-1.85,1.64-.63,3.26-1.31,4.85-2.04,3.77-2.22,7.85-4.09,11.02-7.18.96-.52,1.92-1.03,2.88-1.52-.19-1.37-.46-2.72-.82-4.04-.18-6.49-2.16-12.91-1.13-19.41,2.62-5.17,4.83-10.54,7.26-15.8.66-1.32,1.31-2.64,1.9-3.99.36-1,.73-2,1.1-2.99.68-1.69,1.32-3.4,1.84-5.14.88-1.78,2.29-3.17,3.98-4.16,4.69-1.37,9.76-.58,14.25-2.69.98-.37,1.95-.75,2.92-1.12,4.83-2.18,9.29-5.16,12.98-8.98ZM69.73,484.25c-1.77.46-3.44,1.19-5.08,1.97-4.63,1.74-9.41,3.04-14.02,4.8-1.74,1.34-3.67,2.78-3.97,5.13-1.92,4.89-4.09,9.69-6.39,14.41-1.06,4.08-.28,8.38-.13,12.54,1.09-2.4,3.45-3.63,5.39-5.25,1.58-1,2.87-2.36,3.85-3.94.68-1.79,1.35-3.6,2.45-5.17-.29,2.32,1.05,3.49,3.24,2.86-.1-3.38-1.61-6.45-2.48-9.67,2.23.22,2.9,2.92,5.33,2.7.04,2.05.04,4.11.1,6.17l1.96-.08c.21-2.14-.08-4.27-.2-6.4.49.06,1.49.16,1.99.22,1.37,1.95,2.62,4,3.69,6.14-.33-2.1.15-4.51-1.23-6.31-1.58-2.69-4.46-4.4-5.67-7.33.4.34,1.2,1.01,1.6,1.35,4.64,2.97,7.6,7.77,10.22,12.5-1.36-4.83-3.88-9.22-6.48-13.47l-.68-.03c-.07-.52-.23-1.57-.3-2.09.51.06,1.52.2,2.03.27l.08.72c3.9,2.71,7.19,6.32,9.2,10.67.38-3.51-1.9-6.27-3.89-8.88.59.14,1.76.41,2.35.54.58.48,1.74,1.43,2.32,1.9.03-1.57.05-3.14.06-4.7,2.09,1.55,3.04,4.03,4.31,6.2-.6-2-1.33-3.95-1.9-5.96-.41-1-.86-1.97-1.34-2.92-.2-1.51-.32-3.04-.37-4.55,2.07,1.65,3.31,4.05,4.91,6.11l.83-.35c-.72-2.43-1.52-4.88-1.43-7.45,4.11,4.68,8.62,9.59,10.04,15.84-.17-1.93-.4-3.94.61-5.68.24-1.84.4-3.69.5-5.53.43-.04,1.28-.11,1.71-.15.01,2,.07,3.98.3,5.98.28-.9.83-2.69,1.11-3.59.49-1.02.98-2.03,1.6-2.96.23,1.37.5,2.73.81,4.08.23,3.02.33,6.05.69,9.07,1.52-1.19,1.93-3.06,2.39-4.82-.02-1.66,0-3.3.01-4.95.23.03.7.09.93.12.25.4.75,1.19,1.01,1.58.14,2.71.38,5.42.3,8.14.53-3.74,2.71-7.19,2.11-11.07.08-1.42-.69-3.19.61-4.24.25.78.76,2.34,1.02,3.12.17,2.03.43,4.06.78,6.07l.96-2.92c.33-1.12.6-2.24.81-3.37.52-.14,1.56-.42,2.07-.56-.11,1.71-.22,3.43-.31,5.16.75-1.01,1.52-1.99,2.32-2.94,1.33,2,3.17,1.18,4.84.16,0-1.28.01-2.56.02-3.82-5.56-1.98-9.76-6.89-15.87-7.49-2.99-.97-6.05-1.79-9.22-1.81-.82-.56-1.64-1.13-2.45-1.69-2.32-1.39-4.45-4.4-7.29-3.96-3.6,3.95-8.07,7.07-12.77,9.61ZM125.79,506.2c-4.07.86-8.2,1.57-12.16,2.94-1.68.59-3.31,1.3-4.91,2.07-3.16,1.82-6.12,3.97-9.13,6.05,1.66.28,3.54.05,4.97,1.12,2.53-.56,4.44.85,5.9,2.82-.16-1.8-1.01-3.35-1.7-4.95.5.08,1.5.25,2,.34,1.24,1.67,2.5,3.36,3.31,5.3-.12-.9-.34-2.68-.46-3.58l2.05.24c1.2,2.31,3.02,4.2,4.68,6.18-.7-1.51-1.34-3.04-2.03-4.55-.24-1.38-.49-2.75-.74-4.11.54.16,1.61.48,2.15.64,1.99,2.33,3.67,4.89,5.2,7.54.03-2.16-.59-4.21-.97-6.3.32.33.97,1,1.29,1.34,2.32,2.32,3.37,5.59,5.85,7.76-.92-1.57-1.3-3.35-1.34-5.14,1.16,1.22,2.16,2.58,3.14,3.97.81,2.37,1.73,4.72,2.78,7.01-.13-3.03-.82-6.05-2.43-8.65-.05-.62-.14-1.84-.19-2.45,1.66,1.33,2.61,3.27,3.77,5.01,1.1,2.03,1.97,4.19,3.16,6.18,0-1.29-.17-2.57-.59-3.79-.12-.52-.38-1.56-.5-2.07.45.16,1.35.48,1.81.64.91,2.08,1.96,4.11,3.03,6.12.73,2.08,1.45,4.17,2.33,6.21.09-1.43.17-2.85.25-4.26.25-.56.76-1.66,1.01-2.22.46-.04,1.36-.14,1.81-.19.1,2.5-.25,5.07.55,7.5.2,1.69.38,3.4,1.07,4.99.08,2.05.08,4.1,0,6.16-.64,1.59-.83,3.29-1.03,4.98-.38,1.01-.73,2.04-1.03,3.09-.48,1.29-.77,2.63-.95,4-1.66,4.9-5.46,8.58-7.98,13.02-2.05,3.32-4.14,6.63-5.98,10.09-1.37,2.3-2.75,4.59-3.98,6.98-1.34,2.32-2.72,4.62-3.99,6.98-.27.48-.79,1.45-1.05,1.93-2.99,5.16-5.82,10.46-8.05,16-.68,1.68-1.36,3.37-2.03,5.06-.73,1.63-1.39,3.28-2.02,4.96-.41,1.28-.77,2.57-1.09,3.9,3.35-3.16,5.22-7.46,7.76-11.24,6.37-8.27,14.03-15.35,21.45-22.64,3.85-3.5,5.57-8.53,7.31-13.27,1.48-4.34,3.11-8.65,4.34-13.06,1.39-3,2.02-6.31,3.83-9.11,2.43-3.27,5.86-5.85,7.49-9.67.81-4.02-.24-8.06-1.28-11.93-1.9-5.99-4.08-12.08-7.84-17.16-6.79-5.54-13.57-11.84-16.9-20.13-.73-.61-1.46-1.22-2.19-1.82-3.19,1.23-6.43,2.32-9.78,3.1ZM70.43,521.84c-8.74,1.4-16.59,5.73-25.14,7.85-1.04,6.27-3.46,12.19-4.68,18.43-1.32,4.03-1.18,8.7-.06,12.79.37.99.73,1.99,1.1,3,.28,1,.57,2.02.87,3.04,1.38,2.85,2.79,5.71,3.53,8.83-.12-2.9-.18-5.88.66-8.69.22-1.4.4-2.79.64-4.18,1.14-3.21.62-6.67.88-10.01.51-1.34,1.04-2.67,1.82-3.87-.05-.39-.15-1.17-.21-1.56l1.31.17c-.01-.88-.05-2.65-.07-3.53.26.08.76.22,1.02.3l-.43,1.77c2.4-.27,3.41-2.6,3.59-4.67.44-.01,1.34-.03,1.78-.04.01-.37.04-1.11.05-1.48.88-1.04,1.71-2.15,2.1-3.47l.72-.08c.11-1.26.09-2.6.89-3.64.09.85.26,2.55.35,3.4,3.2-1.46,3.04-5.91,5.1-8.52,3.07-.07,4.89-3.39,7.78-4.3l.02-.69c.87-.14,2.6-.43,3.47-.57-2.34-.44-4.74-.32-7.11-.28ZM80.74,528.25c-2.42,1.5-5.24,2.61-7.04,4.91-2.94,3.55-1.83,8.6-4.88,12.12,3.82-3.35,7.78-6.47,12.53-8.42,1.84-1.6,3.87-2.95,5.98-4.16,2.44.02,4.89.01,7.34.1,1.97.77,4,1.39,6.05,1.91,5,2.51,9.03,6.5,12.25,11.04,2.03,3.53.8,7.62.78,11.46-.5,1.62-.75,3.31-.92,5-3.76,10.2-9.86,20.25-20.04,25.04-.53.25-1.6.74-2.13.99-3.79,1.77-7.91,2.58-12.09,2.62.84,1.43,2.69.77,4.04.97,5.1.28,10.03-1.33,14.8-2.92,3.27-.63,6.11-2.43,9-4,2.79-2.19,5.19-4.8,7.76-7.23,3.85-3.63,5.92-8.71,7.29-13.72,1.22-5.96,1.51-12.08,2.57-18.06-1.41-2.84-4.16-4.76-5.97-7.35-3.85-3.88-7.34-8.42-12.42-10.78-2.46-.32-4.83-1.06-7.24-1.62-1.89-.7-3.9-.85-5.89-1.03-4.07-1.54-8.24,1.27-11.77,3.14ZM126.56,534.22c3.12,4.09,5.82,8.51,9.22,12.39.71-.13,1.41-.25,2.12-.35.42,1.03.83,2.07,1.25,3.11,1.34,1.53,2.67,3.09,4.13,4.53-.48-1.3-1.13-2.52-1.82-3.7-1.66-1.37-2.04-5.05-4.64-4.51l.35-1.21c-1.86.59-2.05-1.22-2.66-2.36-2.38-2.88-5.15-5.41-7.94-7.89ZM80.57,548.02c-1.6.77-3.23,1.47-4.87,2.16-4.74,3.69-9.76,8.59-9.96,14.98-.55,1.65-.66,3.42.23,4.98.06-.83.18-2.5.24-3.33,4.15-5.86,10.27-10.02,16.15-14.01,1.43-.24,2.83-.61,4.2-1.07,4.04,1.02,8.6,1.32,11.18,5.13.35,1.03.73,2.05,1.16,3.07.46,3.25-1.28,6.11-2.19,9.13,2.31-1.33,5.75-2.91,5.6-6-.02-3.86.45-8.33-2.2-11.51-4.85-5.45-13.05-4.8-19.54-3.53ZM28.65,550.06c-.51.26-1.53.79-2.03,1.05-3.13,1.15-5.81,3.18-8.75,4.71-.49,5.41.54,10.83.17,16.23-.26.42-.77,1.26-1.03,1.68-.4,4.55-1.19,9.07-2.27,13.52-1.16,4.94-4.15,9.56-3.95,14.73,1.12,2.06,2.64,3.87,3.97,5.8,3.39,5.14,6.62,10.42,8.99,16.13,1.62,4.36,2.7,8.94,4.7,13.16,1.45,3.15,5.3,3.6,8.15,4.87,4.99,2.02,10.09,3.82,15.03,5.97,3.33,1.67,6.5,3.67,9.96,5.09.5.26,1.49.78,1.99,1.03,3.22,1.33,6.69,1.86,10.17,1.84,1.59.56,3.25.82,4.9,1.15,1.02.32,2.05.63,3.08.93,3.63,1.15,7.22,2.5,11.02,3.03,5.8,2.11,11.7-.09,16.69-3.1,6.55-3.79,13.46-7.51,18.88-12.8l-1.44,1.16c-9.51,1.54-19.18,1.86-28.8,1.32l-.06.95c-3.53.17-7.05.02-10.58-.07-.48-.35-1.45-1.04-1.93-1.39-1.01-.31-2.02-.63-3.02-.97-1.96-.63-4.02-.42-6.03-.28-3.03,1.93-5.9-1.54-9.03-1.6-1.29-.77-2.61-1.51-3.94-2.2-1.04-.27-2.08-.53-3.11-.79-2.71-.81-5.58-.52-8.38-.73v-1.71c1.88-.45,3.71-1.06,5.56-1.59-2.55-1.27-5.46-.77-8.2-.84-.59-.22-1.79-.65-2.39-.86l.1-1.75c2.13-.21,4.26-.42,6.41-.34-3.13-.97-6.26-2.13-9.61-1.86.02-.49.06-1.48.08-1.98,1.87-.01,3.75-.02,5.62-.07-3-1.26-6.15-2.14-9.24-3.2,1.49-.84,2.96-1.72,4.31-2.76-1.88,0-3.77.11-5.65.21-.03-.51-.1-1.53-.14-2.03,2.53-.24,5.06-.47,7.58-.77-2.62-.73-5.29-1.23-7.86-2.13-1.97.06-4.22-.62-5.99.53-.97.09-1.94.18-2.9.27.03-.48.09-1.44.12-1.91,1.87-.58,3.76-1.13,5.59-1.83,5.36-.65,10.79-.39,16.18-.42-2.05-1.05-4.49-.34-6.66-.49-1.25-2.47,1.64-2.65,3.38-2.54-2.72-1.37-5.8-.66-8.72-.92,1.45.61,4.13,1.34,3.72,3.33-2.68.17-5.46-.42-8.18-.44l-.16-.6c-.26-.32-.79-.97-1.05-1.3l-.88.09v-1.74c.84-.18,2.52-.53,3.37-.7-.98-.25-2-.32-3.01-.33-2.06,1.05-4.42.42-6.63.63-.52-4.13,5.04-2.32,7.52-2.89l-.08-.76c-3.12.33-6.04-.92-8.98-1.78,2.61-2.01,6.07-.78,9.03-1.83l.04-.97c-2.4-1.06-4.76-2.25-7.28-3l-.27-1.9c2.62.36,5.23.85,7.84,1.28-1.04-.43-2.07-.86-3.1-1.29-1.03-.6-2.15-.87-3.36-.79-.44-1.43-1-2.8-1.67-4.12,2.03.05,4.05.09,6.07.07-2.11-1.08-4.16-2.29-6.32-3.28l-.38-1.91c2.84.31,5.7.47,8.57.35-2.07-.95-4.23-1.73-6.46-2.24.03-.41.08-1.24.11-1.66.95.03,2.85.09,3.8.11-2.22-1.77-6.07-.85-7.57-3.5,3.13-.07,6.22.55,9.35.46-2.03-1.51-4.63-1.36-6.99-1.81-2.02-.77-3.93-1.85-5.12-3.71,4.43-.12,8.58,2.16,13.06,1.28-.65-1.29-1.89-1.94-3.17-2.48-2.57-.44-5.22-.49-7.62-1.62.04-.45.12-1.35.16-1.81,2.89-.08,6.04.46,8.63-1.17-1.13-.46-2.28-.87-3.43-1.25l-.35-1.84c.97.03,2.91.11,3.88.15-1.76-1-3.8-1.32-5.68-2.03-.02-.5-.07-1.51-.1-2.02,1.21.13,2.41.24,3.61.39-.47-.84-1.4-2.52-1.87-3.36.77,0,2.29-.02,3.06-.03-1.82-1.27-4.05-2.12-5.23-4.1,2.03.14,4.06.3,6.09.48l-3.2-2.8c-.13-.4-.4-1.18-.53-1.58.29,0,.88-.04,1.18-.05l.12,1.13c1.14.12,2.28.24,3.42.37-.2-1.13-.41-2.26-.62-3.38-1.43,0-2.9-.02-4.23.56ZM176.73,550.13c3.63,4.63,1.34,10.62,3.04,15.81.25,5.71.4,11.45-.02,17.15-.57,1.31-.74,2.74-.91,4.16-.7,1.95-1.42,3.91-1.95,5.92-.8,1.86-1.68,3.69-2.73,5.43.88.03,2.66.1,3.55.14-2.48.89-3.24,3.01-2.58,5.38-4.29,2-6.22,6.82-10.48,8.89.41,1.19,1.39,1.62,2.6,1.7l.08,1.68c-2.76,1.06-5.36,2.49-7.59,4.44,1.55-.66,3.14-1.27,4.8-1.61-.02,2.68-3.03,2.87-4.72,4.1-1.61.87-3.28,1.62-4.95,2.37,2.8-.93,6.63-2.43,8.74.49-1.62.69-3.24,1.4-4.89,2.05-3.41,1.89-6.65,4.09-9.96,6.18,1.32-.24,2.62-.52,3.94-.76.77.32,2.31.96,3.09,1.28-3.46,1.38-6.92,2.78-10.17,4.64,1.58.05,3.15.06,4.74.09l-.12,1.62c-3.46.49-6.47,2.37-9.28,4.34,1.15-.23,3.46-.69,4.61-.91,1.92-.12,3.77.49,5.36,1.56-2.1.6-4.22,1.16-6.31,1.8-1.52.65-3.03,1.34-4.53,2.03.59.35,1.79,1.06,2.39,1.42-.15.42-.44,1.25-.58,1.67-2.68.25-5.1,1.48-7.53,2.51-1.41.74-2.93,1.33-4.09,2.47,2,.32,4.04.33,6.06.3-.07.46-.23,1.39-.3,1.85-1.82-.01-3.65.15-5.33.88-2.44.4-4.82,1.1-7.12,1.99,3.87-.25,7.79-.05,11.36,1.66l.16,1.71c-5.81-.55-11.63.33-17.43-.01,2.14,1.12,5.02,2.42,4.79,5.37-3.23-1.34-6.67-1.7-10.14-1.47-.5-.21-1.5-.65-2-.87,1.76,1.74,4.38,1.81,6.44,3.02-4.43.85-8.74-1.92-13.11-.55-1.69,1-3.41,1.95-5.13,2.92,4.14,1.09,7.94,3.31,12.24,3.88,3.55.88,7.22.82,10.86.97,4.94,2.34,9.62-1.79,13.77-4.04.81-.49,1.62-.97,2.43-1.44,1.48-.58,2.98-1.09,4.49-1.59,3.29-.45,6.51-1.36,9.67-2.38.16-.35.48-1.03.63-1.37.21-.52.61-1.56.81-2.09,1.22-2.22,2.1-4.61,3.07-6.94l1-2c1.29-2.37,2.6-4.72,3.94-7.05,6.4-9.72,13.54-19.1,22.44-26.67,2.47-1.59,1.41-4.92.52-7.12-.08-2.73-.1-5.46.02-8.18.78-1.94.8-4.03,1.01-6.07.64-1.57.87-3.25,1.07-4.92,1.88-8.75,3.19-18.23.04-26.84-.64-1.67-1.29-3.33-2.01-4.96-.25-.52-.75-1.56-1-2.09-1.96-4.78-3.74-9.74-6.8-13.96ZM56.65,563.14c-.25.5-.75,1.49-1,1.99-.26.5-.77,1.51-1.03,2.02-.78,1.6-1.48,3.25-2.06,4.95-2.38,9.21,6.73,15.58,14.05,18.78,2.37.85,4.79,1.58,7.01,2.79-1.84-2.09-4.19-3.63-6.23-5.5-3.07-4.06-6.67-7.94-8.11-12.95-.16-1.71-.4-3.43-.94-5.05-.65-4.07.04-8.14.79-12.14-.86,1.68-1.69,3.38-2.47,5.1ZM76.4,576c1.09,1.7,2.68,2.82,4.78,2.81-.31-2.3-.19-4.6,0-6.89,1.3-1.51,2.54-3.43,4.75-3.55l.11-.94c1.53.03,3.06.07,4.59.2.71,1.58,2.2,2.48,3.67,3.26-.23-.41-.7-1.24-.93-1.66-.65-2.63-1.35-6.69-4.78-6.76-7.23-1.4-13.94,6.69-12.21,13.54h.01ZM127.65,581.13c-2.86,2.69-6.44,4.35-9.94,6.05-2.37.87-4.66,1.93-6.91,3.06-2.75.81-5.45,1.8-8.08,2.95-1.35.27-2.69.57-4,.97-2.37.25-4.73.49-7.08.8,3.6.98,7.36.25,11.04.2,1.59-.42,3.21-.72,4.79-1.16,3.05-.86,6.11-1.74,8.99-3.11,1.16-.61,2.32-1.24,3.62-1.51l-.04-.82c1.39.16,2.7-.33,3.66-1.34,2.62-2.4,5.17-5.01,6.79-8.21-1.04.57-1.95,1.33-2.83,2.12ZM43.2,582.8c.08,3.43-.02,6.86.15,10.3.81,3.64.98,7.4,1.88,11.06,2.32,1.83,4.97,3.19,7.53,4.66,1.27.71,2.56,1.42,3.85,2.12,1.32.67,2.65,1.32,4,1.95,1.64.75,3.3,1.46,4.99,2.1,1.29.73,2.62,1.43,4.03,1.91,5.43,2.89,12.23,2.44,17.76.08,1.02-.36,2.04-.71,3.05-1.06,1.63-.7,3.26-1.38,4.9-2.03,3.75-1.13,7.44-2.44,11.06-3.94,3.13-1.3,6.49-2.36,8.99-4.76-1.28.72-2.53,1.49-3.79,2.26-1.35.13-2.75.13-3.99.76-10.3,1.74-20.8-.09-31.11-1.04-1.62-.63-3.36-.74-5.07-.9-1.99-.68-3.98-1.33-5.98-1.97-3.06-1.37-6.29-2.35-9.28-3.89-3.06-2-5.7-4.59-6.87-8.14-.03-1.84-.12-3.66-.26-5.48-1.88-1.42-3.58-3.15-5.84-3.97ZM72.48,627.45c2.41,2.43,4.88,4.84,7.64,6.88,2.6,1.56,5.54,2.41,8.35,3.53-5.3-3.52-10.53-7.16-15.99-10.42ZM182.57,654.51c1.88,1.13,4.11,1.14,6.22,1.44,3.74.65,7.45,1.34,10.96,2.94,1.36.61,2.8,1.09,4.08,1.92,3.8,2.89,8.74,4.07,11.76,8.02-1.16-2.04-3.21-3.29-4.7-5.03-1.5-.91-3.17-1.45-4.87-1.78v-1.73c-3.47-1.77-6.88-3.73-10.57-5.05-4.23-.88-8.6-.84-12.89-.73h.01ZM171.9,661.87c1.65,2.87,3.88,5.33,5.97,7.88.6,1.08,1.24,2.15,1.89,3.23,1.52,2.2,2.96,4.47,4.2,6.85-.1,1.75.02,3.56-.58,5.26,1.19,2.53-.07,5.31.23,7.95.63,4.97-.24,10.11,1.06,15,.35,2.71.98,5.4,2.12,7.91.45,1.35.89,2.72,1.34,4.08-.27-1.4-.55-2.8-.83-4.19.57-1.15.51-2.33-.09-3.44-.34-2.74.29-5.68-.83-8.27-.06-7.45-1.47-14.79-1.33-22.25,3.95,3.7,6.71,8.44,10.26,12.5,5.49,7.15,12.77,12.85,17.47,20.62.87,1.53,3.03,2.33,2.63,4.41l.75.05c.37,3.85,3.34,7.11,6.03,9.75-.95-1.7-1.85-3.41-2.62-5.18-.61-1.41-1.47-2.67-2.5-3.78.03-.39.1-1.17.13-1.56l-1.34-.07c.04-.45.13-1.34.17-1.78h-1.13l.26-1.15-.72-.2c-2.98-6.11-7.78-11.07-11.57-16.66-5.37-7.03-10.11-14.52-15.42-21.59-.93-1.27-1.92-2.49-2.86-3.74,1.03.13,2.07.28,3.1.45,1.93.72,3.99.81,6.02.99,1.59.47,3.23.81,4.86,1.13,3.08.58,6.11,1.4,9.22,1.83,3.95,1.83,8.04,3.49,11.6,6.05-1.3-1.21-2.63-2.37-3.99-3.5-4.06-3.61-9.6-5.1-14.95-5.21-1.61-.55-3.29-.83-4.97-1.01-2.98-.63-5.99-1.14-8.9-2.07-.51-.25-1.54-.75-2.05-1-2.62-3.09-5.68-5.74-9.09-7.92-1.18-.49-2.36-.95-3.55-1.37ZM169.3,671.92c-.25,6.73-.75,13.48-1.93,20.1.02,4.34-.77,8.89.59,13.11-.05-3.73.2-7.46.46-11.19,1.32-7.17,2.97-14.9.88-22.02ZM69.9,688.79c1.36-2.99,2.05-6.7,5.23-8.34-1.65.36-2.54,2.1-4.11,2.73l.5,1.51c-1.5-.18-3.01-.36-4.52-.43l-.57.98c-4.23.91-7.77,3.53-11.83,4.93-2.66.92-5.14,2.36-6.96,4.55,3.2-2.49,7.45-2.56,10.78-4.83,2.96-1.6,6.54-2.73,8.67-5.39,1.18.15,2.37.29,3.56.42-.39.8-1.16,2.39-1.55,3.19,0,.3.05.9.07,1.2l-1.19.44c-3.32,4.65-6.45,9.49-9.18,14.53-1.97,3.51-3.25,7.35-5.09,10.94-1.88,3.3-2.95,6.96-4.59,10.39.11-.02.32-.07.42-.09,1.96-5.9,6.6-10.38,9.8-15.62,1.16-1.88,2.36-3.74,3.61-5.55l-.05-.87,1.33.14-.2-2.12c.46.1,1.38.29,1.84.39,1.79-3.56,4.64-6.4,6.77-9.73.97-1.19,1.65-2.97,3.45-2.95-.23,4.97-.04,9.98.22,14.95,1.06,5.16,1.32,10.47.7,15.71.89-5.09,1.62-10.61.28-15.64-.12-6.13-.1-12.26-.21-18.39.72-2.33,1.83-4.5,3.37-6.39-3.57,3.06-7.24,5.98-10.55,9.35Z"/>
    </g>
  </g>
</svg>