<svg width="562" height="503" viewBox="0 0 562 503" fill="none" xmlns="http://www.w3.org/2000/svg">
<path d="M205.08 471.23C207.21 467.02 206.94 463.18 206.51 459.16C204.7 442.14 205.49 425.34 211.87 409.19C213.08 406.12 214.44 402.97 216.42 400.38C218.94 397.09 218 395.31 215.04 393.16C198.84 381.37 184.1 368.11 173.24 351C155.17 322.5 148.75 291.97 154.18 258.3C157.75 236.15 160.83 213.49 154 191.19C150.79 180.69 146.18 170.74 140.49 161.35C137.57 156.53 136.74 156.58 132.6 160.23C129.49 162.98 126.37 165.7 123.21 168.39C117.87 172.93 117.11 175.4 120.02 181.82C121.68 185.49 122.51 189.36 123.61 193.17C124.29 195.49 124.47 197.98 122.55 199.71C120.35 201.7 117.82 200.53 115.53 199.52C105.38 195.03 96.45 178.81 99.71 168.3C104.38 153.27 108.26 137.96 114.03 123.27C122.25 102.33 135.68 84.96 151.32 69.15C159.36 61.02 167.06 52.38 176 45.34C192.21 32.58 209.88 22.01 229.44 14.94C247.59 8.39002 266.07 2.59002 285.22 0.55002C307.79 -1.84998 328.11 3.10002 343.62 22.05C361.32 43.67 377.26 66.44 392.18 89.99C394.13 93.07 396.31 96.01 398.51 98.92C399.37 100.06 400.24 101.87 401.89 101.46C403.76 101 403.09 98.95 403.18 97.58C403.53 92.45 403.53 87.28 404.05 82.17C404.34 79.34 404.47 75.03 407.92 75.04C411.82 75.06 411.68 79.36 411.91 82.47C412.07 84.62 412.04 86.79 412.02 88.94C411.89 101.24 412.9 112.94 418.79 124.5C429.9 146.3 429.74 169.94 426.56 193.66C425.17 204.05 425.25 214.53 424.97 224.97C424.03 259.14 421.86 293.26 421.49 327.46C421.35 340.4 419.25 353.23 415.99 365.81C415.53 367.57 414.66 369.48 416.61 370.81C429.1 379.33 430.67 392.62 431.81 405.97C432.26 411.22 431.88 416.54 431.88 422.1C434.58 421.91 435.32 420.04 436.46 418.83C442.48 412.44 449.64 408.25 458.52 407.51C472.21 406.36 481.99 414.9 482.77 428.57C482.82 429.48 483.01 430.39 483.16 431.5C485.52 430.38 485.7 428.12 486.95 426.66C489.63 423.54 492.86 422.32 496.7 423.81C500.23 425.18 502.44 427.71 501.99 431.85C501.88 432.84 502.05 433.89 501.76 434.82C497.93 447.32 494.2 459.83 487.05 471.02C476.43 487.63 459.56 486.55 446.91 479.81C440.51 476.4 435.79 471.22 431.69 463.48C430.85 468.86 430.51 472.58 429.66 476.18C427.8 483.99 422.64 487.56 414.71 486.89C407.56 486.28 403.78 481.99 403.29 473.72C402.09 453.65 402.47 433.56 402.18 413.47C402.15 411.38 402.18 409.28 401.43 407.08C397.95 411.52 396.17 416.44 395.96 421.86C395.69 428.66 395.74 435.47 394.09 442.14C392.5 448.54 388.53 452.22 382.57 452.83C376.29 453.47 371.91 451 368.98 445.01C367.74 442.48 366.59 439.89 366.28 437.03C366.15 435.86 366.04 434.39 364.68 434.28C363.15 434.16 361.6 435.04 361.12 436.53C360.58 438.23 360.41 440.1 360.38 441.9C360.21 452.03 359.61 462.13 358.29 472.18C357.01 481.92 347.26 486.92 338.46 482.38C332.6 479.36 329.74 473.94 327.11 468.33C326.55 467.13 326.18 465.85 325.75 464.59C322.05 453.69 322.07 453.75 311.17 457.79C308.39 458.82 306.92 460.42 306.31 463.4C305.05 469.57 303.5 475.69 300.52 481.33C292.74 496.01 277.31 500.26 263.5 491.15C260 488.84 258.01 488.7 254.81 491.86C246.17 500.4 233.1 500.75 222.4 493.09C219.9 491.3 218.48 491.18 216.11 493.38C207.86 501.04 195.33 500.9 186.84 492.93C183.32 489.63 181.52 489.08 179.03 493.95C176.22 499.45 171.43 501.77 164.84 502.2C153.37 502.96 144.26 499.92 137.96 489.99C136.5 487.69 134.97 487.98 133.91 490.11C128.58 500.8 119.6 503.4 108.58 502.04C105.47 501.66 102.2 501.52 99.14 502.03C91.29 503.34 86.86 499.06 82.81 493.29C71.89 477.72 68.42 460.32 69.99 441.74C71.16 427.89 73.68 414.33 83 403.24C90.57 394.24 99.85 388.65 112.19 390.92C124.65 393.21 132.28 401.04 136.51 412.68C138.82 419.02 139.14 425.66 139.85 432.24C140.17 435.22 139.64 438.22 138.55 441.04C136.87 445.38 132.32 448.38 128.53 447.75C124.43 447.08 121.37 443.36 121.19 438.33C120.96 431.83 120.57 425.38 118.02 419.29C117.38 417.77 116.68 416.21 115.65 414.96C112.54 411.18 110.49 411.49 108.66 416.06C105.56 423.79 103.1 431.74 102.95 440.15C102.71 453.75 102.11 467.44 107.63 480.37C108.57 482.58 108.87 485.78 111.78 486.04C114.45 486.29 116.05 483.67 117.51 481.74C121.35 476.61 123.89 470.44 129.98 467.16C131.33 466.43 131.09 464.53 131.23 463.03C132.83 446.53 146.81 432.17 163.1 430.22C166.82 429.78 170.4 430.4 173.86 431.65C176.28 432.53 178.28 432.21 180.32 430.57C185.39 426.49 191.27 426.34 196.75 428.9C201.93 431.32 203.17 436.5 203.2 441.99C203.24 449.62 203.46 457.26 203.7 464.89C203.76 466.79 203.28 468.85 205.08 471.19V471.23ZM454.69 450.08C463.67 448.26 470.11 443.11 473.33 434.63C477.49 423.68 470.94 415.23 459.29 415.87C454.29 416.15 450.02 418.13 446.09 421.09C433.86 430.31 432.04 448.98 440.22 462.65C445.75 471.88 454.52 476.58 465.25 476.25C475.06 475.94 480.05 468.78 483.56 460.76C486.94 453.04 489.72 445.05 492.69 437.15C492.97 436.4 493.53 435.28 491.77 434.48C489.72 439.95 487.76 445.37 485.64 450.74C483.14 457.08 480.35 463.33 475.58 468.34C470.06 474.14 464.1 473.78 459.12 467.47C456.52 464.18 454.99 460.35 453.66 456.38C452.82 453.86 453.11 451.88 454.81 449.99L454.67 450.09L454.69 450.08ZM339.88 264.97C341.72 266.2 341.18 267.66 341.4 268.88C341.64 270.25 341.93 271.57 343.6 271.74C345.42 271.93 347.31 272.14 348.77 270.69C349.94 269.53 350.23 259.65 349 258.6C346.49 256.45 344 258.02 341.4 259.54C341.4 258.36 341.26 257.67 341.42 257.07C342.1 254.53 341.03 249.62 346.49 253.36C347.47 254.03 349.46 253.99 349.79 252.31C350.27 249.92 350.62 246.99 348.65 245.34C346.76 243.76 347.17 247.85 345.21 247.59C344.59 245.81 345.35 244.33 346.16 242.91C350.84 234.66 353.48 225.53 357.36 216.95C359.09 213.12 358.59 210.85 354.37 209.4C351.24 208.32 348.46 206.37 346.07 204.03C345.18 203.16 343.81 202.03 344.84 200.66C345.77 199.42 346.95 200.65 347.92 201.13C351.81 203.05 355.83 203.02 360.06 202.54C376.89 200.63 392.45 168.77 376.8 154.58C372.76 150.91 369.32 146.58 365.33 142.85C353.97 132.23 343.53 121.06 338.92 105.6C337.29 100.12 333.38 96.31 328.15 93.81C325.93 92.75 323.88 91.27 321.94 89.73C320.73 88.77 318.93 87.61 320.14 85.65C321.26 83.82 323.01 84.68 324.62 85.11C331.96 87.09 336.85 92.2 341.16 98.03C345.51 103.91 349.22 110.19 352.63 116.66C354.16 119.56 356.37 121.36 359.92 120.2C363.42 119.05 364.21 116.19 363.94 113.04C363.62 109.4 362.7 105.86 361.36 102.43C348.92 70.65 325.96 49.25 295.15 35.83C282.18 30.18 270.42 33.4 260.89 43.74C254.15 51.04 249.41 59.5 244.92 68.24C235.49 86.63 228.43 105.9 222.98 125.79C222.55 127.36 221.74 129.34 223.14 130.49C224.6 131.68 226.25 130.23 227.68 129.51C233.97 126.3 238.32 121.22 241.67 115.1C245.35 108.38 247.95 101.2 250.88 94.15C252.47 90.33 253.85 86.39 256.57 83.15C258.03 81.41 259.33 78.77 262.06 79.95C265.02 81.22 264.36 83.94 263.5 86.43C262.69 88.78 262.11 91.24 261.08 93.49C258.39 99.41 256.44 105.53 254.91 111.85C250.97 128.14 243.25 142.02 229.18 151.92C225.82 154.28 222.74 157.22 220.1 160.37C213.83 167.85 210.44 176.56 213.55 186.19C219.58 204.85 231.28 211.99 250.72 209.79C251.21 209.73 251.71 209.61 252.2 209.62C254.52 209.7 257.8 207.5 258.9 210.47C259.9 213.17 256.47 214.49 254.54 215.84C241.94 224.62 238.77 236.52 242.7 250.83C243.36 253.22 244.16 255.59 245.07 257.9C251.51 274.26 260.86 289.38 266.13 306.22C272.8 327.55 288.7 340 307.35 349.75C314.4 353.43 320.28 351.46 326.3 345.97C329.67 342.89 330.18 337.99 334.28 334.83C334.45 338.19 334.04 341.25 338.61 340.68C348.98 339.39 359.39 338.39 369.79 337.39C374.64 336.92 378.18 334.83 380.43 330.37C384.61 322.08 388.96 313.88 393.27 305.66C394.86 302.63 393.86 301.63 390.6 301.34C386.69 300.99 383.07 302.36 379.27 302.57C368.34 303.16 357.42 304.06 346.48 304.61C342.27 304.82 340.01 306.48 339.82 310.82C339.68 314.13 339.33 317.43 339.05 320.74C338.96 321.77 338.66 322.83 337.36 322.66C336.28 322.52 336.41 321.51 336.43 320.68C336.69 306.41 336.78 292.14 337.32 277.88C337.48 273.62 338.13 269.22 339.86 264.96L339.88 264.97ZM265.18 16.85C263.36 15.54 261.39 16.11 259.47 16.48C252.42 17.85 245.78 20.48 239.24 23.35C224.77 29.69 211.33 37.75 198.2 46.59C177.52 60.51 158.72 76.29 143.74 96.33C139.55 101.93 136.26 108.08 134.12 114.77C133.79 115.8 133.02 117.09 134.29 117.92C135.24 118.54 136.23 117.72 137.01 117.17C139.86 115.17 142.7 113.15 145.44 111C157.16 101.81 169.84 94.38 184.16 90.07C187.76 88.99 191.96 88.02 194.83 91.55C197.47 94.8 195.31 98.17 193.92 101.33C193.46 102.39 192.89 103.41 192.31 104.41C186.51 114.48 179.7 123.9 173.19 133.5C168.29 140.73 163.85 148.14 164.78 157.37C165.76 167.11 171.24 174.59 177.33 181.72C182.89 188.23 185.98 195.68 186.58 204.29C187.89 223 189.56 241.68 188.19 260.46C187.64 268.04 189.38 275.29 194.28 280.98C204.85 293.24 208.67 308.5 213.74 323.13C222.72 349.02 235.89 372.34 254.1 392.82C255.34 394.21 256.47 396.32 258.93 394.23C261.44 392.09 260.41 390.32 258.78 388.31C255.24 383.93 251.73 379.52 248.34 375.02C235.33 357.8 225.2 338.94 218.49 318.51C213.7 303.91 208.22 289.79 199.88 276.86C195.74 270.43 194.24 263.63 195.7 256C196.63 251.14 196.84 246.12 197.13 241.15C198.51 217.66 198.58 194.11 202.57 170.77C207.02 144.72 214.32 119.36 219.87 93.59C223.58 76.36 231.36 60.65 240.86 46.03C246.96 36.65 253.96 27.64 262.71 20.3C263.79 19.4 265.34 18.74 265.19 16.82L265.18 16.85ZM275.96 433.49C285.18 425.94 290.39 416.41 289.51 404.25C288.91 395.96 283.39 392.3 275.33 394.25C268.28 395.96 263.75 400.57 260.99 406.96C254.5 421.98 253 437.78 255.25 453.79C256.82 464.95 255.33 474.94 247.72 483.51C243.32 488.47 238.27 487.99 235.29 482.24C229.33 470.74 227.73 458.3 228.15 445.54C228.21 443.72 230.48 441.03 229.86 440.29C226.34 436.05 228.64 431.52 229 427.36C229.73 418.96 231.06 410.54 235.48 403.04C236.7 400.98 238.2 399.08 240.8 399.08C243.51 399.08 244.79 401.23 245.81 403.35C248.33 408.63 247.84 413.96 245.87 419.29C243.53 425.58 240.13 431.25 234.68 437.03C243.1 433.39 251.92 415.76 250 405.91C248.45 397.97 242.73 394.7 234.87 397.05C226.31 399.6 222.18 406.04 219.37 413.86C213.82 429.27 214 445.11 215.79 461.06C216.8 470 213.6 477.73 208.58 484.71C205.35 489.21 201.59 488.69 198.94 483.75C196.74 479.64 195.39 475.21 194.91 470.52C193.94 460.92 194.39 451.29 194.23 441.67C194.14 436.64 191.7 435.21 187.09 437.12C185.5 437.78 184.25 438.86 183.4 440.33C181.91 442.88 180.06 443.29 177.67 441.53C174.09 438.89 170 438.65 165.79 439.1C153.46 440.43 145.12 447.03 141.3 458.7C137.69 469.74 139.16 480.18 147.77 488.6C155.11 495.77 169.02 498.82 174.53 483.79C175.96 479.9 177.58 476.1 178.4 472C178.7 470.51 178.71 468.32 181.01 468.37C182.9 468.42 182.99 470.34 183.51 471.67C185.63 477.12 188.09 482.33 192.66 486.26C200.23 492.76 208.05 491.22 212.81 482.43C214.28 479.72 214.16 475.05 217.18 474.59C220.64 474.06 220.82 479.11 223.06 481.19C223.66 481.75 224.13 482.46 224.67 483.08C233.33 492.96 247.68 490.99 253.3 479.13C254.01 477.63 254.53 476.04 255.27 474.56C256.6 471.89 258.03 470.61 259.93 474.25C260.92 476.15 262.16 477.95 263.49 479.64C271.57 489.91 286.36 489.31 292.16 478.27C295.6 471.72 297.2 464.5 298.55 456.35C296.45 458.7 296.56 460.8 296.16 462.7C294.73 469.47 292.28 475.77 287.51 480.88C282.91 485.8 278.39 485.27 275.03 479.5C272.25 474.73 270.7 469.48 269.74 464.04C268.75 458.48 267.83 452.94 267.83 447.25C267.83 441.89 269.56 436.73 268.24 431.1C267.32 427.15 268.91 422.59 269.53 418.32C270.46 411.86 272.23 405.67 275.85 400.14C277.05 398.31 278.33 396.3 280.82 396.64C283.32 396.98 284.75 398.95 285.71 401.17C288.25 407.04 287.54 412.8 285.24 418.57C283.03 424.12 279.28 428.68 275.97 433.5L275.96 433.49ZM387.98 361.88C389.06 361.32 389.6 361.2 389.9 360.86C391 359.62 392.14 358.39 393.07 357.02C401.84 344.12 407.45 329.86 411.38 314.83C417.02 293.25 416.31 271.03 418.02 249.07C419.71 227.41 419.75 205.58 422.14 184.01C424.27 164.76 420.82 146.69 414.92 128.77C413.44 124.29 411.64 119.67 407.65 116.23C406.92 120.48 407.05 124.56 406.91 128.63C404.99 184.7 403.02 240.76 401.12 296.83C401.05 298.9 400.53 300.75 399.61 302.54C395.44 310.63 391.2 318.69 387.11 326.81C385.18 330.64 381.85 334.4 382.51 338.7C383.71 346.45 386.05 354.01 387.98 361.88ZM347.79 464.65C343.92 461.46 344.53 457.76 344.24 454.45C342.79 437.75 341.45 421.05 340.09 404.34C339.76 400.24 337.75 397.81 333.46 397.91C329.39 398.01 327.21 400.53 327.4 404.32C328.16 420.05 327.99 435.9 331.7 451.34C333.4 458.4 334.91 465.61 339.36 471.71C341.29 474.35 343.84 475.12 346.78 474.55C349.89 473.95 349.53 471.14 349.68 468.93C350.56 456.02 351.1 443.08 352.23 430.2C353.36 417.28 355.54 404.53 361.69 392.85C362.64 391.05 363.27 388.2 365.92 388.6C368.43 388.98 368.57 391.82 368.99 393.82C370.86 402.93 372.03 412.15 373.06 421.39C373.76 427.65 374.47 433.93 376.63 439.91C377.45 442.19 378.7 444.23 381.6 443.9C384.2 443.6 385.12 441.66 385.44 439.36C385.83 436.57 386.52 433.76 386.45 430.98C386.07 417.45 390.5 405.23 396.32 393.35C397.63 390.68 398.57 387.81 400.62 385.53C401.84 384.17 403 382.55 405.1 382.86C407.4 383.2 408.35 385.03 408.79 387.06C409.34 389.65 409.91 392.26 410.16 394.9C412.14 415.59 411.57 436.35 411.9 457.09C411.99 462.9 411.74 468.71 412.54 474.49C412.8 476.41 413.54 478.07 415.88 478.13C418.05 478.18 419.86 477.47 420.62 475.27C421.05 474.03 421.36 472.7 421.44 471.39C422.82 449.53 424.26 427.67 422.86 405.76C422.42 398.81 421.38 391.86 418.09 385.54C413.01 375.77 405.38 375.2 398.82 383.97C394.5 389.74 391.57 396.22 388.8 402.81C388.34 403.91 388.13 405.72 386.35 405.44C384.87 405.21 384.41 403.76 384.09 402.45C383.02 398.1 381.97 393.71 379.81 389.76C377.46 385.46 374.32 382.44 368.77 382.86C363.46 383.26 360.92 386.38 359.18 390.89C353.8 404.82 352.31 419.51 350.38 434.14C349.08 443.99 349.98 454.02 347.81 464.65H347.79ZM399.11 205.53C399.19 205.53 399.27 205.53 399.34 205.53C399.34 202.05 399.37 198.56 399.33 195.08C399.31 193.4 399.24 191.54 396.92 191.44C392.11 191.24 386.8 190.51 383.06 193.97C372.66 203.61 361.32 212.59 356.97 227.1C355.4 232.32 355.33 232.78 360.65 232.14C368.4 231.21 376.14 230.53 383.95 230.49C387.06 230.47 389.04 231.44 389.18 234.94C389.91 253 390.3 271.06 389.36 289.13C389.17 292.71 387.48 294.23 384.21 294.47C379.74 294.79 375.27 295.03 370.8 295.31C361.7 295.89 352.6 296.46 343.51 297.1C342.22 297.19 340.59 297.36 340.69 299.18C340.81 301.34 342.52 301.13 344.05 300.99C349.33 300.49 354.6 299.9 359.89 299.5C369.98 298.75 380.07 298.14 390.16 297.4C393.74 297.14 396.18 296.23 396.3 291.5C397.04 262.83 398.15 234.17 399.13 205.51L399.11 205.53ZM367.77 342.09C358.6 342.98 348.06 343.99 337.52 345.05C336.05 345.2 334.27 345.15 333.19 345.95C328.82 349.17 323.84 352.07 320.73 356.3C318.51 359.32 321.63 363.86 322.2 367.75C322.86 372.26 325.32 373.71 329.8 373.09C344.05 371.1 358.4 369.9 372.47 366.67C383.93 364.04 384.73 362.8 380.97 351.23C380.77 350.6 380.54 349.98 380.32 349.35C378.5 344.1 374.32 341.68 367.77 342.09ZM121.81 490.6C119.51 492.08 118.01 493.11 116.45 494.04C110.85 497.36 106.25 496.34 103.07 490.57C94.62 475.21 93.07 458.43 93.88 441.35C94.44 429.49 96.96 418.01 103 407.57C106.11 402.19 109.4 401.29 115.04 403.92C120.98 406.69 124.51 411.52 126.86 417.39C127.42 418.8 127.51 420.47 129.17 421.71C129.89 417.75 128.16 414.75 126.93 411.79C121.94 399.8 107.31 395.65 96.5 402.77C89.93 407.1 86.13 413.3 83.31 420.35C78.17 433.22 78.11 446.76 79.37 460.1C80.41 471.15 83.91 481.71 91.42 490.65C97.59 498 116.34 501.72 121.8 490.6H121.81ZM401.4 148.97C401.64 148.97 401.88 148.97 402.12 148.97C402.12 139.53 402.12 130.08 402.12 120.64C402.12 118.42 402.32 115.92 399.03 116.28C390.65 117.2 382.12 116.48 373.83 118.61C370.69 119.42 370.13 120.89 371.46 123.61C373.95 128.7 377.09 133.37 380.61 137.78C390.64 150.32 394.41 164.33 390.76 180.17C390.36 181.93 388.48 184.9 392.03 185.3C394.84 185.62 398.25 185.41 399.36 181.69C399.78 180.28 399.83 178.75 399.91 177.26C400.42 167.83 400.9 158.4 401.38 148.96L401.4 148.97ZM287.43 11.31L287.25 12.93C290.04 12.93 292.84 12.81 295.63 12.95C309.33 13.62 322.29 16.29 332.65 26.32C341.14 34.54 348.81 43.4 355.41 53.24C366.86 70.3 377.33 88.06 390.56 103.89C391.58 105.11 392.27 107.01 394.71 106.87C393.91 103.97 391.93 102.33 390.42 100.45C383.87 92.29 378.24 83.49 372.32 74.9C361.03 58.54 350.79 41.48 336.93 26.95C323.04 12.39 305.77 10.44 287.44 11.31H287.43ZM289.9 449.05C289.7 444.51 288.35 440.96 284.41 439.41C282.26 438.56 276.43 444.35 276.61 447.13C277.08 454.71 277.85 462.27 280.14 469.56C280.5 470.72 280.61 472.51 282.27 472.48C283.78 472.45 284.15 470.79 284.69 469.63C287.81 462.96 288.41 455.66 289.9 449.05ZM242.18 475.71C246.81 470.66 247.9 465.17 246.67 459.28C245.6 454.18 245.56 449.12 245.93 443.99C246.02 442.77 246.67 441.34 245.17 440.51C238.92 443.79 236.1 448.51 237.41 455.81C238.59 462.38 238.77 469.14 242.18 475.71ZM367.41 245.8C367.38 236.9 366.78 236.56 358.31 237.23C354.29 237.55 352.66 238.99 353.15 243.03C353.43 245.32 353.22 247.67 353.27 249.99C353.29 250.97 353.26 252.36 354.31 252.56C358.08 253.26 362.03 253.41 365.6 252.15C368.59 251.1 366.94 247.79 367.41 245.79V245.8ZM367.41 282.81C367.41 277.94 365.4 275.5 361.35 275.5C353.23 275.5 353.04 275.5 353.31 283.53C353.4 286.33 351.01 290.97 357.43 290.74C367.4 290.37 367.4 290.55 367.41 282.81ZM384.44 243.27C384.45 237.79 381.74 235.42 376.3 236.17C375.97 236.22 375.64 236.24 375.32 236.28C373.27 236.51 371.7 237.45 371.93 239.69C372.33 243.64 370.5 247.85 373.26 251.52C373.34 251.63 373.56 251.67 373.72 251.67C377.02 251.77 380.57 252.24 383.43 250.7C385.65 249.5 384.06 246.45 384.43 244.25C384.48 243.93 384.43 243.59 384.44 243.26V243.27ZM367.73 264.59C367.58 260.67 369.06 256.95 363.26 257.28C353.33 257.84 353.64 257.59 353.32 265.09C353.08 270.74 355.97 271.14 360.35 270.93C367.85 270.57 367.86 270.73 367.73 264.59ZM384.87 282.08C384.28 274.44 386.23 275.11 376.85 275.37C371.47 275.52 371.6 275.63 371.94 285.93C372.15 292.24 376.67 289.66 379.51 289.73C385.07 289.87 385.2 289.42 384.88 282.08H384.87ZM384.66 263.06C384.48 259.79 385.63 256.02 379.76 256.42C372.19 256.93 372.37 256.67 372.06 265.36C371.88 270.3 374.64 270.12 377.98 270.06C384.71 269.93 384.74 269.94 384.66 263.07V263.06ZM348.06 284.67C348.06 282.32 348.11 280.68 348.04 279.04C347.98 277.63 347.58 276.38 345.76 276.56C343.89 276.74 341.37 276.22 341.35 279.16C341.32 283.32 338.37 287.73 342.23 291.59C342.5 291.86 343.18 291.73 343.67 291.75C350.01 291.94 347.33 286.95 348.05 284.67H348.06ZM479.49 444.11C479.2 443.93 478.91 443.76 478.62 443.58C477.46 444.86 476.36 446.21 475.12 447.41C472.23 450.2 470.51 454.37 465.82 455.04C464.36 455.25 462.72 456.05 463.19 457.96C463.7 460.03 464.64 462.07 466.71 463.1C468.58 464.03 470.09 462.95 470.87 461.46C473.85 455.73 476.64 449.89 479.5 444.1L479.49 444.11ZM114.32 160.8C123.51 158.21 131.05 149.69 130.89 142.63C125.08 149.01 119.7 154.9 114.32 160.8ZM138.58 137.52C142.2 142.73 141.52 149.48 145.08 155.64C147.38 148.28 144.67 140.44 138.58 137.52ZM309.49 443.41C316.19 439.48 320.05 432.76 318.25 428.08C315.12 433.08 310.96 437.03 309.49 443.41Z" fill="#B8BFE5"/>
<path d="M30.59 259.72C47.8 259.99 59.19 265.61 69.39 274.12C73.46 277.52 73.54 277.47 74.64 272.41C76.95 261.71 79.06 250.91 84.45 241.21C90.57 230.22 98.21 221.16 112.31 221.1C132.24 221.02 147.85 244.18 140.02 262.57C135.32 273.6 128.12 283.24 121.92 293.43C116.15 302.93 110.58 312.47 107.95 323.47C106.6 329.1 108.07 333.59 111.84 337.59C114.11 339.99 115.44 342.65 113.24 345.56C111.06 348.44 107.58 349.02 104.68 347.39C95.76 342.36 85.67 341.69 76.06 339.44C59.31 335.52 42.95 330.21 28.08 321.91C15.78 315.04 3.88999 306.4 0.549987 290.9C-1.50001 281.38 2.18999 273.95 9.22999 268.02C16.37 262.01 24.8 259.35 30.58 259.73L30.59 259.72ZM86.62 288.79C86.62 292.27 86.32 295.79 86.7 299.23C87.16 303.36 85.81 306.19 81.82 307.17C77.89 308.14 75.19 306.04 73.31 302.69C71.36 299.2 71.33 295.4 71.33 291.56C71.33 289.44 71.68 287.19 69.91 285.46C60.68 276.46 50.15 270.4 36.74 270.94C28.42 271.28 21.44 274 17.67 282.06C13.75 290.44 17.16 297.52 21.82 304.33C22.29 305.01 22.91 305.58 23.41 306.24C30.35 315.31 40.77 319.38 50.39 324.34C63.6 331.14 78.14 334.18 92.59 337.31C95.36 337.91 96.43 337.29 96.7 334.3C97.14 329.54 97.3 324.54 99.75 320.32C105.9 309.72 112.39 299.31 118.73 288.81C122.59 282.41 126.35 275.95 128.62 268.78C131.15 260.79 130.42 253.44 124.14 247.18C118.64 241.68 112.22 240.13 104.99 242.72C99.4 244.72 95.85 249.17 92.98 254.13C86.74 264.9 85.71 276.69 86.62 288.79Z" fill="#B8BFE5"/>
<path d="M561.44 338.92C561.59 349.29 555.42 356.17 548.04 362.08C534.42 372.97 518.46 378.93 501.73 383.08C495.78 384.56 489.76 385.78 483.8 387.23C479.95 388.17 476.08 388.99 472.57 391.1C469.77 392.79 466.57 392.58 464.31 390.17C462.07 387.79 463.29 385.16 465.22 383.05C470.34 377.44 469.59 371.26 467.16 364.89C461.71 350.65 452.64 338.47 444.63 325.7C439.93 318.2 438.29 310.42 440.8 301.97C443.78 291.95 450.55 285.27 460.59 282.9C470.93 280.46 479.15 285.06 485.17 293.33C492.14 302.91 495.45 314.03 497.72 325.5C498 326.9 497.33 328.87 499.06 329.45C500.66 329.99 501.71 328.31 502.75 327.35C513.52 317.36 526.35 314.29 540.5 316.53C549.03 317.88 555.88 322.04 559.94 330.22C561.38 333.12 561.31 335.94 561.44 338.93V338.92ZM487.52 340.42C487.52 340.42 487.43 340.42 487.38 340.42C487.38 337.27 487.7 334.08 487.32 330.97C486.13 321.32 483.96 311.99 476.69 304.79C471.55 299.7 465.53 298.54 459.92 301.46C453.21 304.95 448.76 312.61 450.25 319.03C451.52 324.5 453.11 329.93 456.13 334.81C460.84 342.42 465.48 350.07 470.11 357.74C473.97 364.14 478.12 370.49 478.36 378.27C478.49 382.75 480.57 383.02 484.14 382.11C494.9 379.34 505.74 376.74 516.04 372.58C526.09 368.53 535.66 363.41 542.56 354.67C547.18 348.82 549.88 342.2 546.41 334.8C543.01 327.55 536.52 325.62 529.07 325.56C519.38 325.48 511.51 329.73 504.19 335.51C501.51 337.63 500.29 340.16 500.42 343.66C500.52 346.27 500.19 349.04 499.35 351.49C498.22 354.79 495.93 357.38 491.93 356.74C487.85 356.08 486.72 353.13 486.97 349.37C487.17 346.39 487.33 343.41 487.51 340.43L487.52 340.42Z" fill="#B8BFE5"/>
<path d="M440.1 40.2C445.82 40.27 449.81 43.2 452.55 47.97C455.46 53.04 457.67 58.43 458.54 64.22C459.06 67.68 460.19 67.43 462.64 65.79C465.38 63.96 468.37 62.43 471.39 61.09C475.61 59.22 480.15 58.76 484.55 60.07C489.97 61.68 494.89 64.48 496.29 70.47C497.81 76.97 494.81 82.16 490.02 86.3C481.66 93.53 471.59 97.29 461.09 100.11C455.33 101.66 449.35 102.37 443.78 104.67C442.24 105.31 440.53 105.57 439.19 104.04C437.88 102.54 438.08 100.99 439.13 99.49C441.84 95.62 441.17 91.73 439.52 87.67C435.99 78.99 430.28 71.57 425.88 63.39C420.17 52.79 428.06 40.01 440.1 40.2ZM452.12 72.78C452.39 67.97 451.58 61.91 448.03 56.6C444.75 51.68 440.23 50.15 436.17 52.21C431.48 54.59 429.68 59.45 431.56 64.99C432.58 67.98 434.07 70.73 435.7 73.45C440.12 80.81 445.82 87.51 447.68 96.21C448.32 99.21 450.46 98.58 452.36 98.14C459.81 96.4 467.15 94.23 473.98 90.76C478.73 88.35 483.17 85.34 485.91 80.52C488.55 75.88 487.81 71.03 484.25 68.44C476.41 62.74 462.36 68.36 460.71 77.88C460.42 79.54 459.96 81.11 458.92 82.46C457.82 83.89 456.4 84.72 454.59 84.12C453.03 83.61 452.2 82.33 452.14 80.7C452.06 78.55 452.12 76.39 452.12 72.78Z" fill="#B8BFE5"/>
<path d="M328.1 254.72C327.84 270.15 324.84 285.41 325.11 300.88C325.25 308.68 325.16 316.48 325.47 324.27C325.76 331.79 322.48 337.81 317.76 343.1C314.59 346.66 310.27 346.22 306.56 341.93C300.79 335.25 296.37 327.59 292.43 319.74C287.97 310.86 283.67 301.89 280.22 292.52C274.67 277.5 272.19 262.05 273.68 246.14C275.18 230.15 287.41 218.49 303.04 217.39C314.1 216.61 324.05 224.03 326.26 234.92C327.58 241.44 328.05 248.06 328.11 254.72H328.1Z" fill="#B8BFE5"/>
<path d="M291.97 129.44C289.85 147.87 283.5 164.72 273.12 180.13C270.14 184.56 266.73 188.57 262.98 192.33C258.25 197.07 252.72 199.01 246.23 196.68C239.97 194.43 238.3 188.82 237.72 183.16C236.88 174.99 238.91 167.28 243.99 160.68C253.5 148.33 261.24 135.26 264.08 119.55C265.64 110.89 270.41 106.24 275.49 106.25C280.74 106.26 289.15 113.35 291.02 119.53C291.99 122.73 291.92 126.09 291.99 129.45L291.97 129.44Z" fill="#B8BFE5"/>
<path d="M351.57 185.83C344.8 186.48 339.17 182.48 334.01 178.05C314.56 161.36 305 140.24 306.34 114.45C306.42 112.97 306.56 111.44 306.99 110.04C308.36 105.63 310.37 101.46 315.34 100.42C320.72 99.29 324.05 102.7 326.6 106.84C330.45 113.1 332.81 120.05 334.85 127.02C337.19 134.97 341.1 141.38 348.35 145.87C353.55 149.1 357.94 153.45 361.88 158.23C366.36 163.67 367.25 169.91 366.05 176.51C364.88 182.94 360.21 185.9 351.57 185.82V185.83Z" fill="#B8BFE5"/>
<path d="M286.43 207.93C287.27 198.57 293.48 191.25 300.29 184.35C301.82 182.8 304 182.97 305.69 184.61C308.32 187.17 310.77 189.89 311.73 193.57C313.12 198.88 314.68 204.09 318.23 208.49C319.29 209.81 319.75 211.46 318.65 213.11C317.48 214.86 315.72 215.19 313.83 215.01C311.11 214.75 308.64 213.59 306.57 211.96C303.32 209.4 300.54 209.87 297.73 212.5C297.13 213.06 296.44 213.55 295.74 213.99C293.64 215.31 291.56 217.02 288.9 215.51C286.3 214.03 286.52 211.38 286.44 207.93H286.43Z" fill="#B8BFE5"/>
<path d="M156.97 470.41C157.11 462.2 158 454.19 163.15 447.31C165.69 443.92 168.63 441.47 173.25 442.83C177.47 444.08 180.95 448.44 180.54 452.98C179.54 464.31 176.83 475.18 170.52 484.88C169.89 485.84 169.08 486.69 168.27 487.52C163.9 492.03 160.5 491.26 158.66 485.14C157.22 480.36 156.67 475.41 156.97 470.41ZM170.95 453.7C166.56 458.79 165.19 465.18 167.05 471.03C169.54 465.5 170.77 460.22 170.95 453.7Z" fill="#B8BFE5"/>
<path d="M454.83 449.98C452.73 449.71 452.18 448.17 452.08 446.42C451.65 439.01 452.67 431.8 455.93 425.1C457.61 421.64 459.99 418.16 464.71 419.47C469.15 420.7 469.84 424.43 470.01 428.55C470.34 436.66 465.68 441.8 459.96 446.39C458.3 447.73 456.46 448.85 454.7 450.07L454.83 449.97V449.98Z" fill="#B8BFE5"/>
</svg>