<?xml version="1.0" encoding="UTF-8"?>
<svg id="Layer_1" fill="#ffffff" data-name="Layer 1" xmlns="http://www.w3.org/2000/svg" viewBox="0 0 630.66 727.02">
  <defs>
    <style>
      .cls-1 {
        stroke: #000;
        stroke-miterlimit: 10.43;
        stroke-width: .09px;
      }
    </style>
  </defs>
  <path class="cls-1" d="M182.34,1.28c12.65-.67,25.43.83,38.01-1.1,4.5-.15,9.1-.39,13.52.7,4.44,1.03,8.88,2.32,13.49,2.28,5.22-.08,10.05,2.22,14.46,4.79,4.62,2.68,9.88,3.82,15.02,5.07,3.97.78,6.69,4.06,10.27,5.68,4.33,2,8.94,3.43,12.99,6.02,8.06,5.11,14.14,12.77,22.4,17.61,6.33,3.76,9.07,10.92,14.18,15.9,3.24,3.39,5.34,7.61,7.31,11.82,9.53,16.76,14.85,35.43,21.43,53.45,3.43-2.97,6.92-6.27,8.13-10.81,1.9-6.73,8.27-10.45,11.87-16.09,7.01-10.27,18.92-15.8,26.14-25.89,2.68-3.85,7.3-5.39,10.9-8.15,6.47-4.63,12.04-11.17,20.08-13.02,10.2-2.79,20.01-7.11,30.54-8.64,6.69-.96,13.24-2.78,20.02-3.02,4.07-.93,8.12.31,12.21.21,17.67.27,34.58,5.87,51.25,11.19,8.79,3.11,17.73,6.92,24.32,13.74,12.25,12.2,23.44,25.48,33.44,39.58,4.69,6.37,5.04,14.57,8.49,21.52,2.86,6.15,2.13,13.17,4.59,19.43,1.16,11.3,2.38,22.6,3.21,33.93-.5,9.38-1.64,18.7-2.22,28.07-.3,3.81-2.29,7.19-2.77,10.96-1.36,8.59-3.23,17.22-7.18,25.03-3.59,7.27-4.03,15.71-8.32,22.66-2.91,4.98-7.1,9.12-9.51,14.41-1.56,3.31-3.49,6.45-5.79,9.32-3.04,3.76-4.9,8.29-7.79,12.16-3.34,4.62-7.84,8.21-11.73,12.33-4.45,5.29-7.5,11.68-12.46,16.56-2.69,2.97-5.5,5.83-8.51,8.47-3.45,3.02-4.97,7.59-8.34,10.68-2.41,2.24-5.11,4.18-7.29,6.67-2.74,3-4.62,6.68-7.38,9.66-6.89,7.1-14.85,13.1-21.6,20.35-6.04,6.71-13.65,11.7-20.41,17.6-6.24,6.42-13,12.4-18.33,19.65-4.34,5.99-9.78,11.2-13.19,17.84-4.75,8.88-12.61,15.44-18.4,23.58-4.23,6.34-9.25,12.1-14.05,18.01-4.49,5.17-8.52,10.75-13.51,15.46-6.32,6.14-10.95,13.7-16.53,20.47-6.95,9.04-14.61,17.56-20.73,27.22-2.76,4.77-7.42,8.09-9.96,13-3,5.26-5.72,10.76-9.78,15.32-6.41,10.16-13.29,20.06-19.66,30.28-3.78,6.44-9.38,11.74-12.19,18.75-3.99,9.61-9.54,18.45-14.46,27.6-3.83,7.2-8.57,14-11.03,21.85-3.31,8.23-5.88,16.72-9.06,25-2.47,5.89-3.79,12.18-5.72,18.26-1.14,3.54-1.1,7.6-3.4,10.68-1.97,2.66-6.5,1.79-7.74-1.16-9.33-18.98-19.28-37.67-30.13-55.83-3.44-5.92-6.55-12.04-10.1-17.89-5.63-7.7-12.31-14.67-16.89-23.11-2.6-4.89-6.87-8.61-9.48-13.49-3.49-6.26-8.53-11.43-13-16.97-5-6.3-11.23-11.5-16.17-17.84-2.53-4.37-6.61-7.49-9.32-11.72-3.33-4.02-6.06-8.53-9.61-12.34-5.85-4.89-10.89-10.78-14.7-17.38-3.52-5.97-8.08-11.22-12.33-16.66-4.16-4.17-9.14-7.53-12.48-12.5-10.34-9.26-20.57-18.82-29.35-29.62-6.02-8.03-11.76-16.26-17.68-24.36-8.64-11.04-17.76-21.73-25.64-33.34-4.46-7.98-9.39-15.74-12.84-24.24-2.61-5.07-4.94-10.29-7.68-15.29-8.01-12.87-11.77-27.72-17.27-41.7-1.86-6.79-5.25-13.33-4.95-20.52-.42-4.98-1.1-9.94-.97-14.95-1.47-12.38-1.22-24.97.88-37.27,1.54-7.96,2.91-15.95,4.24-23.93,2.93-11.69,5.85-23.59,11.75-34.2,2.78-4.75,6.41-8.92,9.83-13.21,4.57-5.44,8.21-11.82,14.16-15.94,4.51-3.12,6.6-8.91,11.77-11.18,6.93-3.32,14.14-6.02,21.33-8.72,3.35-1.63,6.04-4.59,7.89-7.77-2.34-14.82-1.92-29.85-1.68-44.8.62-8.44,2.36-16.73,3.94-25.03,2.92-13.33,9.73-25.49,17.85-36.34,3.99-5.12,6.24-11.49,11-16.03,3.48-3.03,8.13-4.31,11.54-7.45,4.58-4.45,9.24-9.22,15.24-11.7,6.84-1.39,13.91-1.61,20.62-3.67,6.95-2.14,13.97-4.11,21-5.95ZM212.19,13.34c-7.54.89-15.43.54-22.59,3.43-4.25,1.57-8.83.72-13.23,1.04-8.32.32-15.64,4.83-23.72,6.28-3.88.77-7.45,2.65-10.3,5.39-6.33,5.94-15.42,8.13-21.14,14.77-3.75,7.02-10.6,11.77-14.02,18.99-1.61,3.43-3.13,6.9-4.8,10.3-1.98,4.01-1.91,8.59-2.94,12.86-1.22,4.64-.34,9.58-1.98,14.14-1.74,4.97.46,10.46-1.67,15.38-2,4.27-.54,8.94.15,13.33,1.79,8.49,2.82,17.26,6.52,25.2,5.52-.57,11.19.31,16.6-1.17-.37-6.31.89-12.54,1.25-18.82,1.76-8.43,2.02-17.24,5.69-25.16-2.92,2.06-4.46,5.4-6.64,8.14-3.3,4.36-4.41,9.86-7.03,14.55l-1.01-.35c-.48-5.36-.39-10.76-.36-16.13.95-8.83,1.49-17.89,5.26-26.08,5.25-15.44,14.88-29.34,27.44-39.72,6.48-5.42,14.36-8.66,22.08-11.85,4.68-1.85,9.71-2.39,14.58-3.54,5.31-.99,10.63-2.29,16.06-2.24,8.56.15,17.23-.53,25.62,1.55,12.07,1.46,23.27,6.38,34.64,10.39,7.52,2.46,14.59,6.08,21.86,9.2,4.57,1.93,8.28,5.41,12.98,7.12,5.55,2.02,9.21,6.82,13.79,10.28,6.78,6.57,14.84,11.81,20.62,19.36,4.97,5.16,8.68,11.32,13.18,16.86,2.67,3.35,4.34,7.4,7.2,10.61-3.61-9.52-8.35-18.59-11.84-28.15-2.88-6.09-7.17-11.36-11.23-16.69-1.49-2-3.42-3.8-4.21-6.22,3.84,1.37,6.9,4.14,10.47,6.02-.9-3.91-2.98-7.42-5.57-10.44-3.36-3.92-6.43-8.2-10.65-11.25-1.95-1.41-3.96-2.73-5.72-4.36-5.37-5.19-12.09-8.61-18.26-12.72-3.06-2.11-6.52-3.48-9.83-5.13-2.6-1.26-4.33-3.99-7.27-4.57-5.66-1.42-11.31-3.01-16.56-5.58-3.31-1.38-6.52-3.46-10.21-3.43-5.74.04-11.21-2.17-16.94-2.13-5.43.11-10.9-.41-16.27.54ZM494.99,69.1c-4.3.92-8.66,1.52-12.98,2.29-11.68,2.55-22.7,7.36-33.5,12.36-2.44,1.07-4.93,2.1-7.05,3.73,4.09-.99,7.95-2.71,12-3.87,7.92-2.39,16.18-3.19,24.28-4.7,6.57-1.27,13.3-.59,19.94-1.03,2.06.07,4.64-.24,6.08,1.6-8.88,0-17.42,2.76-25.22,6.8,17.89-2.24,35.79,2.71,52.67,8.25,9.73,2.81,17.66,9.47,25.02,16.14,6.58,7.83,12.57,16.44,15.85,26.21,3.78,11.2,6.77,22.74,7.85,34.54,1.09,7.39,1.35,14.99.03,22.37-.36,4.12.06,8.29-.87,12.37-.51,1.79-.06,4.18-1.72,5.44-.61-13.55-.48-27.81-6.75-40.19-.55,13.93-3.15,27.67-4.68,41.51-1.77,12.46-5.37,24.55-8.36,36.75-2.05,8.24-5.11,16.16-7.75,24.22-1.73,4.89-4.24,9.49-5.44,14.57-.67,2.74-1.75,5.36-2.92,7.92,6.59-7.61,14.14-14.36,20.69-22.01,2.4-2.62,3.76-6.32,7-8.05-3.64,8.45-4.97,17.66-8.66,26.1,3.33-3.07,5.45-7.14,7.75-10.99,3.84-7.02,8.61-13.48,12.51-20.46,1.73-3.35,3.16-6.84,4.92-10.17,2.4-4.53,3.37-9.65,5.75-14.18.88-1.8,1.88-3.58,2.38-5.53,2.04-10.85,5.86-21.4,6.25-32.53.11-10.03.04-20.05-.01-30.08.18-7.54-1.47-14.94-2.34-22.4-1.87-7.69-1.53-15.86-4.74-23.21-2.88-6.42-6.92-12.27-11.21-17.82-11.2-13.02-25.66-23.64-42.32-28.4-11.43-3.21-23.27-4.72-35.02-6.24-3.12-.58-6.2-2.17-9.43-1.31ZM109.34,166.89c-3.55-.11-6.62,1.9-10.02,2.57-8.15,1.06-16.23,3.1-23.82,6.3-5.83,2.67-11.34,5.95-17.01,8.93-2.03.96-2.54,3.39-4.09,4.86-8.06,6.15-15.64,13.28-20.88,22.04-7.4,9.8-10.28,21.96-12.05,33.88-1.65,5.94.24,12.29-1.96,18.1-1.68,4.47-.21,9.27-.06,13.87.41,11.89,3.19,23.51,5,35.22,2.18,6.99,2.66,14.44,5.63,21.19,4.07,11.9,9.41,23.35,15.92,34.11,3.96,6.54,6.83,14.01,12.31,19.48-1.43-3.63-3.48-7.05-4.07-10.96,6.47,5.46,10.12,13.36,15.15,20.04,3.87,5.07,7.49,10.39,12,14.92-4.2-7.44-9.31-14.37-13-22.11-9.92-17.63-18.3-36.16-24.6-55.4-2.66-8.33-6.06-16.6-6.73-25.4-.07-14.06-3.24-28.03-1.62-42.11,1.06-8.47.66-17.44,4.54-25.28,4.91-10.28,10.03-20.75,17.96-29.09,4.36-4.31,8.55-8.86,13.56-12.44,4.35-3.13,9.56-4.6,14.49-6.53,8.47-3.12,17.23-6.43,26.4-6.03,3.87.04,7.76-1.35,11.6-.36,8.67,2.01,17.76,1.98,26.24,4.87,13.97,4.86,27.8,10.6,40.01,19.06,7.63,5.24,14.76,11.15,21.71,17.26,4.87,4.09,8.61,9.29,13.09,13.77-4.29-8.31-7.58-17.2-13.01-24.87-3.38-4.55-6.84-9.07-10.95-12.99-2-2.03-4.47-3.66-5.92-6.16,3.85,1.12,7.16,3.46,10.64,5.39,7.77,4.39,15.05,9.58,22.49,14.5,6.36,4.17,12.3,8.99,17.53,14.53,1.76,1.85,3.06,4.18,5.25,5.61-7.16-15.46-18.02-28.86-30.14-40.71-6.31-6.84-14.14-12.05-21.94-17.03-4.56-3.23-10.26-3.73-15.46-5.33-9.87-2.05-18.8-8.01-29.14-7.81-10.62-1.57-21.37-1.05-32.06-1-4.36,0-8.62,1.12-12.99,1.11ZM360.03,183.34c-3.26,1-6.66,1.64-9.75,3.11-5.84,5.8-14.72,6.68-20.9,12.05-6.2,5.92-13.95,9.91-20.07,15.92-8.02,7.99-16.37,15.72-23.14,24.84-13.44,16.11-24.57,34.17-32.22,53.73-3.02,7.67-6.09,15.41-7.5,23.57,2.99-5.11,5.11-10.69,8.25-15.72,11.51-19.25,25.55-36.85,40.34-53.67,6.66-7.01,13.6-13.75,20.55-20.49,1.46-1.34,2.81-3,4.82-3.53-4.56,6.64-9.08,13.33-12.66,20.58,2.56-1.77,3.85-4.69,5.83-7,5.41-6.29,11.86-11.57,18.12-16.98,8.18-6.7,17.82-11.19,27.3-15.7,6.73-3.11,14.12-4.15,21.33-5.58,8.31-.71,16.69-.38,25.03-.31,6.99-.04,13.7,2.13,20.37,3.96,10.41,3.07,20.07,8.62,27.88,16.16,3.76,3.74,6.39,8.41,9.12,12.92,4.66,7.78,8.01,16.34,9.97,25.19,2.52,14.6.87,29.59-2.41,43.93-1.52,7.43-1.24,15.16-3.55,22.44-1.85,5.56-2.35,11.56-5.19,16.77-.01-6.7,1.65-13.3,1.18-20.01.08-10.08-.64-20.16-2.81-30.02-1.3,1.73-1.87,3.88-2.45,5.94-2.27,7.86-3.81,15.9-6.15,23.74-1.28,5.99-2.28,12.08-4.5,17.82-3.25,6.41-4.19,13.72-7.9,19.94-4.98,12.83-12.44,24.45-18.04,37-9.79,18.97-22.41,36.3-33.58,54.45-9.96,14.4-20.29,28.57-29.34,43.56-1.97,4.13-4.88,7.66-7.65,11.28,4.23-3.02,6.99-7.53,10.45-11.31,10.96-13.35,22.68-26.08,33.36-39.66.69-.72,1.49-1.32,2.38-1.79-5.72,11.03-10.6,22.53-16.78,33.35-3.96,6.34-6.4,13.46-9.95,20.02-2.11,4.4-3.73,9.03-5.44,13.6-1.78,5.22-4.9,9.84-6.89,14.98,18.65-21.13,36.41-43.1,52.55-66.23,3.69-5.28,7.88-10.2,11.43-15.58,7.14-10.76,15.68-20.52,22.58-31.44,7.36-11.62,15.31-22.86,22.29-34.71,6.72-9.89,11.1-21.08,16.17-31.84,3.74-7.25,6.14-15.08,8.13-22.95,1.71-4.57.91-9.49,1.68-14.21,2.28-16.85,5.47-33.93,2.82-50.93-.66-11.22-4.16-22-8.56-32.26-4.48-11.84-10.93-23.02-19.63-32.26-5.16-4.62-11.08-8.24-16.63-12.34-3.31-2.54-7.52-3.22-11.33-4.66-7.7-2.94-16.02-3.34-23.99-5.12-8.05-2.09-16.41-.9-24.61-1.05-10.48-.22-20.39,3.66-30.31,6.5ZM316.5,554.54c-8.8,14.06-18.01,27.96-25.03,43.03-4.56,9.07-9.44,18.34-10.34,28.62-3.06,10.56-4.62,21.44-5.5,32.38,1.55-2.05,1.99-4.63,2.78-7.01,3.83-12.13,8.33-24.04,13.07-35.85,3.37-10.13,7.12-20.12,10.73-30.17,4.8-11.82,11.01-23,16.88-34.29-1.03.95-1.87,2.09-2.59,3.29Z"/>
</svg>